SplineFontDB: 3.0
FontName: KacstFixed
FullName: KacstFixed
FamilyName: KacstFixed
Weight: Medium
Copyright: KACST holds the copyright of the included Arabic font which is donated under GPL by KACST. \nURW Design and Development holds the copyright of the included Latin font which is donated under GPL by URW. 
Version: 1
ItalicAngle: 0
UnderlinePosition: -800
UnderlineWidth: 100
Ascent: 1638
Descent: 410
LayerCount: 2
Layer: 0 1 "Back" 
Layer: 1 1 "Fore" 
NeedsXUIDChange: 1
XUID: [1021 678 237379909 14247000]
FSType: 0
OS2Version: 0
OS2_WeightWidthSlopeOnly: 0
OS2_UseTypoMetrics: 1
CreationTime: 1163511077
ModificationTime: 1216491591
PfmFamily: 49
TTFWeight: 500
TTFWidth: 5
LineGap: 100
VLineGap: 0
OS2TypoAscent: 2300
OS2TypoAOffset: 0
OS2TypoDescent: -1500
OS2TypoDOffset: 0
OS2TypoLinegap: 900
OS2WinAscent: 2300
OS2WinAOffset: 0
OS2WinDescent: 1500
OS2WinDOffset: 0
HheadAscent: 2300
HheadAOffset: 0
HheadDescent: -1500
HheadDOffset: 0
OS2Vendor: 'AE  '
Lookup: 1 1 0 "'isol' Isolated Forms in Arabic lookup 2"  {"'isol' Isolated Forms in Arabic lookup 2 subtable"  } ['isol' ('arab' <'dflt' > ) ]
Lookup: 1 1 0 "'init' Initial Forms in Arabic lookup 3"  {"'init' Initial Forms in Arabic lookup 3 subtable"  } ['init' ('arab' <'dflt' > ) ]
Lookup: 1 1 0 "'medi' Medial Forms in Arabic lookup 4"  {"'medi' Medial Forms in Arabic lookup 4 subtable"  } ['medi' ('arab' <'dflt' > ) ]
Lookup: 1 1 0 "'fina' Terminal Forms in Arabic lookup 5"  {"'fina' Terminal Forms in Arabic lookup 5 subtable"  } ['fina' ('arab' <'dflt' > ) ]
Lookup: 4 9 1 "'liga' Standard Ligatures in Arabic lookup 6"  {"'liga' Standard Ligatures in Arabic lookup 6 subtable"  } ['liga' ('arab' <'dflt' > ) ]
Lookup: 4 3 1 "'liga' Standard Ligatures in Arabic lookup 7"  {"'liga' Standard Ligatures in Arabic lookup 7 subtable"  } ['liga' ('arab' <'dflt' > ) ]
Lookup: 260 1 0 "'mark' Mark to base in Arabic lookup 0"  {"'mark' Mark to base in Arabic lookup 0 subtable"  } ['mark' ('arab' <'dflt' > ) ]

StartChar: arabiccomma
Encoding: 257 1548 1
Width: 1229
Flags: W
HStem: -21 207<580.5 690.525>
VStem: 435.5 80<167.607 365.31>
LayerCount: 2
Fore
SplineSet
435.5 216.5 m 128,-1,1
 435.5 312 435.5 312 481 374 c 128,-1,2
 526.5 436 526.5 436 580.5 464 c 1,3,-1
 611.5 473 l 1,4,5
 571.5 447 571.5 447 540.5 389 c 0,6,7
 515.5 333 515.5 333 515.5 277 c 128,-1,8
 515.5 221 515.5 221 548.5 166 c 1,9,-1
 580.5 186 l 1,10,11
 646.422 212.369 646.422 212.369 692.5 163 c 0,12,13
 722.5 130.857 722.5 130.857 722.5 97.9286 c 0,14,15
 722.5 41 722.5 41 691.5 10 c 128,-1,16
 660.5 -21 660.5 -21 604 -21 c 128,-1,17
 547.5 -21 547.5 -21 491.5 50 c 256,18,0
 435.5 121 435.5 121 435.5 216.5 c 128,-1,1
EndSplineSet
EndChar

StartChar: arabicsemicolon
Encoding: 258 1563 2
Width: 1229
Flags: W
HStem: -12 170<559.767 706.124> 264 207<616 726.025>
VStem: 471 80<452.607 650.31> 549 168<-0.802734 146.715>
LayerCount: 2
Fore
SplineSet
471 501.5 m 132,-1,1
 471 597 471 597 516.5 659 c 132,-1,2
 562 721 562 721 616 749 c 5,3,-1
 647 758 l 5,4,5
 607 732 607 732 576 674 c 4,6,7
 551 618 551 618 551 562 c 132,-1,8
 551 506 551 506 584 451 c 5,9,-1
 616 471 l 5,10,11
 681.922 497.369 681.922 497.369 728 448 c 4,12,13
 758 415.857 758 415.857 758 382.929 c 4,14,15
 758 326 758 326 727 295 c 132,-1,16
 696 264 696 264 639.5 264 c 132,-1,17
 583 264 583 264 527 335 c 260,18,0
 471 406 471 406 471 501.5 c 132,-1,1
549 73 m 128,-1,20
 549 106 549 106 574 132 c 128,-1,21
 599 158 599 158 631.5 158 c 128,-1,22
 664 158 664 158 690.5 133 c 128,-1,23
 717 108 717 108 717 82 c 128,-1,24
 717 56 717 56 710 40.5 c 128,-1,25
 703 25 703 25 691.5 13.5 c 128,-1,26
 680 2 680 2 664.5 -5 c 128,-1,27
 649 -12 649 -12 624 -12 c 128,-1,28
 599 -12 599 -12 574 14 c 128,-1,19
 549 40 549 40 549 73 c 128,-1,20
EndSplineSet
EndChar

StartChar: arabicquestionmark
Encoding: 259 1567 3
Width: 1229
Flags: W
HStem: 0 209<571.897 688.349> 1074 40<570.464 719.57>
VStem: 370.5 132<797.542 993.309> 525.5 205<43.0086 162.285> 633.5 36<305 379.889 379.889 415.081 397.485 467.718> 761.5 97<869.5 1028.94>
LayerCount: 2
Fore
SplineSet
370.5 842 m 0,0,1
 370.5 954 370.5 954 447.5 1034 c 256,2,3
 524.5 1114 524.5 1114 626.5 1114 c 128,-1,4
 728.5 1114 728.5 1114 793.5 1051 c 256,5,6
 858.5 988 858.5 988 858.5 909 c 128,-1,7
 858.5 830 858.5 830 823.5 786 c 256,8,9
 788.5 742 788.5 742 745 742 c 128,-1,10
 701.5 742 701.5 742 676.5 768 c 128,-1,11
 651.5 794 651.5 794 651.5 838.5 c 128,-1,12
 651.5 883 651.5 883 695.5 909 c 2,13,-1
 736.5 932 l 2,14,15
 761.5 951 761.5 951 761.5 986.5 c 128,-1,16
 761.5 1022 761.5 1022 728.5 1048 c 128,-1,17
 695.5 1074 695.5 1074 639.5 1074 c 128,-1,18
 583.5 1074 583.5 1074 543 1033.5 c 128,-1,19
 502.5 993 502.5 993 502.5 934.5 c 128,-1,20
 502.5 876 502.5 876 530.5 830 c 2,21,-1
 592.5 706 l 2,22,23
 669.5 541 669.5 541 669.5 416 c 0,24,25
 669.5 387 669.5 387 657.5 305 c 1,26,-1
 627.5 305 l 1,27,28
 633.5 377 633.5 377 633.5 380 c 0,29,30
 633.5 462 633.5 462 591.5 500 c 2,31,-1
 496.5 585 l 2,32,33
 370.5 699 370.5 699 370.5 842 c 0,0,1
525.5 94 m 2,34,-1
 525.5 110 l 2,35,36
 525.5 118 525.5 118 570.5 163.5 c 128,-1,37
 615.5 209 615.5 209 623.5 209 c 2,38,-1
 639.5 209 l 2,39,40
 646.5 209 646.5 209 688.5 165 c 256,41,42
 730.5 121 730.5 121 730.5 113 c 2,43,-1
 730.5 97 l 2,44,45
 730.5 87 730.5 87 687 43.5 c 128,-1,46
 643.5 0 643.5 0 636.5 0 c 2,47,-1
 620.5 0 l 2,48,49
 611.5 0 611.5 0 568.5 43 c 256,50,51
 525.5 86 525.5 86 525.5 94 c 2,34,-1
EndSplineSet
EndChar

StartChar: hamza
Encoding: 260 1569 4
Width: 1231
Flags: HW
VStem: 481.111 574.37
AnchorPoint: "ArabicBelow" 666 -231 basechar 0
AnchorPoint: "ArabicAbove" 678.45 710.51 basechar 0
LayerCount: 2
Fore
SplineSet
1055.48 239.231 m 1,0,1
 1014.82 67.6074 l 2,2,3
 1011.48 53.518 1011.48 53.518 991.42 46.501 c 2,4,-1
 481.111 -131.984 l 1,5,6
 505 0 505 0 616.152 82.3438 c 1,7,8
 512.69 136.152 512.69 136.152 484.717 217.842 c 128,-1,9
 456.743 299.531 456.743 299.531 517.51 419.205 c 128,-1,10
 578.275 538.882 578.275 538.882 657.929 563.964 c 0,11,12
 848.124 623.858 848.124 623.858 956.641 415.67 c 1,13,14
 700.199 491.001 700.199 491.001 659.376 377.053 c 24,15,16
 611.101 245.053 611.101 245.053 771.048 165.727 c 0,17,18
 817.172 142.852 817.172 142.852 1055.48 239.231 c 1,0,1
EndSplineSet
Substitution2: "'isol' Isolated Forms in Arabic lookup 2 subtable" hamzaisolated
EndChar

StartChar: alefwithmaddaabove
Encoding: 261 1570 5
Width: 1229
Flags: W
HStem: 1371 77<542.908 838.499> 1417 77<394.042 676.076>
VStem: 600.5 158<154.872 576.472>
AnchorPoint: "ArabicBelow" 520.5 -246 basechar 0
AnchorPoint: "ArabicAbove" 520.5 1753 basechar 0
LayerCount: 2
Fore
SplineSet
342.5 1362 m 1,0,1
 351.5 1403 351.5 1403 387.5 1448.5 c 128,-1,2
 423.5 1494 423.5 1494 488.5 1494 c 0,3,4
 513.136 1494 513.136 1494 613.5 1471 c 0,5,6
 688.25 1448 688.25 1448 762.875 1448 c 128,-1,7
 837.5 1448 837.5 1448 886.5 1503 c 1,8,-1
 886.5 1501 l 1,9,10
 843.5 1371 843.5 1371 764.5 1371 c 0,11,12
 693.5 1371 693.5 1371 609.5 1393 c 0,13,14
 486.5 1417 486.5 1417 443.5 1417 c 128,-1,15
 400.5 1417 400.5 1417 342.5 1362 c 1,0,1
551.5 1042 m 1,16,-1
 712.5 1239 l 1,17,-1
 713.5 1241 l 1,18,19
 713.5 1239 713.5 1239 713 1236.5 c 128,-1,20
 712.5 1234 712.5 1234 713.5 1232 c 1,21,-1
 758.5 270 l 2,22,23
 758.5 216.2 758.5 216.2 700.5 135 c 0,24,25
 657.042 63.1271 657.042 63.1271 601.5 10 c 0,26,27
 599.5 8 599.5 8 598 7 c 128,-1,28
 596.5 6 596.5 6 595.5 4 c 1,29,-1
 595.5 15 l 1,30,-1
 599 127 l 2,31,32
 600.5 173 600.5 173 600.5 201 c 2,33,-1
 600.5 220 l 2,34,35
 595.828 404.534 595.828 404.534 578.5 635 c 2,36,-1
 561 889 l 2,37,38
 554.5 987 554.5 987 551.5 1042 c 1,16,-1
EndSplineSet
Substitution2: "'fina' Terminal Forms in Arabic lookup 5 subtable" alefwithmaddaabovefinal
Substitution2: "'isol' Isolated Forms in Arabic lookup 2 subtable" alefwithmaddaaboveisolated
EndChar

StartChar: alefwithhamzaabove
Encoding: 262 1571 6
Width: 1229
Flags: W
HStem: 1617 66<522.836 704.296>
VStem: 540.5 162<926.165 1042> 589.5 158<154.872 577.835>
AnchorPoint: "ArabicBelow" 559.5 -246 basechar 0
AnchorPoint: "ArabicAbove" 559.5 1933 basechar 0
LayerCount: 2
Fore
SplineSet
438.5 1270 m 1,0,1
 462.5 1318 462.5 1318 548.5 1384 c 1,2,-1
 549.5 1403 l 1,3,4
 466.5 1489 466.5 1489 457.5 1531 c 1,5,6
 487.5 1614 487.5 1614 520.5 1648.5 c 128,-1,7
 553.5 1683 553.5 1683 617.125 1683 c 128,-1,8
 680.75 1683 680.75 1683 705.5 1674 c 1,9,-1
 705.5 1597 l 1,10,11
 653.5 1617 653.5 1617 604.5 1617 c 128,-1,12
 555.5 1617 555.5 1617 515.5 1593 c 1,13,-1
 510.5 1576 l 1,14,15
 525.197 1541.09 525.197 1541.09 574.849 1500.05 c 128,-1,16
 624.5 1459 624.5 1459 665.5 1445 c 1,17,-1
 675.5 1445 l 1,18,19
 702.932 1456.76 702.932 1456.76 790.5 1484 c 1,20,21
 779.5 1444 779.5 1444 763.5 1404 c 1,22,23
 629.5 1375 629.5 1375 504.5 1292 c 0,24,25
 462.5 1265 462.5 1265 459.5 1265 c 0,26,27
 439.5 1265 439.5 1265 439.5 1270 c 0,28,29
 439.5 1271 439.5 1271 438.5 1270 c 1,0,1
540.5 1042 m 1,30,-1
 701.5 1239 l 1,31,-1
 702.5 1241 l 1,32,33
 702.5 1239 702.5 1239 702 1236.5 c 128,-1,34
 701.5 1234 701.5 1234 702.5 1232 c 1,35,-1
 747.5 272 l 1,36,-1
 747.5 270 l 2,37,38
 747.5 216.2 747.5 216.2 689.5 135 c 0,39,40
 641.857 59.124 641.857 59.124 590.5 10 c 0,41,42
 588.5 8 588.5 8 587 7 c 128,-1,43
 585.5 6 585.5 6 584.5 4 c 1,44,-1
 584.5 15 l 1,45,-1
 588 127 l 2,46,47
 589.5 173 589.5 173 589.5 201 c 2,48,-1
 589.5 220 l 2,49,50
 584.828 404.534 584.828 404.534 570.164 597.767 c 0,51,52
 544.224 939.584 544.224 939.584 540.5 1042 c 1,30,-1
EndSplineSet
Substitution2: "'fina' Terminal Forms in Arabic lookup 5 subtable" alefwithhamzaabovefinal
Substitution2: "'isol' Isolated Forms in Arabic lookup 2 subtable" alefwithhamzaaboveisolated
EndChar

StartChar: wawwithhamzaabove
Encoding: 263 1572 7
Width: 1229
Flags: W
HStem: -573 221<432.717 675.065> -287 24<162.127 179.397> 438 261<718.454 838.626> 1184 66<591.999 772.2>
AnchorPoint: "ArabicBelow" 579.5 -823 basechar 0
AnchorPoint: "ArabicAbove" 579.5 1500 basechar 0
LayerCount: 2
Fore
SplineSet
157.5 -263 m 1,0,1
 164.5 -263 164.5 -263 187.5 -277 c 0,2,3
 307.5 -352 307.5 -352 465 -352 c 128,-1,4
 622.5 -352 622.5 -352 754.5 -263.5 c 128,-1,5
 886.5 -175 886.5 -175 948.5 -29 c 1,6,-1
 937.5 -10 l 1,7,8
 548.5 16 548.5 16 548.5 216 c 0,9,10
 548.5 327 548.5 327 625.5 508 c 0,11,12
 712.5 699 712.5 699 810.5 699 c 0,13,14
 872.5 699 872.5 699 961.5 574 c 0,15,16
 1071.5 425 1071.5 425 1071.5 245 c 2,17,-1
 1071.5 109 l 2,18,19
 1071.5 -123.58 1071.5 -123.58 930 -348.29 c 128,-1,20
 788.5 -573 788.5 -573 593.5 -573 c 0,21,22
 432.651 -573 432.651 -573 258 -390.5 c 0,23,24
 213.5 -344 213.5 -344 171.5 -287 c 1,25,-1
 170.5 -287 l 1,26,27
 162.643 -275.529 162.643 -275.529 157.5 -263 c 1,0,1
506.5 837 m 1,28,29
 527.641 882.806 527.641 882.806 616.5 951 c 1,30,-1
 617.5 971 l 1,31,32
 534.5 1055 534.5 1055 524.5 1098 c 1,33,34
 555.5 1183 555.5 1183 584.5 1210 c 0,35,36
 621.5 1250 621.5 1250 683 1250 c 128,-1,37
 744.5 1250 744.5 1250 773.5 1242 c 1,38,-1
 773.5 1164 l 1,39,40
 719.5 1184 719.5 1184 671.5 1184 c 128,-1,41
 623.5 1184 623.5 1184 583.5 1160 c 1,42,-1
 577.5 1143 l 1,43,44
 593.5 1110 593.5 1110 641.5 1069.5 c 128,-1,45
 689.5 1029 689.5 1029 733.5 1012 c 1,46,-1
 742.5 1012 l 1,47,48
 756.5 1019 756.5 1019 785 1028 c 2,49,-1
 858.5 1051 l 1,50,51
 850.833 1020.33 850.833 1020.33 831.5 972 c 1,52,53
 697.915 942.96 697.915 942.96 571.5 860 c 0,54,55
 531.5 832 531.5 832 519.5 832 c 128,-1,56
 507.5 832 507.5 832 507.5 837 c 0,57,58
 507.5 838 507.5 838 506.5 837 c 1,28,29
651.5 323 m 1,59,-1
 656.5 307 l 1,60,61
 771.5 232 771.5 232 925.5 232 c 1,62,-1
 937.5 252 l 1,63,64
 914.892 300.984 914.892 300.984 860.196 369.492 c 128,-1,65
 805.5 438 805.5 438 759.5 438 c 0,66,67
 697.5 438 697.5 438 651.5 323 c 1,59,-1
EndSplineSet
Substitution2: "'fina' Terminal Forms in Arabic lookup 5 subtable" wawwithhamzaabovefinal
Substitution2: "'isol' Isolated Forms in Arabic lookup 2 subtable" wawwithhamzaaboveisolated
EndChar

StartChar: alefwithhamzabelow
Encoding: 264 1573 8
Width: 1229
Flags: W
HStem: -196 66<523.969 704.777>
VStem: 500 162<926.165 1042> 547 160<155.047 577.835>
AnchorPoint: "ArabicBelow" 527 -798 basechar 0
AnchorPoint: "ArabicAbove" 527 1485 basechar 0
LayerCount: 2
Fore
SplineSet
439 -542 m 1,0,1
 462 -495 462 -495 549 -429 c 1,2,-1
 550 -409 l 1,3,4
 466 -324 466 -324 457 -282 c 1,5,6
 487 -199 487 -199 521.5 -164.5 c 128,-1,7
 556 -130 556 -130 619 -130 c 128,-1,8
 682 -130 682 -130 706 -139 c 1,9,-1
 706 -216 l 1,10,11
 652 -196 652 -196 604.5 -196 c 128,-1,12
 557 -196 557 -196 515 -220 c 1,13,-1
 510 -237 l 1,14,15
 523.5 -269.062 523.5 -269.062 571.25 -310.031 c 128,-1,16
 619 -351 619 -351 666 -368 c 1,17,-1
 675 -368 l 1,18,19
 710.946 -352.595 710.946 -352.595 790 -328 c 1,20,21
 785 -347 785 -347 778.5 -366.5 c 2,22,-1
 764 -408 l 1,23,24
 630.415 -437.04 630.415 -437.04 504 -520 c 0,25,26
 464 -548 464 -548 452 -548 c 128,-1,27
 440 -548 440 -548 440 -543 c 0,28,29
 440 -541 440 -541 439 -542 c 1,0,1
500 1042 m 1,30,-1
 662 1235 l 1,31,-1
 662 1232 l 1,32,-1
 707 272 l 1,33,-1
 707 270 l 2,34,35
 707 217 707 217 649 135 c 0,36,37
 600.326 57.4786 600.326 57.4786 547 7 c 1,38,-1
 547 118 l 1,39,-1
 548 171 l 1,40,-1
 548 240 l 258,41,42
 548 340.2 548 340.2 526 635 c 2,43,-1
 508.5 889 l 2,44,45
 502 987 502 987 500 1042 c 1,30,-1
EndSplineSet
Substitution2: "'fina' Terminal Forms in Arabic lookup 5 subtable" alefwithhamzabelowfinal
Substitution2: "'isol' Isolated Forms in Arabic lookup 2 subtable" alefwithhamzabelowisolated
EndChar

StartChar: yehwithhamzaabove
Encoding: 265 1574 9
Width: 1229
Flags: W
HStem: -425 234<254.084 631.757> 577 187<955.566 1174.26> 990 65<138.646 319.7>
VStem: 15 65<-102.75 229.087>
AnchorPoint: "ArabicBelow" 537 -675 basechar 0
AnchorPoint: "ArabicAbove" 537 1305 basechar 0
LayerCount: 2
Fore
SplineSet
15 -16.5 m 128,-1,1
 15 156 15 156 70 297 c 1,2,-1
 70 298 l 1,3,4
 126.438 459.438 126.438 459.438 208 541 c 1,5,6
 202.092 514.415 202.092 514.415 185 488 c 1,7,-1
 184 488 l 1,8,9
 80 288 80 288 80 133 c 128,-1,10
 80 -22 80 -22 188.5 -106.5 c 128,-1,11
 297 -191 297 -191 455 -191 c 0,12,13
 741 -191 741 -191 987 -20 c 1,14,-1
 986 3 l 1,15,16
 984 4 984 4 943.5 17.5 c 2,17,-1
 822 57 l 2,18,19
 805 62 805 62 787 68 c 2,20,-1
 749 81 l 2,21,22
 574 139 574 139 574 181 c 0,23,24
 574 347 574 347 760 555.5 c 128,-1,25
 946 764 946 764 1108 764 c 0,26,27
 1214 764 1214 764 1214 692 c 0,28,29
 1214 664 1214 664 1202 628 c 128,-1,30
 1190 592 1190 592 1186.5 578 c 0,31,32
 1179.33 549.333 1179.33 549.333 1166 520 c 1,33,34
 1157.67 528.333 1157.67 528.333 1116.33 552.667 c 128,-1,35
 1075 577 1075 577 1043 577 c 0,36,37
 930 577 930 577 818 483 c 0,38,39
 740 421 740 421 692 340 c 1,40,-1
 695 323 l 1,41,42
 736 291 736 291 940.5 235.5 c 128,-1,43
 1145 180 1145 180 1146 167 c 0,44,45
 1146 118.857 1146 118.857 1130.5 27.4286 c 128,-1,46
 1115 -64 1115 -64 1104 -75 c 0,47,48
 997.419 -183.358 997.419 -183.358 829 -287 c 0,49,50
 598 -425 598 -425 402.5 -425 c 128,-1,51
 207 -425 207 -425 108 -301 c 0,52,0
 15 -189 15 -189 15 -16.5 c 128,-1,1
54 642 m 1,53,54
 77.8805 691.932 77.8805 691.932 164 757 c 1,55,-1
 165 776 l 1,56,57
 81 862 81 862 72 903 c 1,58,59
 104 988 104 988 137 1021.5 c 128,-1,60
 170 1055 170 1055 231 1055 c 128,-1,61
 292 1055 292 1055 321 1047 c 1,62,-1
 321 970 l 1,63,64
 267 990 267 990 219.5 990 c 128,-1,65
 172 990 172 990 130 966 c 1,66,-1
 125 948 l 1,67,68
 145 909 145 909 189.5 872 c 128,-1,69
 234 835 234 835 281 818 c 1,70,-1
 290 818 l 1,71,72
 317.432 829.757 317.432 829.757 405 857 c 1,73,74
 395 817 395 817 379 777 c 1,75,76
 249.685 750.762 249.685 750.762 119 665 c 0,77,78
 78 638 78 638 66 638 c 128,-1,79
 54 638 54 638 54 642 c 1,53,54
EndSplineSet
Substitution2: "'fina' Terminal Forms in Arabic lookup 5 subtable" yehwithhamzaabovefinal
Substitution2: "'medi' Medial Forms in Arabic lookup 4 subtable" yehwithhamzaabovemedial
Substitution2: "'init' Initial Forms in Arabic lookup 3 subtable" yehwithhamzaaboveinitial
Substitution2: "'isol' Isolated Forms in Arabic lookup 2 subtable" yehwithhamzaaboveisolated
EndChar

StartChar: arabicalef
Encoding: 266 1575 10
Width: 1229
Flags: W
VStem: 511 162<926.165 1042> 560 158<154.872 577.835>
AnchorPoint: "ArabicBelow" 537 -254 basechar 0
AnchorPoint: "ArabicAbove" 537 1491 basechar 0
LayerCount: 2
Fore
SplineSet
511 1042 m 1,0,-1
 672 1239 l 1,1,-1
 673 1241 l 1,2,3
 673 1239 673 1239 672.5 1236.5 c 128,-1,4
 672 1234 672 1234 673 1232 c 1,5,-1
 718 272 l 1,6,-1
 718 270 l 2,7,8
 718 216.2 718 216.2 660 135 c 0,9,10
 612.357 59.124 612.357 59.124 561 10 c 0,11,12
 559 8 559 8 557.5 7 c 128,-1,13
 556 6 556 6 555 4 c 1,14,-1
 555 15 l 1,15,-1
 558.5 127 l 2,16,17
 560 173 560 173 560 201 c 2,18,-1
 560 220 l 2,19,20
 555.328 404.534 555.328 404.534 538 635 c 2,21,-1
 520 889 l 2,22,23
 513 987 513 987 511 1042 c 1,0,-1
550.5 -4 m 0,24,25
 545 -4 545 -4 555 4 c 1,26,-1
 555 2 l 2,27,28
 555 -4 555 -4 550.5 -4 c 0,24,25
EndSplineSet
Substitution2: "'fina' Terminal Forms in Arabic lookup 5 subtable" aleffinal
Substitution2: "'isol' Isolated Forms in Arabic lookup 2 subtable" alefisolated
EndChar

StartChar: beh
Encoding: 267 1576 11
Width: 1229
Flags: W
HStem: 2 228<241.204 1078.92>
VStem: 0 110<247.428 501.354>
AnchorPoint: "ArabicBelow" 536 -864 basechar 0
AnchorPoint: "ArabicAbove" 536 944 basechar 0
LayerCount: 2
Fore
SplineSet
0 331 m 0,0,1
 0 444.947 0 444.947 102 606 c 0,2,3
 121 636 121 636 132 648 c 1,4,5
 124 576 124 576 124 604 c 1,6,7
 110 559 110 559 110 496 c 128,-1,8
 110 433 110 433 131.5 382.5 c 128,-1,9
 153 332 153 332 199.5 298 c 0,10,11
 292.5 230 292.5 230 475 230 c 2,12,-1
 575 230 l 1,13,-1
 735 227 l 2,14,15
 921.5 227 921.5 227 1084 253 c 1,16,-1
 1095 269 l 1,17,18
 1063.73 383.67 1063.73 383.67 943 508 c 1,19,-1
 1082 693 l 1,20,-1
 1083 694 l 1,21,22
 1083 694.5 1083 694.5 1083.38 694.5 c 0,23,24
 1084.5 694.5 1084.5 694.5 1088 691 c 0,25,26
 1229 544 1229 544 1229 326 c 0,27,28
 1229 137 1229 137 1215 65 c 0,29,30
 1211.64 49.3242 1211.64 49.3242 1025.82 27.1621 c 0,31,32
 764.539 -4 764.539 -4 617 -4 c 6,33,-1
 403 2 l 2,34,35
 247.844 2 247.844 2 133 77 c 0,36,37
 0 163.857 0 163.857 0 331 c 0,0,1
529 -531 m 1,38,-1
 604 -359 l 1,39,-1
 826 -443 l 1,40,-1
 749 -618 l 1,41,-1
 529 -531 l 1,38,-1
EndSplineSet
Substitution2: "'fina' Terminal Forms in Arabic lookup 5 subtable" behfinal
Substitution2: "'medi' Medial Forms in Arabic lookup 4 subtable" behmedial
Substitution2: "'init' Initial Forms in Arabic lookup 3 subtable" behinitial
Substitution2: "'isol' Isolated Forms in Arabic lookup 2 subtable" behisolated
EndChar

StartChar: tehmarbuta
Encoding: 268 1577 12
Width: 1229
Flags: W
HStem: 0 218<396.997 659.552>
VStem: 260 113<132 351.118>
AnchorPoint: "ArabicBelow" 537 -254 basechar 0
AnchorPoint: "ArabicAbove" 537 1446 basechar 0
LayerCount: 2
Fore
SplineSet
260 170 m 0,0,1
 260 317 260 317 393 498 c 1,2,3
 389 494 389 494 396 503.5 c 2,4,-1
 611 779 l 1,5,6
 667 714 667 714 802 619 c 1,7,-1
 803 619 l 1,8,9
 969 510.383 969 510.383 969 438 c 0,10,11
 969 398 969 398 933.5 311.5 c 128,-1,12
 898 225 898 225 842 168 c 128,-1,13
 786 111 786 111 718.5 73.5 c 0,14,15
 586.2 6.78168e-06 586.2 6.78168e-06 433 0 c 0,16,17
 358 0 358 0 309 47 c 128,-1,18
 260 94 260 94 260 170 c 0,0,1
302 1065 m 1,19,-1
 412 1200 l 1,20,-1
 550 1084 l 1,21,-1
 568 1086 l 1,22,-1
 661 1200 l 1,23,-1
 807 1075 l 1,24,-1
 692 940 l 1,25,-1
 560 1057 l 1,26,-1
 540 1055 l 1,27,-1
 444 940 l 1,28,-1
 302 1065 l 1,19,-1
373 327.5 m 128,-1,30
 373 269 373 269 423.5 243.5 c 128,-1,31
 474 218 474 218 532 218 c 128,-1,32
 590 218 590 218 659.5 235 c 0,33,34
 767.347 261.38 767.347 261.38 808 300 c 1,35,-1
 805 323 l 1,36,37
 782 335 782 335 736 372 c 2,38,-1
 511 559 l 1,39,-1
 492 556 l 1,40,29
 373 386 373 386 373 327.5 c 128,-1,30
EndSplineSet
Substitution2: "'fina' Terminal Forms in Arabic lookup 5 subtable" tehmarbutafinal
Substitution2: "'isol' Isolated Forms in Arabic lookup 2 subtable" tehmarbutaisolated
EndChar

StartChar: teh
Encoding: 269 1578 13
Width: 1229
Flags: W
HStem: 2 228<241.204 1078.92>
VStem: 0 110<247.428 501.354>
AnchorPoint: "ArabicBelow" 627 -252 basechar 0
AnchorPoint: "ArabicAbove" 627 1157 basechar 0
LayerCount: 2
Fore
SplineSet
0 331 m 4,0,1
 0 444.947 0 444.947 102 606 c 4,2,3
 121 636 121 636 132 648 c 5,4,5
 124 576 124 576 124 604 c 5,6,7
 110 559 110 559 110 496 c 132,-1,8
 110 433 110 433 131.5 382.5 c 132,-1,9
 153 332 153 332 199.5 298 c 4,10,11
 292.5 230 292.5 230 475 230 c 6,12,-1
 575 230 l 5,13,-1
 735 227 l 6,14,15
 921.5 227 921.5 227 1084 253 c 5,16,-1
 1095 269 l 5,17,18
 1063.73 383.67 1063.73 383.67 943 508 c 5,19,-1
 1082 693 l 5,20,-1
 1083 694 l 5,21,22
 1083 696 1083 696 1088 691 c 4,23,24
 1229 544 1229 544 1229 326 c 4,25,26
 1229 137 1229 137 1215 65 c 4,27,28
 1211.64 49.3242 1211.64 49.3242 1025.82 27.1621 c 4,29,30
 764.539 -4 764.539 -4 617 -4 c 6,31,-1
 403 2 l 6,32,33
 247.844 2 247.844 2 133 77 c 4,34,35
 0 163.857 0 163.857 0 331 c 4,0,1
297 762 m 5,36,-1
 386 895 l 5,37,-1
 584 772 l 5,38,-1
 491 639 l 5,39,-1
 297 762 l 5,36,-1
620 774 m 5,40,-1
 710 907 l 5,41,-1
 908 784 l 5,42,-1
 815 651 l 5,43,-1
 620 774 l 5,40,-1
EndSplineSet
Substitution2: "'fina' Terminal Forms in Arabic lookup 5 subtable" tehfinal
Substitution2: "'medi' Medial Forms in Arabic lookup 4 subtable" tehmedial
Substitution2: "'init' Initial Forms in Arabic lookup 3 subtable" tehinitial
Substitution2: "'isol' Isolated Forms in Arabic lookup 2 subtable" tehisolated
EndChar

StartChar: theh
Encoding: 270 1579 14
Width: 1229
Flags: W
HStem: 2 228<241.204 1078.92>
VStem: 0 110<247.428 501.354>
AnchorPoint: "ArabicBelow" 762 -248 basechar 0
AnchorPoint: "ArabicAbove" 762 1318 basechar 0
LayerCount: 2
Fore
SplineSet
0 331 m 0,0,1
 0 444.947 0 444.947 102 606 c 0,2,3
 121 636 121 636 132 648 c 1,4,5
 124 576 124 576 124 604 c 1,6,7
 110 559 110 559 110 496 c 128,-1,8
 110 433 110 433 131.5 382.5 c 128,-1,9
 153 332 153 332 199.5 298 c 0,10,11
 292.5 230 292.5 230 475 230 c 2,12,-1
 575 230 l 1,13,-1
 735 227 l 2,14,15
 921.5 227 921.5 227 1084 253 c 1,16,-1
 1095 269 l 1,17,18
 1063.73 383.67 1063.73 383.67 943 508 c 1,19,-1
 1082 693 l 1,20,-1
 1083 694 l 1,21,22
 1083 696 1083 696 1088 691 c 0,23,24
 1229 544 1229 544 1229 326 c 0,25,26
 1229 137 1229 137 1215 65 c 0,27,28
 1211.64 49.3242 1211.64 49.3242 1025.82 27.1621 c 0,29,30
 764.539 -4 764.539 -4 617 -4 c 2,31,-1
 403 2 l 2,32,33
 247.844 2 247.844 2 133 77 c 0,34,35
 0 163.857 0 163.857 0 331 c 0,0,1
351 692 m 1,36,-1
 438 822 l 1,37,-1
 621 718 l 1,38,-1
 639 722 l 1,39,-1
 707 831 l 1,40,-1
 889 728 l 1,41,-1
 806 596 l 1,42,-1
 638 693 l 1,43,-1
 619 688 l 1,44,-1
 550 584 l 1,45,-1
 351 692 l 1,36,-1
415 941 m 1,46,-1
 497 1068 l 1,47,-1
 669 970 l 1,48,-1
 590 837 l 1,49,-1
 415 941 l 1,46,-1
EndSplineSet
Substitution2: "'fina' Terminal Forms in Arabic lookup 5 subtable" thehfinal
Substitution2: "'medi' Medial Forms in Arabic lookup 4 subtable" thehmedial
Substitution2: "'init' Initial Forms in Arabic lookup 3 subtable" thehinitial
Substitution2: "'isol' Isolated Forms in Arabic lookup 2 subtable" thehisolated
EndChar

StartChar: jeem
Encoding: 271 1580 15
Width: 1229
Flags: W
HStem: -734 235<429.028 819.23> 401 225<569 949.5> 440 239<219.062 392.5>
VStem: 132.5 93<-313.357 55.4981>
AnchorPoint: "ArabicBelow" 482.5 -984 basechar 0
AnchorPoint: "ArabicAbove" 482.5 929 basechar 0
LayerCount: 2
Fore
SplineSet
55.5 352 m 1,0,-1
 55.5 360 l 2,1,2
 55.5 366 55.5 366 63.5 396 c 0,3,4
 162.5 679 162.5 679 355.5 679 c 0,5,6
 435.5 679 435.5 679 611.5 653 c 256,7,8
 794.269 626 794.269 626 873.5 626 c 2,9,-1
 1061.5 626 l 1,10,11
 1060.5 626 1060.5 626 1060.5 625 c 1,12,-1
 1059.5 624 l 1,13,-1
 949.5 401 l 1,14,15
 829.871 396.15 829.871 396.15 630.5 379 c 2,16,-1
 627.5 379 l 1,17,18
 493.5 340 493.5 340 359.5 196.5 c 128,-1,19
 225.5 53 225.5 53 225.5 -106 c 0,20,21
 225.5 -499 225.5 -499 682.5 -499 c 0,22,23
 851.5 -499 851.5 -499 1123.5 -424 c 2,24,-1
 1152.5 -418 l 2,25,26
 1162.5 -416 1162.5 -416 1167.5 -416 c 128,-1,27
 1172.5 -416 1172.5 -416 1173.5 -415 c 1,28,29
 1172.5 -420 1172.5 -420 1164 -429 c 2,30,-1
 1141.5 -452 l 1,31,-1
 996.5 -576.5 l 2,32,33
 939.5 -623 939.5 -623 910.5 -643 c 0,34,35
 765.5 -734 765.5 -734 584 -734 c 128,-1,36
 402.5 -734 402.5 -734 277.5 -609 c 0,37,38
 132.5 -464 132.5 -464 132.5 -206 c 0,39,40
 132.5 126 132.5 126 403.5 418 c 1,41,-1
 392.5 440 l 1,42,-1
 382.5 440 l 2,43,44
 342.5 442 342.5 442 313 442 c 0,45,46
 208.757 442 208.757 442 160.129 419 c 128,-1,47
 111.5 396 111.5 396 87.5 374 c 128,-1,48
 63.5 352 63.5 352 55.5 352 c 1,0,-1
509.5 -175 m 1,49,-1
 583.5 -4 l 1,50,-1
 805.5 -88 l 1,51,-1
 729.5 -263 l 1,52,-1
 509.5 -175 l 1,49,-1
1061.5 626 m 1,53,54
 1061.5 627 1061.5 627 1062 627.5 c 128,-1,55
 1062.5 628 1062.5 628 1062.5 630 c 1,56,57
 1063.5 628 1063.5 628 1061.5 626 c 1,53,54
EndSplineSet
Substitution2: "'fina' Terminal Forms in Arabic lookup 5 subtable" jeemfinal
Substitution2: "'medi' Medial Forms in Arabic lookup 4 subtable" jeemmedial
Substitution2: "'init' Initial Forms in Arabic lookup 3 subtable" jeeminitial
Substitution2: "'isol' Isolated Forms in Arabic lookup 2 subtable" jeemisolated
EndChar

StartChar: hah
Encoding: 272 1581 16
Width: 1229
Flags: W
HStem: -734 235<429.028 819.23> 401 225<569 949.5> 440 239<219.062 392.5>
VStem: 132.5 93<-313.357 55.4981>
AnchorPoint: "ArabicBelow" 482.5 -984 basechar 0
AnchorPoint: "ArabicAbove" 482.5 929 basechar 0
LayerCount: 2
Fore
SplineSet
55.5 352 m 1,0,-1
 55.5 360 l 2,1,2
 55.5 366 55.5 366 63.5 396 c 0,3,4
 162.5 679 162.5 679 355.5 679 c 0,5,6
 435.5 679 435.5 679 611.5 653 c 256,7,8
 794.269 626 794.269 626 873.5 626 c 2,9,-1
 1060.5 626 l 1,10,-1
 949.5 401 l 1,11,12
 829.871 396.15 829.871 396.15 630.5 379 c 2,13,-1
 627.5 379 l 1,14,15
 493.5 340 493.5 340 359.5 196.5 c 128,-1,16
 225.5 53 225.5 53 225.5 -106 c 0,17,18
 225.5 -499 225.5 -499 682.5 -499 c 0,19,20
 851.5 -499 851.5 -499 1123.5 -424 c 2,21,-1
 1152.5 -418 l 2,22,23
 1162.5 -416 1162.5 -416 1167.5 -416 c 128,-1,24
 1172.5 -416 1172.5 -416 1173.5 -415 c 1,25,26
 1172.5 -420 1172.5 -420 1164 -429 c 2,27,-1
 1141.5 -452 l 1,28,-1
 996.5 -576.5 l 2,29,30
 939.5 -623 939.5 -623 910.5 -643 c 0,31,32
 765.5 -734 765.5 -734 584 -734 c 128,-1,33
 402.5 -734 402.5 -734 277.5 -609 c 0,34,35
 132.5 -464 132.5 -464 132.5 -206 c 0,36,37
 132.5 126 132.5 126 403.5 418 c 1,38,-1
 392.5 440 l 1,39,-1
 382.5 440 l 2,40,41
 342.5 442 342.5 442 313 442 c 0,42,43
 208.757 442 208.757 442 160.129 419 c 128,-1,44
 111.5 396 111.5 396 87.5 374 c 128,-1,45
 63.5 352 63.5 352 55.5 352 c 1,0,-1
EndSplineSet
Substitution2: "'fina' Terminal Forms in Arabic lookup 5 subtable" hahfinal
Substitution2: "'medi' Medial Forms in Arabic lookup 4 subtable" hahmedial
Substitution2: "'init' Initial Forms in Arabic lookup 3 subtable" hahinitial
Substitution2: "'isol' Isolated Forms in Arabic lookup 2 subtable" hahisolated
EndChar

StartChar: khah
Encoding: 273 1582 17
Width: 1229
Flags: W
HStem: -734 235<429.028 819.23> 401 225<569 949.5> 440 239<219.062 392.5>
VStem: 132.5 93<-313.357 55.4981>
AnchorPoint: "ArabicBelow" 482.5 -984 basechar 0
AnchorPoint: "ArabicAbove" 482.5 1392 basechar 0
LayerCount: 2
Fore
SplineSet
55.5 352 m 1,0,-1
 55.5 360 l 2,1,2
 55.5 366 55.5 366 63.5 396 c 0,3,4
 162.5 679 162.5 679 355.5 679 c 0,5,6
 435.5 679 435.5 679 611.5 653 c 256,7,8
 794.269 626 794.269 626 873.5 626 c 2,9,-1
 1060.5 626 l 1,10,-1
 949.5 401 l 1,11,12
 829.871 396.15 829.871 396.15 630.5 379 c 2,13,-1
 627.5 379 l 1,14,15
 493.5 340 493.5 340 359.5 196.5 c 128,-1,16
 225.5 53 225.5 53 225.5 -106 c 0,17,18
 225.5 -499 225.5 -499 682.5 -499 c 0,19,20
 851.5 -499 851.5 -499 1123.5 -424 c 2,21,-1
 1152.5 -418 l 2,22,23
 1162.5 -416 1162.5 -416 1167.5 -416 c 128,-1,24
 1172.5 -416 1172.5 -416 1173.5 -415 c 1,25,26
 1172.5 -420 1172.5 -420 1164 -429 c 2,27,-1
 1141.5 -452 l 1,28,-1
 996.5 -576.5 l 2,29,30
 939.5 -623 939.5 -623 910.5 -643 c 0,31,32
 765.5 -734 765.5 -734 584 -734 c 128,-1,33
 402.5 -734 402.5 -734 277.5 -609 c 0,34,35
 132.5 -464 132.5 -464 132.5 -206 c 0,36,37
 132.5 126 132.5 126 403.5 418 c 1,38,-1
 392.5 440 l 1,39,-1
 382.5 440 l 2,40,41
 342.5 442 342.5 442 313 442 c 0,42,43
 208.757 442 208.757 442 160.129 419 c 128,-1,44
 111.5 396 111.5 396 87.5 374 c 128,-1,45
 63.5 352 63.5 352 55.5 352 c 1,0,-1
437.5 971 m 1,46,-1
 512.5 1142 l 1,47,-1
 734.5 1058 l 1,48,-1
 657.5 883 l 1,49,-1
 437.5 971 l 1,46,-1
EndSplineSet
Substitution2: "'fina' Terminal Forms in Arabic lookup 5 subtable" khahfinal
Substitution2: "'medi' Medial Forms in Arabic lookup 4 subtable" khahmedial
Substitution2: "'init' Initial Forms in Arabic lookup 3 subtable" khahinitial
Substitution2: "'isol' Isolated Forms in Arabic lookup 2 subtable" khahisolated
EndChar

StartChar: dal
Encoding: 274 1583 18
Width: 1229
Flags: W
HStem: -1 227<403.929 809.45>
VStem: 290.5 74<270.273 349.962>
AnchorPoint: "ArabicBelow" 596.5 -251 basechar 0
AnchorPoint: "ArabicAbove" 596.5 1082 basechar 0
LayerCount: 2
Fore
SplineSet
290.5 164 m 0,0,1
 290.5 232.148 290.5 232.148 324 340.074 c 128,-1,2
 357.5 448 357.5 448 367.5 451 c 1,3,-1
 367.5 446 l 2,4,5
 367.5 438 367.5 438 364.5 425 c 1,6,-1
 364.5 424 l 2,7,8
 359.5 386.5 359.5 386.5 359.5 373 c 0,9,10
 359.5 253 359.5 253 490.5 235 c 0,11,12
 555.75 226 555.75 226 666.625 226 c 128,-1,13
 777.5 226 777.5 226 810.5 244 c 1,14,-1
 816.5 257 l 1,15,16
 801.5 475 801.5 475 705.5 652 c 1,17,-1
 839.5 828 l 1,18,-1
 840.5 829 l 1,19,20
 840.5 830.75 840.5 830.75 841.5 830.75 c 1,21,-1
 842 830.5 l 1,22,23
 842.5 830 842.5 830 859 800.5 c 0,24,25
 919.901 691.616 919.901 691.616 936 411.5 c 0,26,27
 938.5 368 938.5 368 938.5 337 c 0,28,29
 938.5 278 938.5 278 933.5 243 c 2,30,-1
 904.5 42 l 1,31,-1
 904.5 41 l 2,32,33
 903.065 13.7316 903.065 13.7316 808.5 8 c 0,34,35
 775.5 6 775.5 6 724.5 4 c 2,36,-1
 624.5 0.5 l 2,37,38
 579.5 -1 579.5 -1 542.5 -1 c 0,39,40
 476 -1 476 -1 433.5 4 c 0,41,42
 290.5 24 290.5 24 290.5 164 c 0,0,1
841.5 831 m 1,43,44
 841.5 832 841.5 832 842.5 832 c 1,45,-1
 841.5 831 l 1,43,44
EndSplineSet
Substitution2: "'fina' Terminal Forms in Arabic lookup 5 subtable" dalfinal
Substitution2: "'isol' Isolated Forms in Arabic lookup 2 subtable" dalisolated
EndChar

StartChar: thal
Encoding: 275 1584 19
Width: 1229
Flags: W
HStem: -2 227<403.929 809.45>
VStem: 290.5 75<269.273 347.84>
AnchorPoint: "ArabicBelow" 636.5 -252 basechar 0
AnchorPoint: "ArabicAbove" 636.5 1392 basechar 0
LayerCount: 2
Fore
SplineSet
290.5 163 m 0,0,1
 290.5 226.615 290.5 226.615 316.5 313.308 c 0,2,3
 355.995 444.998 355.995 444.998 368.5 450 c 1,4,-1
 368.5 445 l 2,5,6
 368.5 437 368.5 437 365.5 424 c 1,7,-1
 365.5 423 l 2,8,9
 360.5 385.5 360.5 385.5 360.5 372 c 0,10,11
 360.5 252 360.5 252 490.5 234 c 0,12,13
 558 225 558 225 667.75 225 c 128,-1,14
 777.5 225 777.5 225 810.5 243 c 1,15,-1
 816.5 256 l 1,16,17
 803.004 466.148 803.004 466.148 705.5 651 c 1,18,-1
 839.5 827 l 1,19,-1
 840.5 828 l 1,20,21
 840.5 829.75 840.5 829.75 841.5 829.75 c 1,22,23
 936.674 643.295 936.674 643.295 938.5 330 c 0,24,25
 938.5 277 938.5 277 933.5 242 c 2,26,-1
 905.5 41 l 1,27,-1
 905.5 40 l 1,28,29
 901.158 12.502 901.158 12.502 809 7 c 0,30,31
 775.5 5 775.5 5 724.5 3 c 2,32,-1
 624.5 -0.5 l 2,33,34
 579.5 -2 579.5 -2 542.5 -2 c 0,35,36
 476 -2 476 -2 433.5 3 c 0,37,38
 290.5 23 290.5 23 290.5 163 c 0,0,1
570.5 979 m 1,39,-1
 638.5 1142 l 1,40,-1
 831.5 1070 l 1,41,-1
 761.5 903 l 1,42,-1
 570.5 979 l 1,39,-1
841.5 830 m 1,43,44
 841.5 831 841.5 831 842.5 831 c 1,45,-1
 841.5 830 l 1,43,44
EndSplineSet
Substitution2: "'fina' Terminal Forms in Arabic lookup 5 subtable" thalfinal
Substitution2: "'isol' Isolated Forms in Arabic lookup 2 subtable" thalisolated
EndChar

StartChar: reh
Encoding: 276 1585 20
Width: 1229
Flags: W
HStem: -604 238<448.461 690.107> -255 1<204 205.312>
VStem: 927 99<-122.977 82.6748>
AnchorPoint: "ArabicBelow" 619 -854 basechar 0
AnchorPoint: "ArabicAbove" 619 715 basechar 0
LayerCount: 2
Fore
SplineSet
203 -255 m 1,0,-1
 204 -254 l 1,1,2
 205 -254 205 -254 206 -253 c 1,3,-1
 206 -256 l 1,4,5
 205 -255 205 -255 203 -255 c 1,0,-1
206 -256 m 1,6,7
 219.333 -261.333 219.333 -261.333 261.167 -290.167 c 128,-1,8
 303 -319 303 -319 371.5 -342.5 c 128,-1,9
 440 -366 440 -366 515 -366 c 0,10,11
 659 -366 659 -366 771.5 -264 c 128,-1,12
 884 -162 884 -162 927 -15 c 1,13,-1
 927 -7 l 1,14,15
 882.113 115.95 882.113 115.95 741 249 c 1,16,-1
 839 465 l 1,17,18
 1026 341 1026 341 1026 78 c 0,19,20
 1026 -172.583 1026 -172.583 911 -370 c 0,21,22
 779 -604 779 -604 575 -604 c 0,23,24
 484 -604 484 -604 369 -495 c 0,25,26
 264.156 -396.324 264.156 -396.324 221 -295 c 1,27,-1
 221 -294 l 1,28,29
 208 -267 208 -267 206 -256 c 1,6,7
EndSplineSet
Substitution2: "'fina' Terminal Forms in Arabic lookup 5 subtable" rehfinal
Substitution2: "'isol' Isolated Forms in Arabic lookup 2 subtable" rehisolated
EndChar

StartChar: zain
Encoding: 277 1586 21
Width: 1229
Flags: W
HStem: -604 238<446.228 689.999> -255 1<204 205.312>
VStem: 927 99<-116.605 79.1953>
AnchorPoint: "ArabicBelow" 582 -854 basechar 0
AnchorPoint: "ArabicAbove" 582 1280 basechar 0
LayerCount: 2
Fore
SplineSet
203 -255 m 1,0,-1
 204 -254 l 1,1,2
 205 -254 205 -254 206 -253 c 1,3,-1
 206 -256 l 1,4,5
 205 -255 205 -255 203 -255 c 1,0,-1
206 -256 m 1,6,7
 215 -259 215 -259 258.5 -289 c 128,-1,8
 302 -319 302 -319 371.5 -342.5 c 128,-1,9
 441 -366 441 -366 514 -366 c 0,10,11
 661 -366 661 -366 771.5 -264.5 c 128,-1,12
 882 -163 882 -163 927 -15 c 1,13,-1
 927 -7 l 1,14,15
 880 117 880 117 740 249 c 1,16,-1
 838 465 l 1,17,18
 1026 339 1026 339 1026 87.5 c 128,-1,19
 1026 -164 1026 -164 910 -370 c 0,20,21
 778 -604 778 -604 574 -604 c 0,22,23
 481 -604 481 -604 374.5 -502 c 128,-1,24
 268 -400 268 -400 220 -295 c 1,25,-1
 220 -294 l 1,26,27
 207.455 -264.727 207.455 -264.727 206 -256 c 1,6,7
554 859 m 1,28,-1
 628 1030 l 1,29,-1
 850 946 l 1,30,-1
 774 771 l 1,31,-1
 554 859 l 1,28,-1
EndSplineSet
Substitution2: "'fina' Terminal Forms in Arabic lookup 5 subtable" zainfinal
Substitution2: "'isol' Isolated Forms in Arabic lookup 2 subtable" zainisolated
EndChar

StartChar: seen
Encoding: 278 1587 22
Width: 1229
Flags: W
HStem: -507 231<138.499 437.317> 0 218<953.968 1133.52>
VStem: 9 38<-121.869 128.992> 846 94<282.655 489.869> 1135 83<245.908 255 255 455.905>
AnchorPoint: "ArabicBelow" 718.5 -757 basechar 0
AnchorPoint: "ArabicAbove" 534.5 868 basechar 0
LayerCount: 2
Fore
SplineSet
9 -72 m 4,0,1
 9 149 9 149 92 334 c 6,2,-1
 107.5 366 l 6,3,4
 114 379 114 379 118 385 c 5,5,6
 117 376 117 376 113 362 c 6,7,-1
 104 329 l 5,8,-1
 104 328 l 5,9,10
 47 138 47 138 47 15 c 4,11,12
 47 -276 47 -276 288 -276 c 4,13,14
 362 -276 362 -276 446 -243.5 c 132,-1,15
 530 -211 530 -211 576 -146 c 5,16,-1
 578 -137 l 5,17,18
 578 86 578 86 481 336 c 5,19,-1
 573 527.5 l 6,20,21
 576 534 576 534 576 535 c 4,22,23
 576 540 576 540 579 528 c 6,24,25
 624.169 427.551 624.169 427.551 649 248 c 5,26,-1
 658 238 l 5,27,28
 733.13 240.348 733.13 240.348 823 259 c 5,29,-1
 829 265 l 5,30,31
 846 302 846 302 846 345 c 132,-1,32
 846 388 846 388 840 417 c 5,33,-1
 936 576 l 5,34,35
 940 561 940 561 940 479 c 132,-1,36
 940 397 940 397 908 296 c 5,37,-1
 910 280 l 5,38,39
 965 218 965 218 1058 218 c 4,40,41
 1114 218 1114 218 1133 243 c 5,42,-1
 1135 255 l 5,43,44
 1132 360 1132 360 1096 459 c 5,45,-1
 1187 618 l 5,46,47
 1218 539 1218 539 1218 283 c 6,48,-1
 1218 247 l 6,49,50
 1218 243 1218 243 1220 246 c 5,51,-1
 1217 238 l 5,52,-1
 1210 46 l 6,53,54
 1209 0 1209 0 1121.5 0 c 132,-1,55
 1034 0 1034 0 968 31 c 5,56,-1
 967 32 l 5,57,58
 898 60 898 60 861 92 c 5,59,-1
 850 90 l 5,60,61
 824.299 45.9403 824.299 45.9403 787 24 c 5,62,-1
 786 24 l 5,63,64
 749 3 749 3 662 3 c 5,65,-1
 653 -7 l 5,66,67
 630.316 -177.133 630.316 -177.133 563.5 -331.5 c 4,68,69
 549 -365 549 -365 536 -382 c 4,70,71
 494 -439 494 -439 415 -473 c 132,-1,72
 336 -507 336 -507 275 -507 c 4,73,74
 9 -507 9 -507 9 -72 c 4,0,1
EndSplineSet
Substitution2: "'fina' Terminal Forms in Arabic lookup 5 subtable" seenfinal
Substitution2: "'medi' Medial Forms in Arabic lookup 4 subtable" seenmedial
Substitution2: "'init' Initial Forms in Arabic lookup 3 subtable" seeninitial
Substitution2: "'isol' Isolated Forms in Arabic lookup 2 subtable" seenisolated
EndChar

StartChar: sheen
Encoding: 279 1588 23
Width: 1229
Flags: W
HStem: -507 231<138.499 437.317> 0 218<953.968 1133.52>
VStem: 9 38<-121.869 128.992> 846 94<282.655 489.869> 1135 83<245.908 255 255 455.905>
AnchorPoint: "ArabicBelow" 534.5 -759 basechar 0
AnchorPoint: "ArabicAbove" 718.5 1494 basechar 0
LayerCount: 2
Fore
SplineSet
9 -72 m 4,0,1
 9 149 9 149 92 334 c 6,2,-1
 107.5 366 l 6,3,4
 114 379 114 379 118 385 c 5,5,6
 117 376 117 376 113 362 c 6,7,-1
 104 329 l 5,8,-1
 104 328 l 5,9,10
 47 138 47 138 47 15 c 4,11,12
 47 -276 47 -276 288 -276 c 4,13,14
 362 -276 362 -276 446 -243.5 c 132,-1,15
 530 -211 530 -211 576 -146 c 5,16,-1
 578 -137 l 5,17,18
 578 86 578 86 481 336 c 5,19,-1
 573 527.5 l 6,20,21
 576 534 576 534 576 535 c 4,22,23
 576 540 576 540 579 528 c 6,24,25
 624.169 427.551 624.169 427.551 649 248 c 5,26,-1
 658 238 l 5,27,28
 733.13 240.348 733.13 240.348 823 259 c 5,29,-1
 829 265 l 5,30,31
 846 302 846 302 846 345 c 132,-1,32
 846 388 846 388 840 417 c 5,33,-1
 936 576 l 5,34,35
 940 561 940 561 940 479 c 132,-1,36
 940 397 940 397 908 296 c 5,37,-1
 910 280 l 5,38,39
 965 218 965 218 1058 218 c 4,40,41
 1114 218 1114 218 1133 243 c 5,42,-1
 1135 255 l 5,43,44
 1132 360 1132 360 1096 459 c 5,45,-1
 1187 618 l 5,46,47
 1218 539 1218 539 1218 283 c 6,48,-1
 1218 247 l 6,49,50
 1218 243 1218 243 1220 246 c 5,51,-1
 1217 238 l 5,52,-1
 1210 46 l 6,53,54
 1209 0 1209 0 1121.5 0 c 132,-1,55
 1034 0 1034 0 968 31 c 5,56,-1
 967 32 l 5,57,58
 898 60 898 60 861 92 c 5,59,-1
 850 90 l 5,60,61
 824.299 45.9403 824.299 45.9403 787 24 c 5,62,-1
 786 24 l 5,63,64
 749 3 749 3 662 3 c 5,65,-1
 653 -7 l 5,66,67
 630.316 -177.133 630.316 -177.133 563.5 -331.5 c 4,68,69
 549 -365 549 -365 536 -382 c 4,70,71
 494 -439 494 -439 415 -473 c 132,-1,72
 336 -507 336 -507 275 -507 c 4,73,74
 9 -507 9 -507 9 -72 c 4,0,1
576.5 870 m 5,75,-1
 663.5 1000 l 5,76,-1
 846.5 896 l 5,77,-1
 863.5 900 l 5,78,-1
 931.5 1009 l 5,79,-1
 1114.5 906 l 5,80,-1
 1030.5 774 l 5,81,-1
 862.5 871 l 5,82,-1
 844.5 867 l 5,83,-1
 775.5 762 l 5,84,-1
 576.5 870 l 5,75,-1
639.5 1119 m 5,85,-1
 722.5 1247 l 5,86,-1
 894.5 1148 l 5,87,-1
 814.5 1015 l 5,88,-1
 639.5 1119 l 5,85,-1
EndSplineSet
Substitution2: "'fina' Terminal Forms in Arabic lookup 5 subtable" sheenfinal
Substitution2: "'medi' Medial Forms in Arabic lookup 4 subtable" sheenmedial
Substitution2: "'init' Initial Forms in Arabic lookup 3 subtable" sheeninitial
Substitution2: "'isol' Isolated Forms in Arabic lookup 2 subtable" sheenisolated
EndChar

StartChar: sad
Encoding: 280 1589 24
Width: 1229
Flags: W
HStem: -509 231<119.242 373.984> -11 253<744 852.391 852.391 1142.68> -11 237<748.609 1142.68> 475 231<918.618 1069.77>
VStem: 9 33<-127.172 127.235> 1159 61<256.17 372.37>
AnchorPoint: "ArabicBelow" 524 -759 basechar 0
AnchorPoint: "ArabicAbove" 524 956 basechar 0
LayerCount: 2
Fore
SplineSet
9 -74 m 0,0,1
 9 147 9 147 80 332 c 0,2,3
 96 374 96 374 103 385 c 1,4,5
 103.4 389 103.4 389 91 327 c 1,6,-1
 91 326 l 1,7,8
 42 137 42 137 42 13 c 0,9,10
 42 -278 42 -278 246 -278 c 0,11,12
 309 -278 309 -278 380 -245.5 c 128,-1,13
 451 -213 451 -213 490 -148 c 1,14,-1
 492 -139 l 1,15,16
 492 84 492 84 409 334 c 1,17,-1
 491 530 l 1,18,19
 527 451 527 451 554 246 c 1,20,-1
 562 236 l 1,21,22
 648.494 236.689 648.494 236.689 724 365 c 0,23,24
 738 393 738 393 772 441 c 2,25,-1
 817 510.5 l 2,26,27
 842 548 842 548 863 587 c 0,28,29
 938 706 938 706 993.5 706 c 128,-1,30
 1049 706 1049 706 1122.5 615.5 c 128,-1,31
 1196 525 1196 525 1211 463 c 0,32,33
 1220 427 1220 427 1220 352 c 0,34,35
 1220 97 1220 97 1153 41 c 0,36,37
 1104.01 -1.59946 1104.01 -1.59946 926 -10.5 c 0,38,39
 916 -11 916 -11 904 -11 c 2,40,-1
 856 -11 l 2,41,42
 741 -11 741 -11 564 1 c 1,43,-1
 556 -9 l 1,44,45
 536.564 -175.591 536.564 -175.591 480 -333.5 c 0,46,47
 446.203 -427.851 446.203 -427.851 352 -477 c 0,48,49
 287 -509 287 -509 235 -509 c 0,50,51
 9 -509 9 -509 9 -74 c 0,0,1
740 266 m 1,52,-1
 744 242 l 1,53,54
 892 226 892 226 975 226 c 2,55,-1
 1003 226 l 2,56,57
 1044.2 228.575 1044.2 228.575 1085 240 c 0,58,59
 1159 259 1159 259 1159 294 c 0,60,61
 1159 344 1159 344 1112 392 c 0,62,63
 1030.73 475 1030.73 475 962.865 475 c 128,-1,64
 895 475 895 475 844 406 c 2,65,-1
 740 266 l 1,52,-1
EndSplineSet
Substitution2: "'fina' Terminal Forms in Arabic lookup 5 subtable" sadfinal
Substitution2: "'medi' Medial Forms in Arabic lookup 4 subtable" sadmedial
Substitution2: "'init' Initial Forms in Arabic lookup 3 subtable" sadinitial
Substitution2: "'isol' Isolated Forms in Arabic lookup 2 subtable" sadisolated
EndChar

StartChar: dad
Encoding: 281 1590 25
Width: 1229
Flags: W
HStem: -509 231<119.242 373.984> -11 253<744 852.391 852.391 1142.68> -11 237<748.609 1142.68> 475 231<918.618 1069.77>
VStem: 9 33<-127.172 127.235> 1159 61<256.17 372.37>
AnchorPoint: "ArabicBelow" 524 -759 basechar 0
AnchorPoint: "ArabicAbove" 524 1422 basechar 0
LayerCount: 2
Fore
SplineSet
9 -74 m 0,0,1
 9 147 9 147 80 332 c 0,2,3
 96 374 96 374 103 385 c 1,4,5
 103.4 389 103.4 389 91 327 c 1,6,-1
 91 326 l 1,7,8
 42 137 42 137 42 13 c 0,9,10
 42 -278 42 -278 246 -278 c 0,11,12
 309 -278 309 -278 380 -245.5 c 128,-1,13
 451 -213 451 -213 490 -148 c 1,14,-1
 492 -139 l 1,15,16
 492 84 492 84 409 334 c 1,17,-1
 491 530 l 1,18,19
 527 451 527 451 554 246 c 1,20,-1
 562 236 l 1,21,22
 648.494 236.689 648.494 236.689 724 365 c 0,23,24
 738 393 738 393 772 441 c 2,25,-1
 817 510.5 l 2,26,27
 842 548 842 548 863 587 c 0,28,29
 938 706 938 706 993.5 706 c 128,-1,30
 1049 706 1049 706 1122.5 615.5 c 128,-1,31
 1196 525 1196 525 1211 463 c 0,32,33
 1220 427 1220 427 1220 352 c 0,34,35
 1220 97 1220 97 1153 41 c 0,36,37
 1104.01 -1.59946 1104.01 -1.59946 926 -10.5 c 0,38,39
 916 -11 916 -11 904 -11 c 2,40,-1
 856 -11 l 2,41,42
 741 -11 741 -11 564 1 c 1,43,-1
 556 -9 l 1,44,45
 536.564 -175.591 536.564 -175.591 480 -333.5 c 0,46,47
 446.203 -427.851 446.203 -427.851 352 -477 c 0,48,49
 287 -509 287 -509 235 -509 c 0,50,51
 9 -509 9 -509 9 -74 c 0,0,1
740 266 m 1,52,-1
 744 242 l 1,53,54
 892 226 892 226 975 226 c 2,55,-1
 1003 226 l 2,56,57
 1044.2 228.575 1044.2 228.575 1085 240 c 0,58,59
 1159 259 1159 259 1159 294 c 0,60,61
 1159 344 1159 344 1112 392 c 0,62,63
 1030.73 475 1030.73 475 962.865 475 c 128,-1,64
 895 475 895 475 844 406 c 2,65,-1
 740 266 l 1,52,-1
801 1001 m 5,66,-1
 876 1172 l 5,67,-1
 1098 1089 l 5,68,-1
 1021 914 l 5,69,-1
 801 1001 l 5,66,-1
EndSplineSet
Substitution2: "'fina' Terminal Forms in Arabic lookup 5 subtable" dadfinal
Substitution2: "'medi' Medial Forms in Arabic lookup 4 subtable" dadmedial
Substitution2: "'init' Initial Forms in Arabic lookup 3 subtable" dadinitial
Substitution2: "'isol' Isolated Forms in Arabic lookup 2 subtable" dadisolated
EndChar

StartChar: tah
Encoding: 282 1591 26
Width: 1229
Flags: W
HStem: -1 240<131.096 334.793 477 1134> 463 210<825.517 1021.47>
VStem: 367 133<348.526 914.438> 1146 83<253 362.025>
AnchorPoint: "ArabicBelow" 604 -251 basechar 0
AnchorPoint: "ArabicAbove" 604 1486 basechar 0
LayerCount: 2
Fore
SplineSet
8 237 m 1,0,-1
 63 237 l 2,1,2
 327 237 327 237 347 302 c 0,3,4
 367 361 367 361 367 488 c 0,5,6
 367 759.29 367 759.29 304 1056 c 1,7,-1
 426 1236 l 1,8,9
 456 1069 456 1069 565 1001 c 1,10,-1
 535 951 l 2,11,12
 517 922 517 922 493 887 c 1,13,-1
 490 877 l 1,14,15
 500 784.5 500 784.5 500 729 c 0,16,17
 500 488 500 488 419 334 c 1,18,-1
 434 315 l 1,19,20
 457 326 457 326 519 376.5 c 2,21,-1
 685 518 l 2,22,23
 860 673 860 673 930 673 c 0,24,25
 1062 673 1062 673 1142.5 578 c 128,-1,26
 1223 483 1223 483 1224 335 c 2,27,-1
 1224 334 l 1,28,-1
 1229 254 l 1,29,-1
 1229 0 l 1,30,-1
 242 -1 l 1,31,-1
 194 1 l 2,32,33
 36 1 36 1 8 237 c 1,0,-1
472 264 m 1,34,-1
 477 239 l 1,35,-1
 1134 239 l 1,36,-1
 1146 253 l 1,37,38
 1146 371 1146 371 1013 422 c 0,39,40
 913.429 463 913.429 463 848.714 463 c 128,-1,41
 784 463 784 463 671 387 c 2,42,-1
 472 264 l 1,34,-1
EndSplineSet
Substitution2: "'fina' Terminal Forms in Arabic lookup 5 subtable" tahfinal
Substitution2: "'medi' Medial Forms in Arabic lookup 4 subtable" tahmedial
Substitution2: "'init' Initial Forms in Arabic lookup 3 subtable" tahinitial
Substitution2: "'isol' Isolated Forms in Arabic lookup 2 subtable" tahisolated
EndChar

StartChar: zah
Encoding: 283 1592 27
Width: 1229
Flags: W
HStem: -1 240<131.096 334.793 477 1134> 463 210<825.517 1021.47>
VStem: 367 133<348.526 914.438> 1146 83<253 362.025>
AnchorPoint: "ArabicBelow" 604 -251 basechar 0
AnchorPoint: "ArabicAbove" 604 1486 basechar 0
LayerCount: 2
Fore
SplineSet
8 237 m 1,0,-1
 63 237 l 2,1,2
 327 237 327 237 347 302 c 0,3,4
 367 361 367 361 367 488 c 0,5,6
 367 759.29 367 759.29 304 1056 c 1,7,-1
 426 1236 l 1,8,9
 456 1069 456 1069 565 1001 c 1,10,-1
 535 951 l 2,11,12
 517 922 517 922 493 887 c 1,13,-1
 490 877 l 1,14,15
 500 784.5 500 784.5 500 729 c 0,16,17
 500 488 500 488 419 334 c 1,18,-1
 434 315 l 1,19,20
 457 326 457 326 519 376.5 c 2,21,-1
 685 518 l 2,22,23
 860 673 860 673 930 673 c 0,24,25
 1062 673 1062 673 1142.5 578 c 128,-1,26
 1223 483 1223 483 1224 335 c 2,27,-1
 1224 334 l 1,28,-1
 1229 254 l 1,29,-1
 1229 0 l 1,30,-1
 242 -1 l 1,31,-1
 194 1 l 2,32,33
 36 1 36 1 8 237 c 1,0,-1
472 264 m 1,34,-1
 477 239 l 1,35,-1
 1134 239 l 1,36,-1
 1146 253 l 1,37,38
 1146 371 1146 371 1013 422 c 0,39,40
 913.429 463 913.429 463 848.714 463 c 128,-1,41
 784 463 784 463 671 387 c 2,42,-1
 472 264 l 1,34,-1
786 981 m 5,43,-1
 860 1152 l 5,44,-1
 1082 1068 l 5,45,-1
 1006 893 l 5,46,-1
 786 981 l 5,43,-1
EndSplineSet
Substitution2: "'fina' Terminal Forms in Arabic lookup 5 subtable" zahfinal
Substitution2: "'medi' Medial Forms in Arabic lookup 4 subtable" zahmedial
Substitution2: "'init' Initial Forms in Arabic lookup 3 subtable" zahinitial
Substitution2: "'isol' Isolated Forms in Arabic lookup 2 subtable" zahisolated
EndChar

StartChar: ain
Encoding: 284 1593 28
Width: 1229
Flags: W
HStem: -788 219<502.552 825.75> 629 151<489.786 682.823>
VStem: 112 103<-388.77 -103.753>
AnchorPoint: "ArabicBelow" 458 -1038 basechar 0
AnchorPoint: "ArabicAbove" 458 1030 basechar 0
LayerCount: 2
Fore
SplineSet
112 -291 m 0,0,1
 112 -12 112 -12 342 197 c 1,2,-1
 340 217 l 1,3,-1
 287 264 l 2,4,5
 266 282 266 282 247 305 c 128,-1,6
 228 328 228 328 228 375 c 0,7,8
 228 470 228 470 321 617 c 0,9,10
 421 780 421 780 518 780 c 0,11,12
 693 780 693 780 809 612 c 0,13,14
 818 598 818 598 818 592.5 c 128,-1,15
 818 587 818 587 812 587 c 2,16,-1
 809 587 l 2,17,18
 804 587 804 587 770 598 c 0,19,20
 674.182 629 674.182 629 613.091 629 c 128,-1,21
 552 629 552 629 502.5 594.5 c 0,22,23
 428.558 542.964 428.558 542.964 386 477 c 1,24,-1
 389 459 l 1,25,-1
 510 366 l 1,26,-1
 510 365 l 1,27,28
 518 358 518 358 526.5 352 c 2,29,-1
 544 339 l 1,30,-1
 556 337 l 1,31,32
 838.946 425.7 838.946 425.7 954 437 c 2,33,-1
 955 437 l 1,34,35
 948.6 424.2 948.6 424.2 930 356 c 2,36,-1
 912.5 297 l 2,37,38
 903 264 903 264 886 213 c 1,39,40
 510 161 510 161 330 -13 c 0,41,42
 215 -127 215 -127 215 -252 c 0,43,44
 215 -549.697 215 -549.697 852 -569 c 0,45,46
 885 -570 885 -570 916 -570 c 2,47,-1
 1095 -562 l 2,48,49
 1115 -562 1115 -562 1117 -559 c 1,50,51
 1115 -567 1115 -567 1051 -615 c 0,52,53
 824 -788 824 -788 604 -788 c 0,54,55
 376 -788 376 -788 243 -655 c 0,56,57
 112 -521 112 -521 112 -291 c 0,0,1
955 437 m 1,58,59
 956 439 956 439 957 442 c 1,60,-1
 957 439 l 1,61,-1
 959 438 l 1,62,-1
 956.5 437.5 l 1,63,64
 956 437 956 437 955 437 c 1,58,59
EndSplineSet
Substitution2: "'fina' Terminal Forms in Arabic lookup 5 subtable" ainfinal
Substitution2: "'medi' Medial Forms in Arabic lookup 4 subtable" ainmedial
Substitution2: "'init' Initial Forms in Arabic lookup 3 subtable" aininitial
Substitution2: "'isol' Isolated Forms in Arabic lookup 2 subtable" ainisolated
EndChar

StartChar: ghain
Encoding: 285 1594 29
Width: 1229
Flags: W
HStem: -788 218<490.781 825.75> 627.626 152.374<487.614 682.782>
VStem: 112 103<-389.078 -103.753>
AnchorPoint: "ArabicBelow" 457 -1038 basechar 0
AnchorPoint: "ArabicAbove" 457 1453 basechar 0
LayerCount: 2
Fore
SplineSet
112 -291 m 0,0,1
 112 -12 112 -12 342 197 c 1,2,-1
 340 217 l 1,3,-1
 287 264 l 2,4,5
 266 282 266 282 247 305 c 128,-1,6
 228 328 228 328 228 375 c 0,7,8
 228 470 228 470 321 617 c 0,9,10
 421 780 421 780 518 780 c 0,11,12
 693 780 693 780 809 612 c 0,13,14
 818 598 818 598 818 593 c 128,-1,15
 818 588 818 588 813 588 c 2,16,-1
 808 588 l 1,17,18
 678.385 626.252 678.385 626.252 615.193 627.626 c 128,-1,19
 552 629 552 629 483 581 c 0,20,21
 428.471 542.829 428.471 542.829 386 477 c 1,22,-1
 389 459 l 1,23,-1
 510 366 l 1,24,-1
 510 365 l 1,25,26
 518 358 518 358 526.5 352 c 2,27,-1
 544 339 l 1,28,-1
 556 337 l 1,29,30
 837.918 424.708 837.918 424.708 946 436 c 1,31,32
 947 437 947 437 957 437 c 1,33,34
 956 436 956 436 956 434.5 c 2,35,-1
 886 213 l 1,36,37
 510 161 510 161 330 -13 c 0,38,39
 215 -127 215 -127 215 -252 c 0,40,41
 215 -570 215 -570 921 -570 c 258,42,-1
 1091 -562 l 2,43,44
 1114 -562 1114 -562 1117 -559 c 1,45,46
 1115 -567 1115 -567 1051 -615 c 0,47,48
 824 -788 824 -788 604 -788 c 0,49,50
 376 -788 376 -788 243 -655 c 0,51,52
 112 -521 112 -521 112 -291 c 0,0,1
384 1032 m 1,53,-1
 459 1203 l 1,54,-1
 681 1119 l 1,55,-1
 604 944 l 1,56,-1
 384 1032 l 1,53,-1
EndSplineSet
Substitution2: "'fina' Terminal Forms in Arabic lookup 5 subtable" ghainfinal
Substitution2: "'medi' Medial Forms in Arabic lookup 4 subtable" ghainmedial
Substitution2: "'init' Initial Forms in Arabic lookup 3 subtable" ghaininitial
Substitution2: "'isol' Isolated Forms in Arabic lookup 2 subtable" ghainisolated
EndChar

StartChar: tatweel
Encoding: 286 1600 30
Width: 1229
Flags: W
HStem: 0 239<-6.5 1235.5>
LayerCount: 2
Fore
SplineSet
-6.5 0 m 1,0,-1
 -6.5 239 l 1,1,-1
 1235.5 239 l 1,2,-1
 1235.5 0 l 1,3,-1
 -6.5 0 l 1,0,-1
EndSplineSet
EndChar

StartChar: feh
Encoding: 287 1601 31
Width: 1229
Flags: W
HStem: 0.984173 239.007<119.171 1089> 792 151<885.279 1011.3>
VStem: 0 62<314.153 462.027>
AnchorPoint: "ArabicBelow" 535.5 -251 basechar 0
AnchorPoint: "ArabicAbove" 535.5 1594 basechar 0
LayerCount: 2
Fore
SplineSet
0 256 m 0,0,1
 0 412 0 412 61 541 c 1,2,-1
 62 542 l 1,3,-1
 62 511 l 1,4,-1
 60 492 l 1,5,-1
 60 464 l 2,6,7
 60 423 60 423 66 390 c 0,8,9
 89.1554 239.991 89.1554 239.991 262.29 239.991 c 0,10,11
 263.641 239.991 263.641 239.991 265 240 c 2,12,-1
 414 241 l 1,13,-1
 1089 241 l 1,14,-1
 1095 267 l 1,15,16
 849.671 382.904 849.671 382.904 784 426 c 0,17,18
 679 493 679 493 679 564.5 c 128,-1,19
 679 636 679 636 789 788 c 1,20,-1
 790 788 l 1,21,22
 903 943 903 943 968 943 c 0,23,24
 1052 943 1052 943 1140.5 796 c 128,-1,25
 1229 649 1229 649 1229 434 c 0,26,27
 1229 124.933 1229 124.933 1151 43 c 0,28,29
 1111.97 2 1111.97 2 905 2 c 2,30,-1
 487 2 l 1,31,-1
 326 1 l 2,32,33
 323.452 0.984173 323.452 0.984173 320.924 0.984173 c 0,34,35
 0 0.984173 0 0.984173 0 256 c 0,0,1
761 664 m 1,36,-1
 765 646 l 1,37,38
 889.566 566.91 889.566 566.91 1121 461 c 1,39,-1
 1138 478 l 1,40,41
 1105.77 592.808 1105.77 592.808 1059 677 c 0,42,43
 996 792 996 792 937 792 c 0,44,45
 850 792 850 792 761 664 c 1,36,-1
909.5 1181 m 1,46,-1
 976.5 1344 l 1,47,-1
 1170.5 1273 l 1,48,-1
 1100.5 1106 l 1,49,-1
 909.5 1181 l 1,46,-1
EndSplineSet
Substitution2: "'fina' Terminal Forms in Arabic lookup 5 subtable" fehfinal
Substitution2: "'medi' Medial Forms in Arabic lookup 4 subtable" fehmedial
Substitution2: "'init' Initial Forms in Arabic lookup 3 subtable" fehinitial
Substitution2: "'isol' Isolated Forms in Arabic lookup 2 subtable" fehisolated
EndChar

StartChar: qaf
Encoding: 288 1602 32
Width: 1229
Flags: W
HStem: -616 235<275.812 740.967> 2 231<785.008 1032.81> 470 260<789.533 941.044>
VStem: 39.5 56<-173.178 87.4816> 584.5 114<291.319 429.221> 1105.5 84<-126 1.40259>
AnchorPoint: "ArabicBelow" 534.5 -866 basechar 0
AnchorPoint: "ArabicAbove" 534.5 1453 basechar 0
LayerCount: 2
Fore
SplineSet
39.5 -157 m 0,0,1
 39.5 125 39.5 125 164.5 322 c 1,2,-1
 166.5 324 l 1,3,-1
 166.5 322 l 1,4,5
 95.5 126 95.5 126 95.5 -32.5 c 128,-1,6
 95.5 -191 95.5 -191 201.5 -286 c 128,-1,7
 307.5 -381 307.5 -381 482.5 -381 c 0,8,9
 725.5 -381 725.5 -381 958.5 -247 c 1,10,-1
 959.5 -247 l 1,11,12
 1056.5 -192 1056.5 -192 1102.5 -134 c 1,13,-1
 1105.5 -126 l 1,14,15
 1103.47 -79.4048 1103.47 -79.4048 1090.5 4 c 1,16,-1
 1075.5 15 l 1,17,18
 984.5 2 984.5 2 904.5 2 c 0,19,20
 584.5 2 584.5 2 584.5 237 c 0,21,22
 584.5 347 584.5 347 668.5 523 c 0,23,24
 770.5 730 770.5 730 909.5 730 c 0,25,26
 1007.5 730 1007.5 730 1081.5 611 c 0,27,28
 1189.5 441 1189.5 441 1189.5 82 c 0,29,30
 1189.5 -33.1176 1189.5 -33.1176 1154.5 -169 c 0,31,32
 1098.5 -361 1098.5 -361 904.5 -488.5 c 128,-1,33
 710.5 -616 710.5 -616 499.5 -616 c 0,34,35
 39.5 -616 39.5 -616 39.5 -157 c 0,0,1
537.5 1068 m 1,36,-1
 647.5 1203 l 1,37,-1
 785.5 1087 l 1,38,-1
 803.5 1089 l 1,39,-1
 896.5 1203 l 1,40,-1
 1043.5 1079 l 1,41,-1
 927.5 943 l 1,42,-1
 795.5 1060 l 1,43,-1
 776.5 1058 l 1,44,-1
 679.5 943 l 1,45,-1
 537.5 1068 l 1,36,-1
698.5 345 m 1,46,47
 725.653 286.517 725.653 286.517 805.5 258 c 1,48,-1
 806.5 258 l 1,49,50
 874.5 233 874.5 233 935 233 c 128,-1,51
 995.5 233 995.5 233 1030.5 246 c 1,52,-1
 1038.5 263 l 1,53,54
 967.5 470 967.5 470 825.5 470 c 0,55,56
 746.5 470 746.5 470 698.5 355 c 1,57,-1
 698.5 345 l 1,46,47
EndSplineSet
Substitution2: "'fina' Terminal Forms in Arabic lookup 5 subtable" qaffinal
Substitution2: "'medi' Medial Forms in Arabic lookup 4 subtable" qafmedial
Substitution2: "'init' Initial Forms in Arabic lookup 3 subtable" qafinitial
Substitution2: "'isol' Isolated Forms in Arabic lookup 2 subtable" qafisolated
EndChar

StartChar: arabickaf
Encoding: 289 1603 33
Width: 1229
Flags: W
HStem: -1 207<209.585 1077> 731 64.2809<550.852 730.595>
VStem: 0 79<332.286 572.591>
AnchorPoint: "ArabicBelow" 592 -251 basechar 0
AnchorPoint: "ArabicAbove" 592 1521 basechar 0
LayerCount: 2
Fore
SplineSet
0 299 m 2,0,-1
 0 313 l 2,1,2
 0 525.111 0 525.111 91 697 c 2,3,-1
 106 725 l 2,4,5
 112 736 112 736 117 741 c 1,6,-1
 117 739 l 2,7,8
 117 727.193 117 727.193 104.458 681.42 c 0,9,10
 79 588.505 79 588.505 79 482 c 2,11,-1
 79 471 l 2,12,13
 79 352.855 79 352.855 159 284.927 c 128,-1,14
 239 217 239 217 354 217 c 2,15,-1
 356 217 l 1,16,17
 413.2 206 413.2 206 602.6 206 c 0,18,19
 830.333 206 830.333 206 1077 211 c 1,20,-1
 1090 226 l 1,21,-1
 923 1110 l 1,22,-1
 1117 1255 l 2,23,24
 1128.73 1266.26 1128.73 1266.26 1130.86 1268.13 c 128,-1,25
 1133 1270 1133 1270 1134 1271 c 1,26,27
 1130.82 1266.76 1130.82 1266.76 1133 1247 c 2,28,-1
 1185 775 l 2,29,30
 1187.13 755.632 1187.13 755.632 1201.5 552.5 c 2,31,-1
 1229 168 l 1,32,-1
 1175 50 l 1,33,-1
 1111 10 l 1,34,35
 942.333 -1 942.333 -1 631 -1 c 2,36,-1
 494 -1 l 2,37,38
 429 -1 429 -1 357 1 c 2,39,-1
 346 1 l 1,40,41
 345 0 345 0 339 0 c 2,42,-1
 287 0 l 2,43,44
 177 0 177 0 101 66 c 0,45,46
 0 152 0 152 0 299 c 2,0,-1
472 385 m 1,47,48
 491 428 491 428 578 497 c 1,49,-1
 579 516 l 1,50,51
 494 601 494 601 484 643 c 1,52,53
 512.276 722.172 512.276 722.172 541 755 c 0,54,55
 580.562 794.562 580.562 794.562 645.281 795.281 c 128,-1,56
 710 796 710 796 732 790 c 1,57,-1
 732 714 l 1,58,59
 687 731 687 731 648 731 c 0,60,61
 585 731 585 731 541 705 c 1,62,-1
 536 687 l 1,63,64
 555 651 555 651 602.5 612 c 128,-1,65
 650 573 650 573 694 560 c 1,66,-1
 702 560 l 1,67,-1
 744.5 575.5 l 2,68,69
 773 586 773 586 818 601 c 1,70,71
 807.321 554.012 807.321 554.012 793 520 c 1,72,73
 647.062 484.044 647.062 484.044 535 404 c 0,74,75
 495 376 495 376 483.5 376 c 128,-1,76
 472 376 472 376 472 385 c 1,47,48
EndSplineSet
Substitution2: "'fina' Terminal Forms in Arabic lookup 5 subtable" arabickaffinal
Substitution2: "'medi' Medial Forms in Arabic lookup 4 subtable" kafmedial
Substitution2: "'init' Initial Forms in Arabic lookup 3 subtable" kafinitial
Substitution2: "'isol' Isolated Forms in Arabic lookup 2 subtable" kafisolated
EndChar

StartChar: lam
Encoding: 290 1604 34
Width: 1229
Flags: W
HStem: -414 235<372.189 753.566>
VStem: 180.5 83<-164 164.938> 927.5 121<-80.9932 -22 -22 123.452>
AnchorPoint: "ArabicBelow" 537.5 -664 basechar 0
AnchorPoint: "ArabicAbove" 537.5 1446 basechar 0
LayerCount: 2
Fore
SplineSet
180.5 -91 m 0,0,1
 180.5 109.02 180.5 109.02 279.5 305 c 0,2,3
 295.5 338 295.5 338 306.5 349 c 1,4,5
 304.5 332 304.5 332 297.5 307 c 0,6,7
 263.5 198 263.5 198 263.5 77.5 c 128,-1,8
 263.5 -43 263.5 -43 341 -111 c 128,-1,9
 418.5 -179 418.5 -179 539.5 -179 c 0,10,11
 610.5 -179 610.5 -179 757.5 -137 c 1,12,-1
 757.5 -136 l 1,13,14
 927.5 -85 927.5 -85 927.5 -22 c 2,15,-1
 927.5 -21 l 1,16,-1
 822.5 1037 l 1,17,-1
 974.5 1179 l 2,18,19
 986.5 1193 986.5 1193 991.5 1196 c 1,20,21
 988.5 1192 988.5 1192 990.5 1171 c 2,22,-1
 1034.5 495 l 2,23,24
 1044.64 344.975 1044.64 344.975 1048.5 -51 c 2,25,-1
 1048.5 -53 l 2,26,27
 1048.5 -140 1048.5 -140 923.5 -260 c 0,28,29
 760.5 -414 760.5 -414 522.5 -414 c 0,30,31
 375.5 -414 375.5 -414 278 -325.5 c 128,-1,32
 180.5 -237 180.5 -237 180.5 -91 c 0,0,1
EndSplineSet
Substitution2: "'fina' Terminal Forms in Arabic lookup 5 subtable" lamfinal
Substitution2: "'medi' Medial Forms in Arabic lookup 4 subtable" lammedial
Substitution2: "'init' Initial Forms in Arabic lookup 3 subtable" laminitial
Substitution2: "'isol' Isolated Forms in Arabic lookup 2 subtable" lamisolated
EndChar

StartChar: meem
Encoding: 291 1605 35
Width: 1229
Flags: W
HStem: 427 219<487.319 589.549>
VStem: 358.5 89<-607.272 -338.125>
AnchorPoint: "ArabicBelow" 535.5 -1036 basechar 0
AnchorPoint: "ArabicAbove" 535.5 896 basechar 0
LayerCount: 2
Fore
SplineSet
243.5 -44 m 1,0,1
 262.233 51.536 262.233 51.536 328.5 182 c 1,2,3
 343.5 197 343.5 197 509 211 c 128,-1,4
 674.5 225 674.5 225 687.5 243 c 1,5,-1
 689.5 257 l 1,6,7
 673.591 297.909 673.591 297.909 610.545 362.455 c 128,-1,8
 547.5 427 547.5 427 505 427 c 128,-1,9
 462.5 427 462.5 427 341.5 339 c 0,10,11
 318.5 322 318.5 322 309.5 322 c 1,12,13
 309.5 334 309.5 334 324.5 366 c 0,14,15
 463.5 646 463.5 646 587.5 646 c 0,16,17
 655.5 646 655.5 646 697 608.5 c 128,-1,18
 738.5 571 738.5 571 797.5 471 c 2,19,-1
 876.5 340.5 l 2,20,21
 904.5 295 904.5 295 915.5 281 c 1,22,-1
 915.5 280 l 1,23,24
 942.5 238 942.5 238 985.5 238 c 1,25,-1
 923.5 34 l 2,26,27
 913.5 0 913.5 0 797.5 0 c 2,28,-1
 446.5 0 l 2,29,30
 364.5 -3 364.5 -3 337.5 -40 c 1,31,-1
 335.5 -52 l 1,32,33
 447.5 -382 447.5 -382 447.5 -557 c 0,34,35
 447.5 -633 447.5 -633 431.5 -688 c 0,36,37
 414.38 -773.6 414.38 -773.6 399.5 -786 c 1,38,39
 394.093 -737.333 394.093 -737.333 386.5 -689.5 c 2,40,-1
 358.5 -521 l 1,41,-1
 358.5 -520 l 1,42,43
 347.5 -478 347.5 -478 331.5 -406 c 2,44,-1
 243.5 -44 l 1,0,1
EndSplineSet
Substitution2: "'fina' Terminal Forms in Arabic lookup 5 subtable" meemfinal
Substitution2: "'medi' Medial Forms in Arabic lookup 4 subtable" meemmedial
Substitution2: "'init' Initial Forms in Arabic lookup 3 subtable" meeminitial
Substitution2: "'isol' Isolated Forms in Arabic lookup 2 subtable" meemisolated
EndChar

StartChar: noon
Encoding: 292 1606 36
Width: 1229
Flags: W
HStem: -512 229<299.235 680.335>
VStem: 133.5 56<-135.338 105.08> 985.5 110<-114 160.398>
AnchorPoint: "ArabicBelow" 535.5 -762 basechar 0
AnchorPoint: "ArabicAbove" 535.5 1202 basechar 0
LayerCount: 2
Fore
SplineSet
133.5 -86 m 0,0,1
 133.5 27.8636 133.5 27.8636 179 166.432 c 128,-1,2
 224.5 305 224.5 305 295.5 400 c 0,3,4
 309.3 418.4 309.3 418.4 304.5 404 c 0,5,6
 303.5 399 303.5 399 303 397 c 128,-1,7
 302.5 395 302.5 395 302.5 397 c 1,8,9
 189.5 165 189.5 165 189.5 20 c 128,-1,10
 189.5 -125 189.5 -125 260.5 -205 c 0,11,12
 332.5 -283 332.5 -283 460.5 -283 c 0,13,14
 737.5 -283 737.5 -283 979.5 -125 c 1,15,-1
 985.5 -114 l 1,16,17
 985.5 152 985.5 152 856.5 320 c 1,18,-1
 972 512.5 l 2,19,20
 977.5 522 977.5 522 978.5 525 c 1,21,22
 1095.5 372 1095.5 372 1095.5 92.5 c 128,-1,23
 1095.5 -187 1095.5 -187 997.5 -309 c 0,24,25
 941.5 -377 941.5 -377 745.5 -447 c 0,26,27
 548.5 -512 548.5 -512 456.5 -512 c 0,28,29
 288.5 -512 288.5 -512 206.5 -379 c 0,30,31
 133.5 -264 133.5 -264 133.5 -86 c 0,0,1
302.5 397 m 1,32,-1
 303.5 398 l 1,33,-1
 302.5 397 l 1,32,-1
483.5 789 m 1,34,-1
 550.5 952 l 1,35,-1
 743.5 881 l 1,36,-1
 673.5 714 l 1,37,-1
 483.5 789 l 1,34,-1
EndSplineSet
Substitution2: "'fina' Terminal Forms in Arabic lookup 5 subtable" noonfinal
Substitution2: "'medi' Medial Forms in Arabic lookup 4 subtable" noonmedial
Substitution2: "'init' Initial Forms in Arabic lookup 3 subtable" nooninitial
Substitution2: "'isol' Isolated Forms in Arabic lookup 2 subtable" noonisolated
EndChar

StartChar: heh
Encoding: 293 1607 37
Width: 1229
Flags: W
HStem: -4 218<396.997 654.964>
VStem: 260 113<128 347.118>
AnchorPoint: "ArabicBelow" 537 -254 basechar 0
AnchorPoint: "ArabicAbove" 537 1025 basechar 0
LayerCount: 2
Fore
SplineSet
260 166 m 0,0,1
 260 313 260 313 393 494 c 1,2,3
 389 490 389 490 396 499.5 c 2,4,-1
 611 775 l 1,5,6
 667 710 667 710 802 615 c 1,7,-1
 803 615 l 1,8,9
 969 506.383 969 506.383 969 434 c 0,10,11
 969 394 969 394 933 302.5 c 128,-1,12
 897 211 897 211 865 168 c 1,13,14
 657 -4 657 -4 433 -4 c 0,15,16
 358 -4 358 -4 309 43 c 128,-1,17
 260 90 260 90 260 166 c 0,0,1
373 323.5 m 128,-1,19
 373 265 373 265 423.5 239.5 c 128,-1,20
 474 214 474 214 532 214 c 128,-1,21
 590 214 590 214 686 238 c 128,-1,22
 782 262 782 262 822 296 c 1,23,-1
 818 319 l 1,24,25
 789 333 789 333 713.5 392 c 2,26,-1
 511 555 l 1,27,-1
 492 552 l 1,28,18
 373 382 373 382 373 323.5 c 128,-1,19
EndSplineSet
Substitution2: "'fina' Terminal Forms in Arabic lookup 5 subtable" hehfinal
Substitution2: "'medi' Medial Forms in Arabic lookup 4 subtable" hehmedial
Substitution2: "'init' Initial Forms in Arabic lookup 3 subtable" hehinitial
Substitution2: "'isol' Isolated Forms in Arabic lookup 2 subtable" hehisolated
EndChar

StartChar: waw
Encoding: 294 1608 38
Width: 1229
Flags: W
HStem: -573 221<432.717 675.065> -287 24<162.127 179.397> 438 261<718.454 838.626>
AnchorPoint: "ArabicBelow" 579.5 -823 basechar 0
AnchorPoint: "ArabicAbove" 579.5 949 basechar 0
LayerCount: 2
Fore
SplineSet
157.5 -263 m 1,0,1
 164.5 -263 164.5 -263 187.5 -277 c 0,2,3
 307.5 -352 307.5 -352 465 -352 c 128,-1,4
 622.5 -352 622.5 -352 754.5 -263.5 c 128,-1,5
 886.5 -175 886.5 -175 948.5 -29 c 1,6,-1
 937.5 -10 l 1,7,8
 548.5 16 548.5 16 548.5 216 c 0,9,10
 548.5 327 548.5 327 625.5 508 c 0,11,12
 712.5 699 712.5 699 810.5 699 c 0,13,14
 872.5 699 872.5 699 961.5 574 c 0,15,16
 1071.5 425 1071.5 425 1071.5 245 c 2,17,-1
 1071.5 109 l 2,18,19
 1071.5 -123.58 1071.5 -123.58 930 -348.29 c 128,-1,20
 788.5 -573 788.5 -573 593.5 -573 c 0,21,22
 432.651 -573 432.651 -573 258 -390.5 c 0,23,24
 213.5 -344 213.5 -344 171.5 -287 c 1,25,-1
 170.5 -287 l 1,26,27
 162.643 -275.529 162.643 -275.529 157.5 -263 c 1,0,1
651.5 323 m 1,28,-1
 656.5 307 l 1,29,30
 771.5 232 771.5 232 925.5 232 c 1,31,-1
 937.5 252 l 1,32,33
 914.892 300.984 914.892 300.984 860.196 369.492 c 128,-1,34
 805.5 438 805.5 438 759.5 438 c 0,35,36
 697.5 438 697.5 438 651.5 323 c 1,28,-1
EndSplineSet
Substitution2: "'fina' Terminal Forms in Arabic lookup 5 subtable" wawfinal
Substitution2: "'isol' Isolated Forms in Arabic lookup 2 subtable" wawisolated
EndChar

StartChar: alefmaksura
Encoding: 295 1609 39
Width: 1229
Flags: W
HStem: -425 234<254.084 631.757> 577 187<955.566 1175.11>
VStem: 15 65<-102.75 229.087>
AnchorPoint: "ArabicBelow" 537 -675 basechar 0
AnchorPoint: "ArabicAbove" 537 1014 basechar 0
LayerCount: 2
Fore
SplineSet
15 -16.5 m 128,-1,1
 15 156 15 156 70 297 c 1,2,-1
 70 298 l 1,3,4
 126.438 459.438 126.438 459.438 208 541 c 1,5,6
 202.092 514.415 202.092 514.415 185 488 c 1,7,-1
 184 488 l 1,8,9
 80 288 80 288 80 133 c 128,-1,10
 80 -22 80 -22 188.5 -106.5 c 128,-1,11
 297 -191 297 -191 455 -191 c 0,12,13
 741 -191 741 -191 987 -20 c 1,14,-1
 986 3 l 1,15,16
 984 4 984 4 943.5 17.5 c 2,17,-1
 822 57 l 2,18,19
 805 62 805 62 787 68 c 2,20,-1
 749 81 l 2,21,22
 574 139 574 139 574 181 c 0,23,24
 574 347 574 347 760 555.5 c 128,-1,25
 946 764 946 764 1108 764 c 0,26,27
 1214 764 1214 764 1214 692 c 0,28,29
 1214 654.5 1214 654.5 1194 588.25 c 128,-1,30
 1174 522 1174 522 1168 516 c 1,31,32
 1154 530 1154 530 1114.5 553.5 c 128,-1,33
 1075 577 1075 577 1043 577 c 0,34,35
 930 577 930 577 818 483 c 0,36,37
 740 421 740 421 692 340 c 1,38,-1
 695 323 l 1,39,40
 736 291 736 291 940.5 235.5 c 128,-1,41
 1145 180 1145 180 1146 167 c 2,42,-1
 1146 156 l 2,43,44
 1146 118.857 1146 118.857 1130.5 27.4286 c 128,-1,45
 1115 -64 1115 -64 1104 -75 c 0,46,47
 997.419 -183.358 997.419 -183.358 829 -287 c 0,48,49
 598 -425 598 -425 402.5 -425 c 128,-1,50
 207 -425 207 -425 108 -301 c 0,51,0
 15 -189 15 -189 15 -16.5 c 128,-1,1
EndSplineSet
Substitution2: "'fina' Terminal Forms in Arabic lookup 5 subtable" alefmaksurafinal
Substitution2: "'isol' Isolated Forms in Arabic lookup 2 subtable" alefmaksuraisolated
EndChar

StartChar: yeh
Encoding: 296 1610 40
Width: 1229
Flags: W
HStem: -397 233<253.769 631.169> 605 186<954.771 1174.26>
VStem: 15 64<-74.75 255.229>
AnchorPoint: "ArabicBelow" 554 -1020 basechar 0
AnchorPoint: "ArabicAbove" 554 1041 basechar 0
LayerCount: 2
Fore
SplineSet
15 12.5 m 128,-1,1
 15 187 15 187 70 325 c 1,2,-1
 70 326 l 1,3,4
 115.368 451.792 115.368 451.792 172 526 c 0,5,6
 196 559 196 559 208 568 c 1,7,8
 203.036 545.661 203.036 545.661 185 515 c 1,9,-1
 184 515 l 1,10,11
 79 315 79 315 79 161.5 c 128,-1,12
 79 8 79 8 193 -82 c 0,13,14
 298.429 -164 298.429 -164 455 -164 c 0,15,16
 741 -164 741 -164 987 7 c 1,17,-1
 986 31 l 1,18,19
 984 32 984 32 943.5 45.5 c 2,20,-1
 822 85 l 2,21,22
 805 90 805 90 786.5 96 c 2,23,-1
 748 109 l 2,24,25
 574 167 574 167 574 209 c 0,26,27
 574 375 574 375 760 583 c 128,-1,28
 946 791 946 791 1108 791 c 0,29,30
 1214 791 1214 791 1214 719 c 0,31,32
 1214 688.667 1214 688.667 1194 619.333 c 128,-1,33
 1174 550 1174 550 1168 544 c 1,34,35
 1156.2 555.8 1156.2 555.8 1114.6 580.4 c 128,-1,36
 1073 605 1073 605 1043 605 c 0,37,38
 934 605 934 605 818 510 c 0,39,40
 743.896 453.447 743.896 453.447 691 368 c 1,41,-1
 694 350 l 1,42,43
 739.815 315.639 739.815 315.639 941.907 261.319 c 128,-1,44
 1144 207 1144 207 1146 195 c 1,45,-1
 1146 183 l 2,46,47
 1146 152 1146 152 1131 58 c 128,-1,48
 1116 -36 1116 -36 1104 -48 c 0,49,50
 987.849 -162.247 987.849 -162.247 829 -260 c 0,51,52
 596 -397 596 -397 401.5 -397 c 128,-1,53
 207 -397 207 -397 111 -279.5 c 128,-1,0
 15 -162 15 -162 15 12.5 c 128,-1,1
223 -645 m 1,54,-1
 333 -510 l 1,55,-1
 470 -626 l 1,56,-1
 489 -624 l 1,57,-1
 581 -510 l 1,58,-1
 728 -635 l 1,59,-1
 613 -770 l 1,60,-1
 480 -653 l 1,61,-1
 461 -655 l 1,62,-1
 364 -770 l 1,63,-1
 223 -645 l 1,54,-1
EndSplineSet
Substitution2: "'fina' Terminal Forms in Arabic lookup 5 subtable" yehfinal
Substitution2: "'medi' Medial Forms in Arabic lookup 4 subtable" yehmedial
Substitution2: "'init' Initial Forms in Arabic lookup 3 subtable" yehinitial
Substitution2: "'isol' Isolated Forms in Arabic lookup 2 subtable" yehisolated
EndChar

StartChar: fathatan
Encoding: 297 1611 41
Width: 0
Flags: W
VStem: 445.5 338
AnchorPoint: "ArabicAboveLigature" 615.5 1275 mark 0
AnchorPoint: "ArabicAbove" 615.5 1275 mark 0
LayerCount: 2
Fore
SplineSet
445.5 1760 m 1,0,1
 448.5 1798 448.5 1798 459.5 1819 c 0,2,3
 471.5 1839 471.5 1839 511.5 1861 c 2,4,-1
 783.5 2018 l 1,5,6
 783.5 1952 783.5 1952 748.5 1932 c 2,7,-1
 445.5 1760 l 1,0,1
445.5 1906 m 1,8,9
 448.5 1944 448.5 1944 459.5 1965 c 0,10,11
 471.5 1985 471.5 1985 511.5 2007 c 2,12,-1
 783.5 2164 l 1,13,14
 783.5 2098 783.5 2098 748.5 2078 c 2,15,-1
 445.5 1906 l 1,8,9
EndSplineSet
EndChar

StartChar: dammatan
Encoding: 298 1612 42
Width: 0
Flags: W
HStem: 1621 86<448.578 522.002> 1779 67<671.26 735.979>
VStem: 415 10<1545.9 1574.61> 523 43<1515.75 1613.15> 618 53<1674 1778.6> 738 70<1687.14 1778.65>
AnchorPoint: "ArabicAboveLigature" 648 1275 mark 0
AnchorPoint: "ArabicAbove" 648 1275 mark 0
LayerCount: 2
Fore
SplineSet
415 1597 m 256,0,1
 415 1669.6 415 1669.6 466 1698.5 c 0,2,3
 481 1707 481 1707 499 1707 c 0,4,5
 566 1707 566 1707 566 1607 c 2,6,-1
 560 1515 l 1,7,8
 625 1540 625 1540 684 1605 c 1,9,10
 618 1648 618 1648 618 1700 c 128,-1,11
 618 1752 618 1752 658 1799 c 128,-1,12
 698 1846 698 1846 730 1846 c 128,-1,13
 762 1846 762 1846 785 1819.5 c 128,-1,14
 808 1793 808 1793 808 1764.5 c 128,-1,15
 808 1736 808 1736 797 1708 c 2,16,-1
 775 1652 l 1,17,18
 814 1622 814 1622 814 1593.5 c 0,19,20
 814 1547 814 1547 812 1523 c 1,21,22
 766.468 1548.04 766.468 1548.04 720 1582 c 1,23,24
 594 1453 594 1453 480 1437 c 1,25,26
 523 1526 523 1526 523 1566 c 0,27,28
 523 1621 523 1621 474 1621 c 0,29,30
 432 1621 432 1621 425 1545 c 1,31,32
 415 1574 415 1574 415 1597 c 256,0,1
671 1754.5 m 128,-1,34
 671 1730 671 1730 734 1687 c 1,35,36
 738 1696 738 1696 738 1726 c 0,37,38
 738 1779 738 1779 697 1779 c 0,39,33
 671 1779 671 1779 671 1754.5 c 128,-1,34
EndSplineSet
EndChar

StartChar: kasratan
Encoding: 299 1613 43
Width: 0
Flags: W
VStem: 445.5 338
AnchorPoint: "ArabicBelowLigature" 609.5 -500 mark 0
AnchorPoint: "ArabicBelow" 609.5 -500 mark 0
LayerCount: 2
Fore
SplineSet
445.5 -878 m 1,0,1
 448.5 -840 448.5 -840 459.5 -818 c 1,2,3
 472.5 -800 472.5 -800 511.5 -777 c 2,4,-1
 783.5 -620 l 1,5,6
 783.5 -686 783.5 -686 748.5 -706 c 2,7,-1
 445.5 -878 l 1,0,1
445.5 -1025 m 1,8,9
 448.5 -987 448.5 -987 459.5 -965 c 1,10,11
 472.5 -947 472.5 -947 511.5 -924 c 2,12,-1
 783.5 -767 l 1,13,14
 783.5 -833 783.5 -833 748.5 -853 c 2,15,-1
 445.5 -1025 l 1,8,9
EndSplineSet
EndChar

StartChar: fatha
Encoding: 300 1614 44
Width: 0
Flags: W
VStem: 475.5 278
AnchorPoint: "ArabicAboveLigature" 700.5 1275 mark 0
AnchorPoint: "ArabicAbove" 700.5 1275 mark 0
LayerCount: 2
Fore
SplineSet
475.5 1698 m 1,0,1
 477.5 1732 477.5 1732 486.5 1747 c 0,2,3
 496.5 1762 496.5 1762 529.5 1781 c 2,4,-1
 753.5 1910 l 1,5,6
 753.5 1856 753.5 1856 724.5 1839 c 2,7,-1
 475.5 1698 l 1,0,1
EndSplineSet
EndChar

StartChar: damma
Encoding: 301 1615 45
Width: 0
Flags: W
HStem: 2006 70<639.888 695.903>
VStem: 598.5 41<1924.25 2005.9> 698.5 50<1929.03 2040>
AnchorPoint: "ArabicAboveLigature" 705.5 1275 mark 0
AnchorPoint: "ArabicAbove" 705.5 1275 mark 0
LayerCount: 2
Fore
SplineSet
473.5 1737 m 1,0,1
 560.474 1784.63 560.474 1784.63 648.5 1865 c 1,2,3
 598.5 1903 598.5 1903 598.5 1945.5 c 128,-1,4
 598.5 1988 598.5 1988 634.5 2041 c 0,5,6
 660.5 2076 660.5 2076 693.5 2076 c 0,7,8
 748.5 2076 748.5 2076 748.5 2004 c 0,9,10
 748.5 1962 748.5 1962 723.5 1908 c 1,11,12
 729.5 1904 729.5 1904 737.5 1897.5 c 2,13,-1
 755.5 1883 l 1,14,-1
 748.5 1802 l 1,15,-1
 683.5 1845 l 1,16,17
 584.5 1727 584.5 1727 521.5 1727 c 0,18,19
 503.5 1727 503.5 1727 473.5 1737 c 1,0,1
639.5 1985 m 128,-1,21
 639.5 1964 639.5 1964 693.5 1928 c 1,22,23
 698.5 1948 698.5 1948 698.5 1961 c 128,-1,24
 698.5 1974 698.5 1974 685 1990 c 128,-1,25
 671.5 2006 671.5 2006 655.5 2006 c 128,-1,20
 639.5 2006 639.5 2006 639.5 1985 c 128,-1,21
EndSplineSet
EndChar

StartChar: kasra
Encoding: 302 1616 46
Width: 0
Flags: W
VStem: 445.5 338
AnchorPoint: "ArabicBelowLigature" 597.5 -500 mark 0
AnchorPoint: "ArabicBelow" 597.5 -500 mark 0
LayerCount: 2
Fore
SplineSet
445.5 -878 m 1,0,1
 448.5 -840 448.5 -840 459.5 -818 c 1,2,3
 472.5 -800 472.5 -800 511.5 -777 c 2,4,-1
 783.5 -620 l 1,5,6
 783.5 -686 783.5 -686 748.5 -706 c 2,7,-1
 445.5 -878 l 1,0,1
EndSplineSet
EndChar

StartChar: shadda
Encoding: 303 1617 47
Width: 0
Flags: W
HStem: 1450 102<488.778 577.739> 1515 107<645.755 735.848>
VStem: 754.5 23<1719.04 1769>
AnchorPoint: "ArabicAboveLigature" 736.5 1650 mark 0
AnchorPoint: "ArabicAbove" 736.5 1650 mark 0
LayerCount: 2
Fore
SplineSet
437.5 1558 m 0,0,1
 437.5 1583 437.5 1583 459.5 1659 c 1,2,-1
 482.5 1663 l 1,3,4
 482.5 1552 482.5 1552 521.5 1552 c 0,5,6
 585.5 1552 585.5 1552 611.5 1714 c 1,7,-1
 629.5 1720 l 1,8,9
 652.5 1622 652.5 1622 687.5 1622 c 0,10,11
 745.5 1622 745.5 1622 754.5 1769 c 1,12,-1
 777.5 1779 l 1,13,14
 791.5 1718 791.5 1718 791.5 1683 c 0,15,16
 791.5 1515 791.5 1515 687.5 1515 c 0,17,18
 651.5 1515 651.5 1515 623.5 1536 c 1,19,20
 615.5 1501 615.5 1501 584 1475.5 c 128,-1,21
 552.5 1450 552.5 1450 519.5 1450 c 0,22,23
 437.5 1450 437.5 1450 437.5 1558 c 0,0,1
EndSplineSet
EndChar

StartChar: sukun
Encoding: 304 1618 48
Width: 0
Flags: W
HStem: 1450 99<520.722 688.33> 1676 86<531.435 662.557>
VStem: 485.5 33<1508.83 1660.02> 688.5 55<1557.11 1633.81>
AnchorPoint: "ArabicAboveLigature" 713.5 1275 mark 0
AnchorPoint: "ArabicAbove" 713.5 1275 mark 0
LayerCount: 2
Fore
SplineSet
485.5 1571 m 0,0,1
 485.5 1655 485.5 1655 523 1708.5 c 128,-1,2
 560.5 1762 560.5 1762 615 1762 c 128,-1,3
 669.5 1762 669.5 1762 706.5 1717.5 c 128,-1,4
 743.5 1673 743.5 1673 743.5 1611 c 128,-1,5
 743.5 1549 743.5 1549 697 1499.5 c 128,-1,6
 650.5 1450 650.5 1450 592.5 1450 c 0,7,8
 485.5 1450 485.5 1450 485.5 1571 c 0,0,1
518.5 1608 m 0,9,10
 518.5 1549 518.5 1549 603.5 1549 c 128,-1,11
 688.5 1549 688.5 1549 688.5 1590 c 0,12,13
 688.5 1616 688.5 1616 646.5 1646 c 128,-1,14
 604.5 1676 604.5 1676 577.5 1676 c 0,15,16
 518.5 1676 518.5 1676 518.5 1608 c 0,9,10
EndSplineSet
EndChar

StartChar: arabicindicdigitzero
Encoding: 305 1632 49
Width: 0
Flags: W
HStem: 205 364
VStem: 482.5 264
LayerCount: 2
Fore
SplineSet
482.5 325 m 1,0,-1
 552.5 569 l 1,1,-1
 746.5 449 l 1,2,-1
 676.5 205 l 1,3,-1
 482.5 325 l 1,0,-1
EndSplineSet
EndChar

StartChar: arabicindicdigitone
Encoding: 306 1633 50
Width: 1229
Flags: W
VStem: 702.5 51<-65.9839 0 0 149.483>
LayerCount: 2
Fore
SplineSet
464.5 701 m 1,0,1
 466.7 729.6 466.7 729.6 469.5 738 c 2,2,-1
 498.5 827 l 2,3,4
 531.5 917 531.5 917 537.5 919 c 1,5,6
 551.5 914 551.5 914 588.5 859.5 c 0,7,8
 700.454 694.595 700.454 694.595 747.5 428 c 0,9,10
 763.5 326 763.5 326 763.5 235 c 2,11,-1
 763.5 199 l 1,12,-1
 764.5 134 l 2,13,14
 764.5 40 764.5 40 753.5 -15 c 1,15,-1
 753.5 -16 l 1,16,17
 745.5 -66 745.5 -66 727.5 -66 c 0,18,19
 715.5 -66 715.5 -66 702.5 0 c 0,20,21
 655.64 299.498 655.64 299.498 632.5 359 c 2,22,-1
 606.5 425 l 2,23,24
 594.5 456 594.5 456 583 483 c 128,-1,25
 571.5 510 571.5 510 559.5 533.5 c 2,26,-1
 464.5 701 l 1,0,1
EndSplineSet
EndChar

StartChar: arabicindicdigittwo
Encoding: 307 1634 51
Width: 1229
Flags: W
HStem: 802.118 149.007<538.672 839.071>
VStem: 590.5 66<-77.4102 165.248>
LayerCount: 2
Fore
SplineSet
369.5 720 m 1,0,-1
 369.5 792 l 2,1,2
 375.315 850.152 375.315 850.152 394.908 882.576 c 0,3,4
 436.329 951.125 436.329 951.125 635.391 951.125 c 0,5,6
 736 951.125 736 951.125 859.5 930 c 1,7,8
 840.5 809 840.5 809 834.5 782 c 1,9,10
 818.5 788 818.5 788 759.206 795.059 c 128,-1,11
 699.912 802.118 699.912 802.118 686.5 802.118 c 0,12,13
 499.607 802.118 499.607 802.118 517 676.5 c 0,14,15
 523.936 626.407 523.936 626.407 562 538 c 2,16,-1
 590.5 470 l 2,17,18
 591.5 467 591.5 467 593.5 462.5 c 128,-1,19
 595.5 458 595.5 458 599.5 444.5 c 2,20,-1
 611 404.5 l 2,21,22
 618.5 378 618.5 378 630.5 331 c 2,23,-1
 646.5 233 l 1,24,-1
 653.5 155 l 1,25,-1
 656.5 73 l 2,26,27
 656.5 -78 656.5 -78 626.5 -78 c 0,28,29
 606.5 -78 606.5 -78 590.5 8.5 c 0,30,31
 557.389 187.509 557.389 187.509 534.5 248 c 2,32,-1
 515.5 311 l 2,33,34
 483.5 402 483.5 402 452 475 c 128,-1,35
 420.5 548 420.5 548 395.5 631 c 2,36,-1
 369.5 720 l 1,0,-1
EndSplineSet
EndChar

StartChar: arabicindicdigitthree
Encoding: 308 1635 52
Width: 1229
Flags: W
HStem: 596 223<766.455 863.705>
VStem: 498.5 54.5<-80.4453 111.895>
LayerCount: 2
Fore
SplineSet
274 778 m 1,0,-1
 296 831 l 2,1,2
 323.348 887.519 323.348 887.519 358 933 c 1,3,-1
 416 858 l 2,4,5
 493 762 493 762 543 762 c 0,6,7
 558 762 558 762 575 772 c 0,8,9
 629 815 629 815 661 872 c 2,10,-1
 727 981 l 1,11,12
 737 981 737 981 737 950 c 2,13,-1
 737 923 l 1,14,-1
 739 896 l 1,15,-1
 739 894 l 1,16,17
 744 875 744 875 774 846 c 1,18,-1
 774 845 l 1,19,20
 808.667 819 808.667 819 838.833 819 c 0,21,22
 872.312 819.986 872.312 819.986 895 852 c 1,23,-1
 920 918 l 2,24,25
 928 936 928 936 942 944 c 1,26,27
 945 944 945 944 950 940 c 1,28,-1
 953 927 l 1,29,-1
 955 898 l 2,30,31
 955 817.059 955 817.059 921.5 717.529 c 128,-1,32
 888 618 888 618 843 602 c 1,33,-1
 842 601 l 1,34,35
 819.5 596 819.5 596 797.25 596 c 128,-1,36
 775 596 775 596 742 613 c 1,37,-1
 741 613 l 1,38,-1
 704 630 l 1,39,-1
 684 640 l 1,40,-1
 670 651 l 1,41,-1
 657 649 l 1,42,43
 612.475 593.344 612.475 593.344 566 569 c 2,44,-1
 527 555 l 1,45,-1
 520 538 l 1,46,-1
 535 472 l 1,47,-1
 550 395 l 1,48,-1
 557 330 l 1,49,-1
 564 273 l 1,50,-1
 564 117 l 2,51,52
 564 -47.5 564 -47.5 553 -66.75 c 128,-1,53
 542 -86 542 -86 532 -86 c 0,54,55
 514 -86 514 -86 498.5 72 c 128,-1,56
 483 230 483 230 458 312 c 2,57,-1
 420.5 434 l 2,58,59
 408 474 408 474 395 508 c 2,60,-1
 371.5 573.5 l 2,61,62
 361 602 361 602 352 623 c 1,63,-1
 351 624 l 1,64,-1
 274 778 l 1,0,-1
940.5 964.5 m 1,65,66
 941 965 941 965 942 965 c 1,67,-1
 940.5 964.5 l 1,65,66
EndSplineSet
EndChar

StartChar: arabicindicdigitfour
Encoding: 309 1636 53
Width: 1229
Flags: W
HStem: 795 138<628.908 675.5>
VStem: 410 410.5
LayerCount: 2
Fore
SplineSet
410 561 m 0,0,1
 399.154 691.151 399.154 691.151 573.5 850 c 0,2,3
 655.393 918.963 655.393 918.963 695.5 933 c 1,4,5
 689.5 896 689.5 896 685 864 c 2,6,-1
 675.5 795 l 1,7,-1
 610.5 775 l 1,8,9
 536.5 740 536.5 740 525.5 703 c 1,10,11
 525.5 670 525.5 670 608.5 621 c 2,12,-1
 738.5 559 l 1,13,-1
 739.5 551 l 2,14,15
 739.5 513.379 739.5 513.379 676.5 433 c 2,16,-1
 594.5 346 l 2,17,18
 519.5 271 519.5 271 539.5 215 c 1,19,-1
 543.5 209 l 1,20,21
 564.278 194.159 564.278 194.159 610.5 176 c 2,22,-1
 725.5 134 l 2,23,24
 743.5 129 743.5 129 761.5 124.5 c 2,25,-1
 798.5 115 l 2,26,27
 804.5 113 804.5 113 809.5 111 c 128,-1,28
 814.5 109 814.5 109 820.5 107 c 1,29,-1
 761.5 -64 l 1,30,-1
 756.5 -64 l 2,31,32
 701.5 -64 701.5 -64 588.5 -24 c 0,33,34
 415.5 28 415.5 28 415.5 107 c 0,35,36
 415.5 144.957 415.5 144.957 463.5 218 c 2,37,-1
 585.5 386 l 1,38,-1
 587.5 396 l 1,39,40
 587.5 416 587.5 416 487.5 484 c 0,41,42
 447.674 508.242 447.674 508.242 411.5 547 c 1,43,44
 410.5 555 410.5 555 410 561 c 0,0,1
EndSplineSet
EndChar

StartChar: arabicindicdigitfive
Encoding: 310 1637 54
Width: 1229
Flags: W
HStem: 624 199<547.505 654.081>
VStem: 346 99<368 515.851> 804 79<359.188 450.637>
LayerCount: 2
Fore
SplineSet
346 305 m 0,0,1
 346 454 346 454 448 638.5 c 128,-1,2
 550 823 550 823 633 823 c 0,3,4
 690 823 690 823 764.5 737 c 128,-1,5
 839 651 839 651 878 542 c 1,6,-1
 882 516 l 1,7,-1
 883 494 l 2,8,9
 883 423 883 423 859.5 324 c 128,-1,10
 836 225 836 225 806 198 c 0,11,12
 733.283 141.281 733.283 141.281 651 119.5 c 2,13,-1
 615 110 l 1,14,-1
 581 105 l 1,15,-1
 548 103 l 2,16,17
 446.786 103 446.786 103 386 172 c 0,18,19
 346 215 346 215 346 305 c 0,0,1
445 410 m 1,20,-1
 449 368 l 1,21,22
 456 346 456 346 504 319 c 1,23,-1
 506 319 l 1,24,-1
 525 312 l 1,25,-1
 526 311 l 1,26,-1
 557 304 l 1,27,-1
 559 304 l 1,28,-1
 617 300 l 1,29,-1
 639 300 l 1,30,-1
 664 301 l 1,31,-1
 665 301 l 2,32,33
 685 303 685 303 691 306 c 1,34,-1
 716 313 l 2,35,36
 765.95 325.95 765.95 325.95 799 359 c 1,37,-1
 798 359 l 1,38,39
 804 365 804 365 804 374 c 0,40,41
 804 400 804 400 730 502 c 1,42,-1
 729 502 l 1,43,44
 631 624 631 624 556 624 c 0,45,46
 531 624 531 624 488 548 c 128,-1,47
 445 472 445 472 445 411 c 2,48,-1
 445 410 l 1,20,-1
EndSplineSet
EndChar

StartChar: arabicindicdigitsix
Encoding: 311 1638 55
Width: 1229
Flags: W
HStem: 675 210<412.336 670.649 599.097 692.624>
VStem: 705.5 36<516 643>
LayerCount: 2
Fore
SplineSet
330.5 819 m 2,0,1
 330.5 859 330.5 859 356.5 965 c 1,2,-1
 414.5 928 l 2,3,4
 506.643 885 506.643 885 582.357 885 c 128,-1,5
 658.071 885 658.071 885 769.5 915 c 1,6,-1
 771.5 915 l 1,7,-1
 751.5 808 l 1,8,-1
 747.5 750 l 1,9,-1
 736.5 643 l 1,10,-1
 741.5 643 l 1,11,-1
 741.5 599 l 1,12,-1
 750.5 516 l 1,13,-1
 768.5 435 l 2,14,15
 810.389 270.936 810.389 270.936 898.5 155 c 1,16,-1
 898.5 150 l 2,17,18
 896.433 125.2 896.433 125.2 875.5 31 c 0,19,20
 853.5 -43 853.5 -43 855.5 -55 c 1,21,22
 831.359 -39.6377 831.359 -39.6377 788.43 44.6811 c 0,23,24
 705.5 207.565 705.5 207.565 705.5 375 c 2,25,-1
 705.5 474 l 2,26,27
 709.5 534 709.5 534 710 568.5 c 128,-1,28
 710.5 603 710.5 603 713 625 c 2,29,-1
 718.5 673 l 1,30,-1
 694.5 698 l 1,31,32
 634 687 634 687 631.75 687 c 128,-1,33
 629.5 687 629.5 687 626.5 686 c 2,34,-1
 574.5 678 l 2,35,36
 554.5 675 554.5 675 504 675 c 0,37,38
 393.201 675 393.201 675 340.5 763 c 1,39,40
 338.5 768 338.5 768 336.5 775.5 c 128,-1,41
 334.5 783 334.5 783 332.5 789 c 1,42,-1
 330.5 819 l 2,0,1
855.5 -55 m 1,43,44
 858.5 -57 858.5 -57 859.5 -57 c 1,45,-1
 857.5 -57 l 2,46,47
 855.5 -57 855.5 -57 855.5 -55 c 1,43,44
EndSplineSet
EndChar

StartChar: arabicindicdigitseven
Encoding: 312 1639 56
Width: 1229
Flags: W
LayerCount: 2
Fore
SplineSet
257.5 710 m 1,0,-1
 283.5 784 l 2,1,2
 312.173 863.875 312.173 863.875 331.5 889 c 1,3,-1
 374.5 844 l 1,4,-1
 400.5 809 l 1,5,-1
 432.5 759 l 2,6,7
 443.5 742 443.5 742 454 721 c 2,8,-1
 477.5 674 l 1,9,-1
 575.5 438 l 1,10,-1
 636.5 279 l 1,11,-1
 658.5 279 l 1,12,-1
 726.5 484 l 1,13,-1
 783.5 633 l 1,14,-1
 812.5 698 l 2,15,16
 837.343 760.935 837.343 760.935 908.5 861 c 2,17,-1
 938 901.5 l 2,18,19
 948.5 916 948.5 916 951 923.5 c 128,-1,20
 953.5 931 953.5 931 971.5 763 c 1,21,22
 870.72 662.22 870.72 662.22 758.5 369 c 2,23,-1
 667.5 87 l 2,24,25
 635.5 -11 635.5 -11 623.5 -15 c 1,26,27
 610.5 -15 610.5 -15 592 52 c 0,28,29
 535.267 257.467 535.267 257.467 486.5 355 c 2,30,-1
 446.5 442 l 1,31,-1
 426.5 480.5 l 2,32,33
 385.56 560.105 385.56 560.105 327.5 634 c 1,34,-1
 327.5 635 l 1,35,-1
 276.5 692 l 1,36,-1
 257.5 710 l 1,0,-1
EndSplineSet
EndChar

StartChar: arabicindicdigiteight
Encoding: 313 1640 57
Width: 1229
Flags: W
LayerCount: 2
Fore
SplineSet
263 115 m 1,0,-1
 355 232 l 1,1,-1
 356 233 l 1,2,3
 413.276 334.825 413.276 334.825 473 486 c 2,4,-1
 546 703 l 2,5,6
 599 867 599 867 614 867 c 128,-1,7
 629 867 629 867 655 780 c 0,8,9
 690.763 623.771 690.763 623.771 750 509 c 0,10,11
 821.304 350.095 821.304 350.095 872 276 c 2,12,-1
 966 152 l 1,13,-1
 953 104 l 2,14,15
 922.191 -5.75692 922.191 -5.75692 900 -34 c 1,16,-1
 857 13 l 2,17,18
 821.062 57.9231 821.062 57.9231 785.5 127.5 c 2,19,-1
 718 273 l 1,20,-1
 601 573 l 1,21,-1
 579 573 l 1,22,-1
 510 382 l 1,23,-1
 423 171 l 2,24,25
 390.347 88.4067 390.347 88.4067 335.673 9.20335 c 128,-1,26
 281 -70 281 -70 277 -71 c 1,27,28
 265 -62 265 -62 265 58 c 2,29,-1
 263 115 l 1,0,-1
EndSplineSet
EndChar

StartChar: arabicindicdigitnine
Encoding: 314 1641 58
Width: 1229
Flags: W
HStem: 369 193<542.031 652> 752 187<511.943 611.897>
LayerCount: 2
Fore
SplineSet
386 434 m 1,0,1
 268.309 546.574 268.309 546.574 431 794 c 0,2,3
 527 939 527 939 593.5 939 c 128,-1,4
 660 939 660 939 711 838.5 c 128,-1,5
 762 738 762 738 762 544 c 0,6,7
 762 320.25 762 320.25 848 180.5 c 2,8,-1
 875 138 l 1,9,-1
 892 119 l 1,10,-1
 893 111 l 2,11,12
 893 82 893 82 868 -6.5 c 128,-1,13
 843 -95 843 -95 841 -97 c 1,14,15
 817 -92 817 -92 755 52 c 2,16,-1
 732 115 l 1,17,-1
 710 185 l 2,18,19
 693.579 250.684 693.579 250.684 678 350 c 1,20,-1
 667 360 l 1,21,-1
 652 363 l 1,22,-1
 603 369 l 2,23,24
 548 369 548 369 491 378.5 c 128,-1,25
 434 388 434 388 387 434 c 1,26,-1
 386 434 l 1,0,1
458 642 m 1,27,28
 464 628 464 628 484.5 616.5 c 128,-1,29
 505 605 505 605 542 586 c 1,30,-1
 544 586 l 1,31,32
 613 562 613 562 631 562 c 2,33,-1
 633 562 l 1,34,35
 648.273 565.227 648.273 565.227 653 579 c 1,36,37
 633.184 732.578 633.184 732.578 554 752 c 1,38,-1
 550 752 l 2,39,40
 526.104 751.302 526.104 751.302 489 708 c 0,41,42
 458 665 458 665 458 642 c 1,27,28
EndSplineSet
EndChar

StartChar: arabicpercentsign
Encoding: 315 1642 59
Width: 1229
Flags: W
HStem: -7 179<687.5 854.5> 869 180<377.5 543.5>
VStem: 377.5 166<869 1049> 687.5 167<-7 172>
LayerCount: 2
Fore
SplineSet
362.5 8 m 1,0,-1
 773.5 1049 l 1,1,-1
 866.5 1049 l 1,2,-1
 455.5 8 l 1,3,-1
 362.5 8 l 1,0,-1
377.5 869 m 1,4,-1
 377.5 1049 l 1,5,-1
 543.5 1049 l 1,6,-1
 543.5 869 l 1,7,-1
 377.5 869 l 1,4,-1
687.5 -7 m 1,8,-1
 687.5 172 l 1,9,-1
 854.5 172 l 1,10,-1
 854.5 -7 l 1,11,-1
 687.5 -7 l 1,8,-1
EndSplineSet
EndChar

StartChar: arabicfivepointedstar
Encoding: 316 1645 60
Width: 1229
Flags: W
HStem: 770 680
LayerCount: 2
Fore
SplineSet
257.5 1190 m 1,0,-1
 528.5 1190 l 1,1,-1
 614.5 1450 l 1,2,-1
 700.5 1190 l 1,3,-1
 971.5 1190 l 1,4,-1
 753.5 1029 l 1,5,-1
 835.5 770 l 1,6,-1
 614.5 928 l 1,7,-1
 393.5 770 l 1,8,-1
 475.5 1029 l 1,9,-1
 257.5 1190 l 1,0,-1
EndSplineSet
EndChar

StartChar: extendedarabicindicdigitnine
Encoding: 317 1785 61
Width: 1229
Flags: W
HStem: 369 193<542.031 652> 752 187<511.943 611.897>
LayerCount: 2
Fore
SplineSet
386 434 m 1,0,1
 268.309 546.574 268.309 546.574 431 794 c 0,2,3
 527 939 527 939 593.5 939 c 128,-1,4
 660 939 660 939 711 838.5 c 128,-1,5
 762 738 762 738 762 544 c 0,6,7
 762 320.25 762 320.25 848 180.5 c 2,8,-1
 875 138 l 1,9,-1
 892 119 l 1,10,-1
 893 111 l 2,11,12
 893 82 893 82 868 -6.5 c 128,-1,13
 843 -95 843 -95 841 -97 c 1,14,15
 817 -92 817 -92 755 52 c 2,16,-1
 732 115 l 1,17,-1
 710 185 l 2,18,19
 693.579 250.684 693.579 250.684 678 350 c 1,20,-1
 667 360 l 1,21,-1
 652 363 l 1,22,-1
 603 369 l 2,23,24
 548 369 548 369 491 378.5 c 128,-1,25
 434 388 434 388 387 434 c 1,26,-1
 386 434 l 1,0,1
458 642 m 1,27,28
 464 628 464 628 484.5 616.5 c 128,-1,29
 505 605 505 605 542 586 c 1,30,-1
 544 586 l 1,31,32
 613 562 613 562 631 562 c 2,33,-1
 633 562 l 1,34,35
 648.273 565.227 648.273 565.227 653 579 c 1,36,37
 633.184 732.578 633.184 732.578 554 752 c 1,38,-1
 550 752 l 2,39,40
 526.104 751.302 526.104 751.302 489 708 c 0,41,42
 458 665 458 665 458 642 c 1,27,28
EndSplineSet
EndChar

StartChar: shaddawithdammatanisolated
Encoding: 318 64606 62
Width: 0
Flags: W
HStem: 1450 102<483.257 575.537> 1509.51 106.492<638.448 747.453> 1769 105<775.018 812.908> 1865 76<444.5 493.771> 1982 45<672.909 731.02>
VStem: 494.5 47<1793.29 1883> 604.5 68<1892.4 1979.99> 733.5 66<1902.44 1981.76>
LayerCount: 2
Fore
SplineSet
408.5 1865 m 1,0,1
 432.5 1941 432.5 1941 479.5 1941 c 0,2,3
 504.5 1941 504.5 1941 523 1919 c 128,-1,4
 541.5 1897 541.5 1897 541.5 1869 c 128,-1,5
 541.5 1841 541.5 1841 524.5 1792 c 1,6,7
 596.5 1800 596.5 1800 657.5 1837 c 1,8,9
 604.5 1873 604.5 1873 604.5 1912 c 128,-1,10
 604.5 1951 604.5 1951 647.5 1989 c 128,-1,11
 690.5 2027 690.5 2027 722 2027 c 128,-1,12
 753.5 2027 753.5 2027 776.5 2002 c 128,-1,13
 799.5 1977 799.5 1977 799.5 1951 c 128,-1,14
 799.5 1925 799.5 1925 774.5 1874 c 1,15,16
 820.5 1846 820.5 1846 820.5 1788 c 0,17,18
 820.5 1779 820.5 1779 813.5 1769 c 1,19,20
 789.5 1775 789.5 1775 719.5 1800 c 1,21,22
 586.5 1730 586.5 1730 528.5 1730 c 128,-1,23
 470.5 1730 470.5 1730 430.5 1743 c 1,24,25
 494.5 1777 494.5 1777 494.5 1818 c 0,26,27
 494.5 1872 494.5 1872 444.5 1872 c 1,28,29
 451.5 1872 451.5 1872 442.5 1870.5 c 2,30,-1
 408.5 1865 l 1,0,1
432.5 1554 m 0,31,32
 432.5 1583 432.5 1583 455.5 1650 c 1,33,-1
 475.5 1652 l 1,34,35
 479.5 1552 479.5 1552 525.5 1552 c 128,-1,36
 571.5 1552 571.5 1552 610.5 1687 c 1,37,-1
 629.5 1689 l 1,38,39
 645.5 1616 645.5 1616 695.5 1616 c 128,-1,40
 745.5 1616 745.5 1616 768.5 1726 c 1,41,-1
 788.5 1726 l 1,42,43
 793.5 1698.5 793.5 1698.5 793.5 1669.25 c 128,-1,44
 793.5 1640 793.5 1640 785.5 1609 c 128,-1,45
 777.5 1578 777.5 1578 763.5 1556 c 0,46,47
 733.591 1509 733.591 1509 699.288 1509.51 c 128,-1,48
 664.984 1510.02 664.984 1510.02 616.5 1534 c 1,49,50
 571.5 1450 571.5 1450 512.5 1450 c 0,51,52
 432.5 1450 432.5 1450 432.5 1554 c 0,31,32
672.5 1958 m 256,53,54
 672.5 1934 672.5 1934 719.5 1902 c 1,55,56
 733.5 1928 733.5 1928 733.5 1941 c 0,57,58
 733.5 1982 733.5 1982 703 1982 c 128,-1,59
 672.5 1982 672.5 1982 672.5 1958 c 256,53,54
EndSplineSet
LCarets2: 1 0 
Ligature2: "'liga' Standard Ligatures in Arabic lookup 7 subtable" shadda dammatan
EndChar

StartChar: shaddawithkasratanisolated
Encoding: 319 64607 63
Width: 0
Flags: W
HStem: 1707 102<488.778 577.739> 1772 107<645.755 735.848>
VStem: 754.5 23<1976.04 2026>
LayerCount: 2
Fore
SplineSet
437.5 1815 m 0,0,1
 437.5 1840 437.5 1840 459.5 1916 c 1,2,-1
 482.5 1920 l 1,3,4
 482.5 1809 482.5 1809 521.5 1809 c 0,5,6
 585.5 1809 585.5 1809 611.5 1971 c 1,7,-1
 629.5 1977 l 1,8,9
 652.5 1879 652.5 1879 687.5 1879 c 0,10,11
 745.5 1879 745.5 1879 754.5 2026 c 1,12,-1
 777.5 2036 l 1,13,14
 791.5 1975 791.5 1975 791.5 1940 c 0,15,16
 791.5 1772 791.5 1772 687.5 1772 c 0,17,18
 651.5 1772 651.5 1772 623.5 1793 c 1,19,20
 615.5 1758 615.5 1758 584 1732.5 c 128,-1,21
 552.5 1707 552.5 1707 519.5 1707 c 0,22,23
 437.5 1707 437.5 1707 437.5 1815 c 0,0,1
441.5 1450 m 1,24,25
 461.5 1520 461.5 1520 513.5 1542 c 2,26,-1
 783.5 1656 l 1,27,28
 768.5 1594 768.5 1594 717.5 1572 c 2,29,-1
 441.5 1450 l 1,24,25
441.5 1560 m 1,30,31
 469.5 1633 469.5 1633 527.5 1659 c 2,32,-1
 783.5 1773 l 1,33,34
 768.5 1707 768.5 1707 724.5 1687 c 2,35,-1
 441.5 1560 l 1,30,31
EndSplineSet
LCarets2: 1 0 
Ligature2: "'liga' Standard Ligatures in Arabic lookup 7 subtable" shadda kasratan
EndChar

StartChar: shaddawithfathaisolated
Encoding: 320 64608 64
Width: 0
Flags: W
HStem: 1450 100<479.564 581.316> 1511.6 104.397<647.544 743.913>
VStem: 758.5 27<1677.19 1738>
LayerCount: 2
Fore
SplineSet
437.5 1548 m 2,0,-1
 443.5 1609 l 1,1,-1
 472.5 1628 l 1,2,3
 482.5 1550 482.5 1550 525.5 1550 c 0,4,5
 580.5 1550 580.5 1550 613.5 1683 c 1,6,-1
 635.5 1689 l 1,7,8
 660.5 1616 660.5 1616 693.5 1616 c 0,9,10
 750.5 1616 750.5 1616 758.5 1738 c 1,11,-1
 785.5 1747 l 1,12,13
 791.5 1714 791.5 1714 791.5 1676 c 128,-1,14
 791.5 1638 791.5 1638 783.5 1608.5 c 128,-1,15
 775.5 1579 775.5 1579 761.5 1557 c 128,-1,16
 747.5 1535 747.5 1535 728 1523 c 128,-1,17
 708.5 1511 708.5 1511 686.328 1511.6 c 128,-1,18
 664.156 1512.21 664.156 1512.21 619.5 1536 c 1,19,20
 581.5 1450 581.5 1450 515.5 1450 c 0,21,22
 437.5 1450 437.5 1450 437.5 1548 c 2,0,-1
441.5 1653 m 1,23,24
 468.5 1722 468.5 1722 527.5 1745 c 2,25,-1
 785.5 1845 l 1,26,27
 775.5 1784 775.5 1784 736.5 1769 c 2,28,-1
 441.5 1653 l 1,23,24
EndSplineSet
LCarets2: 1 0 
Ligature2: "'liga' Standard Ligatures in Arabic lookup 7 subtable" shadda fatha
EndChar

StartChar: shaddawithdammaisolated
Encoding: 321 64609 65
Width: 0
Flags: W
HStem: 1450 102<480.594 576.182> 1505 105<639.336 747.198> 1976 43<659.02 721.163>
VStem: 431.5 43<1563.53 1630.75> 597.5 61<1871.25 1970.03> 726.5 65<1884.8 1974.98> 767.5 24<1676.04 1714>
LayerCount: 2
Fore
SplineSet
431.5 1548 m 0,0,1
 431.5 1592 431.5 1592 453.5 1632 c 1,2,-1
 474.5 1634 l 1,3,4
 480.5 1552 480.5 1552 521.5 1552 c 0,5,6
 567.5 1552 567.5 1552 609.5 1671 c 1,7,-1
 633.5 1677 l 1,8,9
 645.5 1610 645.5 1610 687.5 1610 c 0,10,11
 743.5 1610 743.5 1610 767.5 1714 c 1,12,-1
 791.5 1720 l 1,13,14
 791.5 1505 791.5 1505 683.5 1505 c 0,15,16
 641.5 1505 641.5 1505 613.5 1530 c 1,17,18
 581.5 1450 581.5 1450 509.5 1450 c 0,19,20
 431.5 1450 431.5 1450 431.5 1548 c 0,0,1
437.5 1714 m 1,21,22
 576.283 1760.26 576.283 1760.26 646.5 1812 c 1,23,24
 597.5 1849 597.5 1849 597.5 1893.5 c 128,-1,25
 597.5 1938 597.5 1938 635.5 1979 c 0,26,27
 674.5 2019 674.5 2019 707 2019 c 128,-1,28
 739.5 2019 739.5 2019 765.5 1995.5 c 128,-1,29
 791.5 1972 791.5 1972 791.5 1939.5 c 128,-1,30
 791.5 1907 791.5 1907 755.5 1864 c 1,31,32
 774.3 1854.6 774.3 1854.6 785.9 1844.8 c 128,-1,33
 797.5 1835 797.5 1835 797.5 1800 c 2,34,-1
 797.5 1763 l 1,35,36
 754.5 1769 754.5 1769 687.5 1792 c 1,37,38
 565.5 1694 565.5 1694 502.5 1694 c 0,39,40
 480.5 1694 480.5 1694 437.5 1714 c 1,21,22
658.5 1949 m 128,-1,42
 658.5 1922 658.5 1922 717.5 1884 c 1,43,44
 726.5 1908 726.5 1908 726.5 1927 c 0,45,46
 726.5 1976 726.5 1976 683.5 1976 c 0,47,41
 658.5 1976 658.5 1976 658.5 1949 c 128,-1,42
EndSplineSet
LCarets2: 1 0 
Ligature2: "'liga' Standard Ligatures in Arabic lookup 7 subtable" shadda damma
EndChar

StartChar: shaddawithkasraisolated
Encoding: 322 64610 66
Width: 0
Flags: W
HStem: 1597 102<488.778 577.739> 1662 107<645.755 735.848>
VStem: 754.5 23<1866.04 1916>
LayerCount: 2
Fore
SplineSet
437.5 1705 m 0,0,1
 437.5 1730 437.5 1730 459.5 1806 c 1,2,-1
 482.5 1810 l 1,3,4
 482.5 1699 482.5 1699 521.5 1699 c 0,5,6
 585.5 1699 585.5 1699 611.5 1861 c 1,7,-1
 629.5 1867 l 1,8,9
 652.5 1769 652.5 1769 687.5 1769 c 0,10,11
 745.5 1769 745.5 1769 754.5 1916 c 1,12,-1
 777.5 1926 l 1,13,14
 791.5 1865 791.5 1865 791.5 1830 c 0,15,16
 791.5 1662 791.5 1662 687.5 1662 c 0,17,18
 651.5 1662 651.5 1662 623.5 1683 c 1,19,20
 615.5 1648 615.5 1648 584 1622.5 c 128,-1,21
 552.5 1597 552.5 1597 519.5 1597 c 0,22,23
 437.5 1597 437.5 1597 437.5 1705 c 0,0,1
441.5 1450 m 1,24,25
 469.5 1523 469.5 1523 527.5 1549 c 2,26,-1
 783.5 1663 l 1,27,28
 768.5 1597 768.5 1597 724.5 1577 c 2,29,-1
 441.5 1450 l 1,24,25
EndSplineSet
LCarets2: 1 0 
Ligature2: "'liga' Standard Ligatures in Arabic lookup 7 subtable" shadda kasra
EndChar

StartChar: shaddawithfathamedial
Encoding: 323 64754 67
Width: 1229
Flags: W
HStem: 131 121<0 1229> 1030 102<453.778 542.739> 1095 107<610.755 700.848>
VStem: 719.5 23<1299.04 1349>
LayerCount: 2
Fore
SplineSet
0 131 m 5,0,-1
 0 252 l 5,1,-1
 1229 252 l 5,2,-1
 1229 131 l 5,3,-1
 0 131 l 5,0,-1
402.5 1138 m 0,4,5
 402.5 1163 402.5 1163 424.5 1239 c 1,6,-1
 447.5 1243 l 1,7,8
 447.5 1132 447.5 1132 486.5 1132 c 0,9,10
 550.5 1132 550.5 1132 576.5 1294 c 1,11,-1
 594.5 1300 l 1,12,13
 617.5 1202 617.5 1202 652.5 1202 c 0,14,15
 710.5 1202 710.5 1202 719.5 1349 c 1,16,-1
 742.5 1359 l 1,17,18
 756.5 1298 756.5 1298 756.5 1263 c 0,19,20
 756.5 1095 756.5 1095 652.5 1095 c 0,21,22
 616.5 1095 616.5 1095 588.5 1116 c 1,23,24
 580.5 1081 580.5 1081 549 1055.5 c 128,-1,25
 517.5 1030 517.5 1030 484.5 1030 c 0,26,27
 402.5 1030 402.5 1030 402.5 1138 c 0,4,5
406.5 1294 m 1,28,29
 409.5 1332 409.5 1332 420.5 1353 c 0,30,31
 432.5 1373 432.5 1373 472.5 1395 c 2,32,-1
 744.5 1552 l 1,33,34
 744.5 1486 744.5 1486 709.5 1466 c 2,35,-1
 406.5 1294 l 1,28,29
EndSplineSet
LCarets2: 2 0 0 
Ligature2: "'liga' Standard Ligatures in Arabic lookup 6 subtable" tatweel shadda fatha
EndChar

StartChar: shaddawithdammamedial
Encoding: 324 64755 68
Width: 1229
Flags: W
HStem: 131 121<0 1229> 1030 102<453.778 542.739> 1095 107<610.755 700.848> 1652 86<609.845 677.429>
VStem: 558.5 51<1551.25 1651.2> 680.5 62<1557.41 1694> 719.5 23<1299.04 1349>
LayerCount: 2
Fore
SplineSet
0 131 m 5,0,-1
 0 252 l 5,1,-1
 1229 252 l 5,2,-1
 1229 131 l 5,3,-1
 0 131 l 5,0,-1
402.5 1138 m 0,4,5
 402.5 1163 402.5 1163 424.5 1239 c 1,6,-1
 447.5 1243 l 1,7,8
 447.5 1132 447.5 1132 486.5 1132 c 0,9,10
 550.5 1132 550.5 1132 576.5 1294 c 1,11,-1
 594.5 1300 l 1,12,13
 617.5 1202 617.5 1202 652.5 1202 c 0,14,15
 710.5 1202 710.5 1202 719.5 1349 c 1,16,-1
 742.5 1359 l 1,17,18
 756.5 1298 756.5 1298 756.5 1263 c 0,19,20
 756.5 1095 756.5 1095 652.5 1095 c 0,21,22
 616.5 1095 616.5 1095 588.5 1116 c 1,23,24
 580.5 1081 580.5 1081 549 1055.5 c 128,-1,25
 517.5 1030 517.5 1030 484.5 1030 c 0,26,27
 402.5 1030 402.5 1030 402.5 1138 c 0,4,5
406.5 1324 m 1,28,29
 508.5 1381 508.5 1381 619.5 1480 c 1,30,31
 558.5 1525 558.5 1525 558.5 1577.5 c 128,-1,32
 558.5 1630 558.5 1630 596 1684 c 128,-1,33
 633.5 1738 633.5 1738 674.5 1738 c 0,34,35
 742.5 1738 742.5 1738 742.5 1650 c 0,36,37
 742.5 1599 742.5 1599 711.5 1533 c 1,38,39
 724.5 1522 724.5 1522 750.5 1503 c 1,40,-1
 742.5 1404 l 1,41,-1
 662.5 1456 l 1,42,43
 542.5 1312 542.5 1312 465.5 1312 c 0,44,45
 446.5 1312 446.5 1312 406.5 1324 c 1,28,29
609.5 1626.5 m 128,-1,47
 609.5 1601 609.5 1601 674.5 1557 c 1,48,49
 680.5 1576 680.5 1576 680.5 1595 c 128,-1,50
 680.5 1614 680.5 1614 664.5 1633 c 128,-1,51
 648.5 1652 648.5 1652 629 1652 c 128,-1,46
 609.5 1652 609.5 1652 609.5 1626.5 c 128,-1,47
EndSplineSet
LCarets2: 2 0 0 
Ligature2: "'liga' Standard Ligatures in Arabic lookup 6 subtable" tatweel shadda damma
EndChar

StartChar: shaddawithkasramedial
Encoding: 325 64756 69
Width: 1229
Flags: W
HStem: 131 121<0 1229> 1258 102<453.778 542.739> 1323 107<610.755 700.848>
VStem: 719.5 23<1527.04 1577>
LayerCount: 2
Fore
SplineSet
0 131 m 5,0,-1
 0 252 l 5,1,-1
 1229 252 l 5,2,-1
 1229 131 l 5,3,-1
 0 131 l 5,0,-1
402.5 1366 m 0,4,5
 402.5 1391 402.5 1391 424.5 1467 c 1,6,-1
 447.5 1471 l 1,7,8
 447.5 1360 447.5 1360 486.5 1360 c 0,9,10
 550.5 1360 550.5 1360 576.5 1522 c 1,11,-1
 594.5 1528 l 1,12,13
 617.5 1430 617.5 1430 652.5 1430 c 0,14,15
 710.5 1430 710.5 1430 719.5 1577 c 1,16,-1
 742.5 1587 l 1,17,18
 756.5 1526 756.5 1526 756.5 1491 c 0,19,20
 756.5 1323 756.5 1323 652.5 1323 c 0,21,22
 616.5 1323 616.5 1323 588.5 1344 c 1,23,24
 580.5 1309 580.5 1309 549 1283.5 c 128,-1,25
 517.5 1258 517.5 1258 484.5 1258 c 0,26,27
 402.5 1258 402.5 1258 402.5 1366 c 0,4,5
406.5 1030 m 1,28,29
 409.5 1068 409.5 1068 420.5 1089 c 0,30,31
 432.5 1109 432.5 1109 472.5 1131 c 2,32,-1
 744.5 1288 l 1,33,34
 744.5 1222 744.5 1222 709.5 1202 c 2,35,-1
 406.5 1030 l 1,28,29
EndSplineSet
LCarets2: 2 0 0 
Ligature2: "'liga' Standard Ligatures in Arabic lookup 6 subtable" tatweel shadda kasra
EndChar

StartChar: ornateleftparenthesis
Encoding: 326 64830 70
Width: 1229
Flags: W
HStem: 23 45<426.11 564.648> 154 73<263.131 314.589> 158 135<548.652 648.265> 547 135<551.602 645.135> 602 74<256.196 295.516 881.441 936.992> 768 47<411.778 558.331 754.5 777.938>
VStem: 104.5 56<382.065 443.87> 336.5 75<76.9355 86 743 760.062> 342.5 129<373.789 468.58> 729.5 129<371.513 465.709> 792.5 72<73.551 90 733.929 764.452> 946.5 47<238.227 340.406> 1038.5 55<396.662 457.316>
LayerCount: 2
Fore
SplineSet
104.5 412 m 0,0,1
 104.5 458 104.5 458 209.5 520 c 1,2,3
 220.5 676 220.5 676 258.5 676 c 1,4,5
 411.5 532 411.5 532 485.5 532 c 1,6,7
 478.5 609 478.5 609 407.5 678 c 128,-1,8
 336.5 747 336.5 747 336.5 756 c 0,9,10
 336.5 772 336.5 772 401.5 792 c 128,-1,11
 466.5 812 466.5 812 551.5 815 c 1,12,13
 623.5 1032 623.5 1032 732.5 1184 c 128,-1,14
 841.5 1336 841.5 1336 939.5 1413.5 c 128,-1,15
 1037.5 1491 1037.5 1491 1065.5 1491 c 128,-1,16
 1093.5 1491 1093.5 1491 1093.5 1468 c 0,17,18
 1093.5 1458 1093.5 1458 1012 1367 c 0,19,20
 803.956 1134.71 803.956 1134.71 754.5 805 c 1,21,22
 854.5 789 854.5 789 854.5 760 c 1,23,24
 713.5 618 713.5 618 713.5 539 c 1,25,26
 785.5 539 785.5 539 928.5 686 c 1,27,28
 946.5 686 946.5 686 965.5 633 c 128,-1,29
 984.5 580 984.5 580 987.5 522 c 1,30,31
 1093.5 467 1093.5 467 1093.5 422 c 0,32,33
 1093.5 385 1093.5 385 993.5 326 c 1,34,35
 985.5 166 985.5 166 938.5 166 c 1,36,-1
 870.5 231 l 2,37,38
 801.5 299 801.5 299 717.5 307 c 1,39,40
 717.5 236 717.5 236 791 164 c 128,-1,41
 864.5 92 864.5 92 864.5 80 c 0,42,43
 864.5 57 864.5 57 756.5 35 c 1,44,45
 788.5 -128 788.5 -128 887 -301.5 c 128,-1,46
 985.5 -475 985.5 -475 1104.5 -578 c 0,47,48
 1124.5 -595 1124.5 -595 1124.5 -611 c 128,-1,49
 1124.5 -627 1124.5 -627 1100.5 -627 c 0,50,51
 1024.5 -627 1024.5 -627 871.5 -476 c 0,52,53
 670.5 -280 670.5 -280 557.5 23 c 1,54,55
 348.5 26 348.5 26 348.5 78 c 1,56,57
 485.5 222 485.5 222 485.5 301 c 1,58,59
 423.5 301 423.5 301 352 227.5 c 128,-1,60
 280.5 154 280.5 154 270.5 154 c 0,61,62
 232.5 154 232.5 154 215.5 317 c 1,63,64
 104.5 371 104.5 371 104.5 412 c 0,0,1
160.5 410 m 128,-1,66
 160.5 387 160.5 387 252.5 354 c 1,67,68
 263.5 227 263.5 227 274 227 c 128,-1,69
 284.5 227 284.5 227 334 277.5 c 128,-1,70
 383.5 328 383.5 328 436.5 348 c 1,71,72
 342.5 390 342.5 390 342.5 423 c 128,-1,73
 342.5 456 342.5 456 434.5 489 c 1,74,75
 407.5 498 407.5 498 357 550 c 128,-1,76
 306.5 602 306.5 602 270.5 602 c 0,77,78
 252.5 602 252.5 602 252.5 485 c 1,79,65
 160.5 433 160.5 433 160.5 410 c 128,-1,66
411.5 743 m 1,80,-1
 450.5 705 l 2,81,82
 498.5 660 498.5 660 528.5 600 c 1,83,84
 573.5 682 573.5 682 602.5 682 c 0,85,86
 621.5 682 621.5 682 667.5 600 c 1,87,88
 677.5 624 677.5 624 729 670 c 128,-1,89
 780.5 716 780.5 716 780.5 750 c 0,90,91
 780.5 760 780.5 760 750.5 766 c 2,92,-1
 704.5 774 l 1,93,94
 763.5 1018 763.5 1018 812.5 1132.5 c 128,-1,95
 861.5 1247 861.5 1247 1005.5 1417 c 1,96,97
 727.5 1229 727.5 1229 577.5 768 c 1,98,99
 456.5 762 456.5 762 434 758.5 c 128,-1,100
 411.5 755 411.5 755 411.5 743 c 1,80,-1
422.5 86 m 1,101,102
 422.5 78 422.5 78 514.5 68 c 0,103,104
 539.5 68 539.5 68 584.5 72 c 1,105,106
 721.5 -359 721.5 -359 1050.5 -571 c 1,107,108
 937.5 -469 937.5 -469 840.5 -299.5 c 128,-1,109
 743.5 -130 743.5 -130 713.5 68 c 1,110,111
 792.5 75 792.5 75 792.5 90 c 1,112,-1
 749.5 131 l 2,113,114
 698.5 178 698.5 178 667.5 240 c 1,115,116
 630.5 158 630.5 158 600.5 158 c 0,117,118
 560.5 158 560.5 158 532.5 240 c 1,119,120
 504.5 173 504.5 173 459.5 127 c 2,121,-1
 422.5 86 l 1,101,102
471.5 418.5 m 128,-1,123
 471.5 366 471.5 366 509 329.5 c 128,-1,124
 546.5 293 546.5 293 600 293 c 128,-1,125
 653.5 293 653.5 293 691.5 329.5 c 128,-1,126
 729.5 366 729.5 366 729.5 418.5 c 128,-1,127
 729.5 471 729.5 471 691.5 509 c 128,-1,128
 653.5 547 653.5 547 600 547 c 128,-1,129
 546.5 547 546.5 547 509 509 c 128,-1,122
 471.5 471 471.5 471 471.5 418.5 c 128,-1,123
762.5 492 m 1,130,131
 858.5 450 858.5 450 858.5 417.5 c 128,-1,132
 858.5 385 858.5 385 766.5 350 c 1,133,134
 832.5 328 832.5 328 883.5 280 c 2,135,-1
 928.5 238 l 1,136,137
 946.5 238 946.5 238 946.5 354 c 1,138,139
 1038.5 406 1038.5 406 1038.5 430 c 128,-1,140
 1038.5 454 1038.5 454 946.5 485 c 1,141,142
 935.5 612 935.5 612 921.5 612 c 0,143,144
 913.5 612 913.5 612 864.5 562 c 128,-1,145
 815.5 512 815.5 512 762.5 492 c 1,130,131
EndSplineSet
EndChar

StartChar: ornaterightparenthesis
Encoding: 327 64831 71
Width: 1229
Flags: W
HStem: 59 39<449.353 475.5 676.241 816.137> 178 74<293.802 335.922 943.498 972.138> 182 135<584.326 678.662> 571 136<581.594 681.409> 637 74<288.66 291.5 914.837 966.551> 797 45<665.352 803.89>
VStem: 135.5 55<406.918 467.602> 364.5 72<100.543 115 774 791.124> 371.5 129<398.323 493.639> 758.5 129<395.42 490.211> 817.5 76<103.89 121 778 787.644> 1069.5 55<422.107 480.814>
LayerCount: 2
Fore
SplineSet
104.5 1475.5 m 128,-1,1
 104.5 1491 104.5 1491 129.5 1491 c 0,2,3
 205.5 1491 205.5 1491 358.5 1341 c 0,4,5
 559.5 1144 559.5 1144 672.5 842 c 1,6,7
 881.5 839 881.5 839 881.5 786 c 1,8,9
 743.5 642 743.5 642 743.5 563 c 1,10,11
 805.5 563 805.5 563 877.5 637 c 128,-1,12
 949.5 711 949.5 711 958.5 711 c 0,13,14
 996.5 711 996.5 711 1014.5 547 c 1,15,16
 1124.5 493 1124.5 493 1124.5 453 c 0,17,18
 1124.5 405 1124.5 405 1020.5 344 c 1,19,20
 1009.5 188 1009.5 188 971.5 188 c 1,21,22
 818.5 332 818.5 332 743.5 332 c 1,23,24
 751.5 255 751.5 255 822.5 186.5 c 128,-1,25
 893.5 118 893.5 118 893.5 109 c 0,26,27
 893.5 93 893.5 93 828.5 72.5 c 128,-1,28
 763.5 52 763.5 52 678.5 49 c 1,29,30
 606.5 -168 606.5 -168 497.5 -320 c 128,-1,31
 388.5 -472 388.5 -472 290.5 -549.5 c 128,-1,32
 192.5 -627 192.5 -627 164 -627 c 128,-1,33
 135.5 -627 135.5 -627 135.5 -606 c 0,34,35
 135.5 -596 135.5 -596 217 -504 c 128,-1,36
 298.5 -412 298.5 -412 371.5 -277 c 128,-1,37
 444.5 -142 444.5 -142 475.5 59 c 1,38,39
 375.5 76 375.5 76 375.5 104 c 1,40,41
 516.5 247 516.5 247 516.5 326 c 1,42,43
 443.5 326 443.5 326 301.5 178 c 1,44,45
 282.5 178 282.5 178 264 230.5 c 128,-1,46
 245.5 283 245.5 283 242.5 342 c 1,47,48
 135.5 398 135.5 398 135.5 442 c 0,49,50
 135.5 480 135.5 480 235.5 539 c 1,51,52
 245.5 698 245.5 698 291.5 698 c 1,53,-1
 359.5 633 l 2,54,55
 428.5 565 428.5 565 512.5 557 c 1,56,57
 512.5 629 512.5 629 438.5 701 c 128,-1,58
 364.5 773 364.5 773 364.5 784 c 0,59,60
 364.5 807 364.5 807 473.5 829 c 1,61,62
 441.5 993 441.5 993 343 1166 c 128,-1,63
 244.5 1339 244.5 1339 125.5 1442 c 0,64,0
 104.5 1460 104.5 1460 104.5 1475.5 c 128,-1,1
178.5 1436 m 1,65,66
 292.5 1331 292.5 1331 389.5 1162 c 128,-1,67
 486.5 993 486.5 993 516.5 797 c 1,68,69
 436.5 790 436.5 790 436.5 774 c 1,70,-1
 479.5 733 l 2,71,72
 531.5 687 531.5 687 561.5 625 c 1,73,74
 600.5 707 600.5 707 629.5 707 c 0,75,76
 669.5 707 669.5 707 696.5 625 c 1,77,78
 724.5 691 724.5 691 769.5 737 c 2,79,-1
 807.5 778 l 1,80,81
 807.5 787 807.5 787 715.5 797 c 0,82,83
 690.5 797 690.5 797 645.5 793 c 1,84,85
 505.5 1223 505.5 1223 178.5 1436 c 1,65,66
190.5 434 m 128,-1,87
 190.5 410 190.5 410 283.5 379 c 1,88,89
 294.5 252 294.5 252 305 252 c 128,-1,90
 315.5 252 315.5 252 365 302.5 c 128,-1,91
 414.5 353 414.5 353 467.5 373 c 1,92,93
 371.5 413 371.5 413 371.5 447 c 128,-1,94
 371.5 481 371.5 481 463.5 514 c 1,95,96
 396.5 536 396.5 536 345.5 584 c 2,97,-1
 301.5 627 l 1,98,99
 283.5 627 283.5 627 283.5 510 c 1,100,86
 190.5 458 190.5 458 190.5 434 c 128,-1,87
223.5 -553 m 1,101,102
 503.5 -364 503.5 -364 651.5 96 c 1,103,104
 772.5 102 772.5 102 795 105.5 c 128,-1,105
 817.5 109 817.5 109 817.5 121 c 1,106,-1
 778.5 160 l 2,107,108
 731.5 204 731.5 204 700.5 264 c 1,109,110
 657.5 182 657.5 182 627.5 182 c 0,111,112
 607.5 182 607.5 182 561.5 264 c 1,113,114
 539.5 209 539.5 209 491.5 160 c 2,115,-1
 448.5 115 l 1,116,117
 448.5 105 448.5 105 479.5 98 c 2,118,-1
 524.5 90 l 1,119,120
 467.5 -153 467.5 -153 418 -267.5 c 128,-1,121
 368.5 -382 368.5 -382 223.5 -553 c 1,101,102
500.5 445.5 m 128,-1,123
 500.5 393 500.5 393 538.5 355 c 128,-1,124
 576.5 317 576.5 317 629.5 317 c 256,125,126
 682.5 317 682.5 317 720.5 355 c 128,-1,127
 758.5 393 758.5 393 758.5 445.5 c 128,-1,128
 758.5 498 758.5 498 720.5 534.5 c 128,-1,129
 682.5 571 682.5 571 629.5 571 c 256,130,131
 576.5 571 576.5 571 538.5 534.5 c 128,-1,122
 500.5 498 500.5 498 500.5 445.5 c 128,-1,123
793.5 516 m 1,132,133
 887.5 474 887.5 474 887.5 441 c 128,-1,134
 887.5 408 887.5 408 795.5 375 c 1,135,136
 822.5 366 822.5 366 872.5 314 c 128,-1,137
 922.5 262 922.5 262 958.5 262 c 0,138,139
 977.5 262 977.5 262 977.5 379 c 1,140,141
 1069.5 433 1069.5 433 1069.5 454.5 c 128,-1,142
 1069.5 476 1069.5 476 977.5 510 c 1,143,144
 966.5 637 966.5 637 952.5 637 c 0,145,146
 944.5 637 944.5 637 895.5 586.5 c 128,-1,147
 846.5 536 846.5 536 793.5 516 c 1,132,133
EndSplineSet
EndChar

StartChar: fathatanisolated
Encoding: 329 65136 72
Width: 0
Flags: W
VStem: 445.5 338
LayerCount: 2
Fore
SplineSet
445.5 1650 m 1,0,1
 448.5 1688 448.5 1688 459.5 1709 c 0,2,3
 471.5 1729 471.5 1729 511.5 1751 c 2,4,-1
 783.5 1908 l 1,5,6
 783.5 1842 783.5 1842 748.5 1822 c 2,7,-1
 445.5 1650 l 1,0,1
445.5 1796 m 1,8,9
 448.5 1834 448.5 1834 459.5 1855 c 0,10,11
 471.5 1875 471.5 1875 511.5 1897 c 2,12,-1
 783.5 2054 l 1,13,14
 783.5 1988 783.5 1988 748.5 1968 c 2,15,-1
 445.5 1796 l 1,8,9
EndSplineSet
EndChar

StartChar: tatweelwithfathatanabove
Encoding: 330 65137 73
Width: 1229
Flags: W
HStem: 131 121<0 1229>
LayerCount: 2
Fore
SplineSet
0 131 m 1,0,-1
 0 252 l 1,1,-1
 1229 252 l 1,2,-1
 1229 131 l 1,3,-1
 0 131 l 1,0,-1
410.5 1030 m 1,4,5
 413.5 1068 413.5 1068 424.5 1089 c 0,6,7
 436.5 1109 436.5 1109 476.5 1131 c 2,8,-1
 748.5 1288 l 1,9,10
 748.5 1222 748.5 1222 713.5 1202 c 2,11,-1
 410.5 1030 l 1,4,5
410.5 1176 m 1,12,13
 413.5 1214 413.5 1214 424.5 1235 c 0,14,15
 436.5 1255 436.5 1255 476.5 1277 c 2,16,-1
 748.5 1434 l 1,17,18
 748.5 1368 748.5 1368 713.5 1348 c 2,19,-1
 410.5 1176 l 1,12,13
EndSplineSet
LCarets2: 1 0 
Ligature2: "'liga' Standard Ligatures in Arabic lookup 6 subtable" tatweel fathatan
EndChar

StartChar: dammatanisolated
Encoding: 331 65138 74
Width: 0
Flags: W
HStem: 1621 86<448.578 522.002> 1779 67<671.26 735.979>
VStem: 415 10<1545.9 1574.61> 523 43<1515.75 1613.15> 618 53<1674 1778.6> 738 70<1687.14 1778.65>
LayerCount: 2
Fore
SplineSet
415 1597 m 256,0,1
 415 1669.6 415 1669.6 466 1698.5 c 0,2,3
 481 1707 481 1707 499 1707 c 0,4,5
 566 1707 566 1707 566 1607 c 2,6,-1
 560 1515 l 1,7,8
 625 1540 625 1540 684 1605 c 1,9,10
 618 1648 618 1648 618 1700 c 128,-1,11
 618 1752 618 1752 658 1799 c 128,-1,12
 698 1846 698 1846 730 1846 c 128,-1,13
 762 1846 762 1846 785 1819.5 c 128,-1,14
 808 1793 808 1793 808 1764.5 c 128,-1,15
 808 1736 808 1736 797 1708 c 2,16,-1
 775 1652 l 1,17,18
 814 1622 814 1622 814 1593.5 c 0,19,20
 814 1547 814 1547 812 1523 c 1,21,22
 766.468 1548.04 766.468 1548.04 720 1582 c 1,23,24
 594 1453 594 1453 480 1437 c 1,25,26
 523 1526 523 1526 523 1566 c 0,27,28
 523 1621 523 1621 474 1621 c 0,29,30
 432 1621 432 1621 425 1545 c 1,31,32
 415 1574 415 1574 415 1597 c 256,0,1
671 1754.5 m 128,-1,34
 671 1730 671 1730 734 1687 c 1,35,36
 738 1696 738 1696 738 1726 c 0,37,38
 738 1779 738 1779 697 1779 c 0,39,33
 671 1779 671 1779 671 1754.5 c 128,-1,34
EndSplineSet
EndChar

StartChar: kasratanisolated
Encoding: 332 65140 75
Width: 0
Flags: W
VStem: 445.5 338
LayerCount: 2
Fore
SplineSet
445.5 -878 m 1,0,1
 448.5 -840 448.5 -840 459.5 -818 c 1,2,3
 472.5 -800 472.5 -800 511.5 -777 c 2,4,-1
 783.5 -620 l 1,5,6
 783.5 -686 783.5 -686 748.5 -706 c 2,7,-1
 445.5 -878 l 1,0,1
445.5 -1025 m 1,8,9
 448.5 -987 448.5 -987 459.5 -965 c 1,10,11
 472.5 -947 472.5 -947 511.5 -924 c 2,12,-1
 783.5 -767 l 1,13,14
 783.5 -833 783.5 -833 748.5 -853 c 2,15,-1
 445.5 -1025 l 1,8,9
EndSplineSet
EndChar

StartChar: fathaisolated
Encoding: 333 65142 76
Width: 0
Flags: W
VStem: 445.5 338
LayerCount: 2
Fore
SplineSet
445.5 1450 m 1,0,1
 448.5 1488 448.5 1488 459.5 1509 c 0,2,3
 471.5 1529 471.5 1529 511.5 1551 c 2,4,-1
 783.5 1708 l 1,5,6
 783.5 1642 783.5 1642 748.5 1622 c 2,7,-1
 445.5 1450 l 1,0,1
EndSplineSet
EndChar

StartChar: fathamedial
Encoding: 334 65143 77
Width: 1229
Flags: W
HStem: 131 121<0 1229>
LayerCount: 2
Fore
SplineSet
0 131 m 5,0,-1
 0 252 l 5,1,-1
 1229 252 l 5,2,-1
 1229 131 l 5,3,-1
 0 131 l 5,0,-1
410.5 1030 m 1,4,5
 413.5 1068 413.5 1068 424.5 1089 c 0,6,7
 436.5 1109 436.5 1109 476.5 1131 c 2,8,-1
 748.5 1288 l 1,9,10
 748.5 1222 748.5 1222 713.5 1202 c 2,11,-1
 410.5 1030 l 1,4,5
EndSplineSet
LCarets2: 1 0 
Ligature2: "'liga' Standard Ligatures in Arabic lookup 6 subtable" tatweel fatha
EndChar

StartChar: dammaisolated
Encoding: 335 65144 78
Width: 0
Flags: W
HStem: 1790 86<645.845 713.429>
VStem: 594.5 51<1689.25 1789.2> 716.5 62<1695.41 1832>
LayerCount: 2
Fore
SplineSet
442.5 1462 m 1,0,1
 544.5 1519 544.5 1519 655.5 1618 c 1,2,3
 594.5 1663 594.5 1663 594.5 1715.5 c 128,-1,4
 594.5 1768 594.5 1768 632 1822 c 128,-1,5
 669.5 1876 669.5 1876 710.5 1876 c 0,6,7
 778.5 1876 778.5 1876 778.5 1788 c 0,8,9
 778.5 1737 778.5 1737 747.5 1671 c 1,10,11
 760.5 1660 760.5 1660 786.5 1641 c 1,12,-1
 778.5 1542 l 1,13,-1
 698.5 1594 l 1,14,15
 578.5 1450 578.5 1450 501.5 1450 c 0,16,17
 482.5 1450 482.5 1450 442.5 1462 c 1,0,1
645.5 1764.5 m 128,-1,19
 645.5 1739 645.5 1739 710.5 1695 c 1,20,21
 716.5 1714 716.5 1714 716.5 1733 c 128,-1,22
 716.5 1752 716.5 1752 700.5 1771 c 128,-1,23
 684.5 1790 684.5 1790 665 1790 c 128,-1,18
 645.5 1790 645.5 1790 645.5 1764.5 c 128,-1,19
EndSplineSet
EndChar

StartChar: dammamedial
Encoding: 336 65145 79
Width: 1229
Flags: W
HStem: 131 121<0 1229> 1370 86<610.845 678.429>
VStem: 559.5 51<1269.25 1369.2> 681.5 62<1275.41 1412>
LayerCount: 2
Fore
SplineSet
0 131 m 5,0,-1
 0 252 l 5,1,-1
 1229 252 l 5,2,-1
 1229 131 l 5,3,-1
 0 131 l 5,0,-1
407.5 1042 m 1,4,5
 509.5 1099 509.5 1099 620.5 1198 c 1,6,7
 559.5 1243 559.5 1243 559.5 1295.5 c 128,-1,8
 559.5 1348 559.5 1348 597 1402 c 128,-1,9
 634.5 1456 634.5 1456 675.5 1456 c 0,10,11
 743.5 1456 743.5 1456 743.5 1368 c 0,12,13
 743.5 1317 743.5 1317 712.5 1251 c 1,14,15
 725.5 1240 725.5 1240 751.5 1221 c 1,16,-1
 743.5 1122 l 1,17,-1
 663.5 1174 l 1,18,19
 543.5 1030 543.5 1030 466.5 1030 c 0,20,21
 447.5 1030 447.5 1030 407.5 1042 c 1,4,5
610.5 1344.5 m 128,-1,23
 610.5 1319 610.5 1319 675.5 1275 c 1,24,25
 681.5 1294 681.5 1294 681.5 1313 c 128,-1,26
 681.5 1332 681.5 1332 665.5 1351 c 128,-1,27
 649.5 1370 649.5 1370 630 1370 c 128,-1,22
 610.5 1370 610.5 1370 610.5 1344.5 c 128,-1,23
EndSplineSet
LCarets2: 1 0 
Ligature2: "'liga' Standard Ligatures in Arabic lookup 6 subtable" tatweel damma
EndChar

StartChar: kasraisolated
Encoding: 337 65146 80
Width: 0
Flags: W
VStem: 445.5 338
LayerCount: 2
Fore
SplineSet
445.5 -878 m 1,0,1
 448.5 -840 448.5 -840 459.5 -818 c 1,2,3
 472.5 -800 472.5 -800 511.5 -777 c 2,4,-1
 783.5 -620 l 1,5,6
 783.5 -686 783.5 -686 748.5 -706 c 2,7,-1
 445.5 -878 l 1,0,1
EndSplineSet
EndChar

StartChar: kasramedial
Encoding: 338 65147 81
Width: 1229
Flags: W
HStem: 131 121<0 1229>
LayerCount: 2
Fore
SplineSet
0 131 m 5,0,-1
 0 252 l 5,1,-1
 1229 252 l 5,2,-1
 1229 131 l 5,3,-1
 0 131 l 5,0,-1
410.5 -329 m 1,4,5
 413.5 -291 413.5 -291 424.5 -269 c 1,6,7
 437.5 -251 437.5 -251 476.5 -228 c 2,8,-1
 748.5 -71 l 1,9,10
 748.5 -137 748.5 -137 713.5 -157 c 2,11,-1
 410.5 -329 l 1,4,5
EndSplineSet
LCarets2: 1 0 
Ligature2: "'liga' Standard Ligatures in Arabic lookup 6 subtable" tatweel kasra
EndChar

StartChar: shaddaisolated
Encoding: 339 65148 82
Width: 0
Flags: W
HStem: 1450 102<488.778 577.739> 1515 107<645.755 735.848>
VStem: 754.5 23<1719.04 1769>
LayerCount: 2
Fore
SplineSet
437.5 1558 m 0,0,1
 437.5 1583 437.5 1583 459.5 1659 c 1,2,-1
 482.5 1663 l 1,3,4
 482.5 1552 482.5 1552 521.5 1552 c 0,5,6
 585.5 1552 585.5 1552 611.5 1714 c 1,7,-1
 629.5 1720 l 1,8,9
 652.5 1622 652.5 1622 687.5 1622 c 0,10,11
 745.5 1622 745.5 1622 754.5 1769 c 1,12,-1
 777.5 1779 l 1,13,14
 791.5 1718 791.5 1718 791.5 1683 c 0,15,16
 791.5 1515 791.5 1515 687.5 1515 c 0,17,18
 651.5 1515 651.5 1515 623.5 1536 c 1,19,20
 615.5 1501 615.5 1501 584 1475.5 c 128,-1,21
 552.5 1450 552.5 1450 519.5 1450 c 0,22,23
 437.5 1450 437.5 1450 437.5 1558 c 0,0,1
EndSplineSet
EndChar

StartChar: shaddamedial
Encoding: 340 65149 83
Width: 1229
Flags: W
HStem: 131 121<0 1229> 1030 102<453.778 542.739> 1095 107<610.755 700.848>
VStem: 719.5 23<1299.04 1349>
LayerCount: 2
Fore
SplineSet
0 131 m 5,0,-1
 0 252 l 5,1,-1
 1229 252 l 5,2,-1
 1229 131 l 5,3,-1
 0 131 l 5,0,-1
402.5 1138 m 0,4,5
 402.5 1163 402.5 1163 424.5 1239 c 1,6,-1
 447.5 1243 l 1,7,8
 447.5 1132 447.5 1132 486.5 1132 c 0,9,10
 550.5 1132 550.5 1132 576.5 1294 c 1,11,-1
 594.5 1300 l 1,12,13
 617.5 1202 617.5 1202 652.5 1202 c 0,14,15
 710.5 1202 710.5 1202 719.5 1349 c 1,16,-1
 742.5 1359 l 1,17,18
 756.5 1298 756.5 1298 756.5 1263 c 0,19,20
 756.5 1095 756.5 1095 652.5 1095 c 0,21,22
 616.5 1095 616.5 1095 588.5 1116 c 1,23,24
 580.5 1081 580.5 1081 549 1055.5 c 128,-1,25
 517.5 1030 517.5 1030 484.5 1030 c 0,26,27
 402.5 1030 402.5 1030 402.5 1138 c 0,4,5
EndSplineSet
LCarets2: 1 0 
Ligature2: "'liga' Standard Ligatures in Arabic lookup 6 subtable" tatweel shadda
EndChar

StartChar: sukunisolated
Encoding: 341 65150 84
Width: 0
Flags: W
HStem: 1450 99<520.722 688.33> 1676 86<531.435 662.557>
VStem: 485.5 33<1508.83 1660.02> 688.5 55<1557.11 1633.81>
LayerCount: 2
Fore
SplineSet
485.5 1571 m 0,0,1
 485.5 1655 485.5 1655 523 1708.5 c 128,-1,2
 560.5 1762 560.5 1762 615 1762 c 128,-1,3
 669.5 1762 669.5 1762 706.5 1717.5 c 128,-1,4
 743.5 1673 743.5 1673 743.5 1611 c 128,-1,5
 743.5 1549 743.5 1549 697 1499.5 c 128,-1,6
 650.5 1450 650.5 1450 592.5 1450 c 0,7,8
 485.5 1450 485.5 1450 485.5 1571 c 0,0,1
518.5 1608 m 0,9,10
 518.5 1549 518.5 1549 603.5 1549 c 128,-1,11
 688.5 1549 688.5 1549 688.5 1590 c 0,12,13
 688.5 1616 688.5 1616 646.5 1646 c 128,-1,14
 604.5 1676 604.5 1676 577.5 1676 c 0,15,16
 518.5 1676 518.5 1676 518.5 1608 c 0,9,10
EndSplineSet
EndChar

StartChar: sukunmedial
Encoding: 342 65151 85
Width: 1229
Flags: W
HStem: 131 121<0 1229> 1030 99<485.722 653.33> 1256 86<496.435 627.557>
VStem: 450.5 33<1088.83 1240.02> 653.5 55<1137.11 1213.81>
LayerCount: 2
Fore
SplineSet
0 131 m 5,0,-1
 0 252 l 5,1,-1
 1229 252 l 5,2,-1
 1229 131 l 5,3,-1
 0 131 l 5,0,-1
450.5 1151 m 0,4,5
 450.5 1235 450.5 1235 488 1288.5 c 128,-1,6
 525.5 1342 525.5 1342 580 1342 c 128,-1,7
 634.5 1342 634.5 1342 671.5 1297.5 c 128,-1,8
 708.5 1253 708.5 1253 708.5 1191 c 128,-1,9
 708.5 1129 708.5 1129 662 1079.5 c 128,-1,10
 615.5 1030 615.5 1030 557.5 1030 c 0,11,12
 450.5 1030 450.5 1030 450.5 1151 c 0,4,5
483.5 1188 m 0,13,14
 483.5 1129 483.5 1129 568.5 1129 c 128,-1,15
 653.5 1129 653.5 1129 653.5 1170 c 0,16,17
 653.5 1196 653.5 1196 611.5 1226 c 128,-1,18
 569.5 1256 569.5 1256 542.5 1256 c 0,19,20
 483.5 1256 483.5 1256 483.5 1188 c 0,13,14
EndSplineSet
LCarets2: 1 0 
Ligature2: "'liga' Standard Ligatures in Arabic lookup 6 subtable" tatweel sukun
EndChar

StartChar: hamzaisolated
Encoding: 343 65152 86
Width: 1231
Flags: W
VStem: 481.111 574.37
AnchorPoint: "ArabicBelow" 666 -231 basechar 0
AnchorPoint: "ArabicAbove" 678.45 710.51 basechar 0
LayerCount: 2
Fore
SplineSet
1055.48 185.231 m 5,0,1
 1040.82 13.6074 l 6,2,3
 1039.65 -0.0986328 1039.65 -0.0986328 1017.42 -7.49902 c 6,4,-1
 481.111 -185.984 l 5,5,-1
 490.66 -12.8291 l 5,6,-1
 616.152 28.3438 l 5,7,8
 512.69 82.1523 512.69 82.1523 484.717 163.842 c 132,-1,9
 456.743 245.531 456.743 245.531 517.51 365.205 c 132,-1,10
 578.275 484.882 578.275 484.882 657.929 509.964 c 4,11,12
 848.124 569.858 848.124 569.858 956.641 361.67 c 5,13,14
 700.199 437.001 700.199 437.001 659.376 323.053 c 28,15,16
 611.101 191.053 611.101 191.053 771.048 111.727 c 4,17,18
 817.172 88.8516 817.172 88.8516 1055.48 185.231 c 5,0,1
EndSplineSet
EndChar

StartChar: alefwithmaddaaboveisolated
Encoding: 344 65153 87
Width: 1229
Flags: W
HStem: 1371 77<542.908 838.499> 1417 77<394.042 676.076>
VStem: 600.5 158<154.872 576.472>
AnchorPoint: "ArabicBelow" 520.5 -246 basechar 0
AnchorPoint: "ArabicAbove" 520.5 1753 basechar 0
LayerCount: 2
Fore
SplineSet
342.5 1362 m 1,0,1
 351.5 1403 351.5 1403 387.5 1448.5 c 128,-1,2
 423.5 1494 423.5 1494 488.5 1494 c 0,3,4
 513.136 1494 513.136 1494 613.5 1471 c 0,5,6
 688.25 1448 688.25 1448 762.875 1448 c 128,-1,7
 837.5 1448 837.5 1448 886.5 1503 c 1,8,-1
 886.5 1501 l 1,9,10
 843.5 1371 843.5 1371 764.5 1371 c 0,11,12
 693.5 1371 693.5 1371 609.5 1393 c 0,13,14
 486.5 1417 486.5 1417 443.5 1417 c 128,-1,15
 400.5 1417 400.5 1417 342.5 1362 c 1,0,1
551.5 1042 m 1,16,-1
 712.5 1239 l 1,17,-1
 713.5 1241 l 1,18,19
 713.5 1239 713.5 1239 713 1236.5 c 128,-1,20
 712.5 1234 712.5 1234 713.5 1232 c 1,21,-1
 758.5 270 l 2,22,23
 758.5 216.2 758.5 216.2 700.5 135 c 0,24,25
 657.042 63.1271 657.042 63.1271 601.5 10 c 0,26,27
 599.5 8 599.5 8 598 7 c 128,-1,28
 596.5 6 596.5 6 595.5 4 c 1,29,-1
 595.5 15 l 1,30,-1
 599 127 l 2,31,32
 600.5 173 600.5 173 600.5 201 c 2,33,-1
 600.5 220 l 2,34,35
 595.828 404.534 595.828 404.534 578.5 635 c 2,36,-1
 561 889 l 2,37,38
 554.5 987 554.5 987 551.5 1042 c 1,16,-1
EndSplineSet
EndChar

StartChar: alefwithmaddaabovefinal
Encoding: 345 65154 88
Width: 1229
Flags: W
HStem: 0 232<701.49 1229> 1329 78<524.754 830.884> 1375 77<384.396 669.562>
VStem: 487 166<836.088 1061.26>
AnchorPoint: "ArabicBelow" 545.5 -249 basechar 0
AnchorPoint: "ArabicAbove" 545.5 1713 basechar 0
LayerCount: 2
Fore
SplineSet
332.5 1320 m 1,0,1
 341.759 1366.29 341.759 1366.29 371.5 1400 c 0,2,3
 414.5 1452 414.5 1452 479.5 1452 c 0,4,5
 503.136 1452 503.136 1452 603.5 1429 c 0,6,7
 675.5 1407 675.5 1407 752 1407 c 128,-1,8
 828.5 1407 828.5 1407 876.5 1462 c 1,9,-1
 876.5 1459 l 1,10,11
 834.5 1329 834.5 1329 755.5 1329 c 0,12,13
 686.667 1329 686.667 1329 598.5 1352 c 0,14,15
 473.045 1375 473.045 1375 431.773 1375 c 128,-1,16
 390.5 1375 390.5 1375 332.5 1320 c 1,0,1
487 1048 m 5,17,-1
 626.5 1177 l 6,18,19
 643 1192 643 1192 648 1195.5 c 132,-1,20
 653 1199 653 1199 654 1200 c 5,21,22
 651 1197 651 1197 653 1190 c 5,23,-1
 683 394 l 6,24,25
 685.058 339.369 685.058 339.369 700 274 c 5,26,27
 717.887 230.956 717.887 230.956 819 232 c 6,28,-1
 1229 232 l 5,29,-1
 1229 0 l 5,30,-1
 716 0 l 6,31,32
 557.898 0 557.898 0 542 235 c 6,33,-1
 487 1048 l 5,17,-1
EndSplineSet
EndChar

StartChar: alefwithhamzaaboveisolated
Encoding: 346 65155 89
Width: 1229
Flags: W
HStem: 1617 66<522.836 704.296>
VStem: 540.5 162<926.165 1042> 589.5 158<154.872 577.835>
AnchorPoint: "ArabicBelow" 559.5 -246 basechar 0
AnchorPoint: "ArabicAbove" 559.5 1933 basechar 0
LayerCount: 2
Fore
SplineSet
438.5 1270 m 1,0,1
 462.5 1318 462.5 1318 548.5 1384 c 1,2,-1
 549.5 1403 l 1,3,4
 466.5 1489 466.5 1489 457.5 1531 c 1,5,6
 487.5 1614 487.5 1614 520.5 1648.5 c 128,-1,7
 553.5 1683 553.5 1683 617.125 1683 c 128,-1,8
 680.75 1683 680.75 1683 705.5 1674 c 1,9,-1
 705.5 1597 l 1,10,11
 653.5 1617 653.5 1617 604.5 1617 c 128,-1,12
 555.5 1617 555.5 1617 515.5 1593 c 1,13,-1
 510.5 1576 l 1,14,15
 525.197 1541.09 525.197 1541.09 574.849 1500.05 c 128,-1,16
 624.5 1459 624.5 1459 665.5 1445 c 1,17,-1
 675.5 1445 l 1,18,19
 702.932 1456.76 702.932 1456.76 790.5 1484 c 1,20,21
 779.5 1444 779.5 1444 763.5 1404 c 1,22,23
 629.5 1375 629.5 1375 504.5 1292 c 0,24,25
 462.5 1265 462.5 1265 459.5 1265 c 0,26,27
 439.5 1265 439.5 1265 439.5 1270 c 0,28,29
 439.5 1271 439.5 1271 438.5 1270 c 1,0,1
540.5 1042 m 1,30,-1
 701.5 1239 l 1,31,-1
 702.5 1241 l 1,32,33
 702.5 1239 702.5 1239 702 1236.5 c 128,-1,34
 701.5 1234 701.5 1234 702.5 1232 c 1,35,-1
 747.5 272 l 1,36,-1
 747.5 270 l 2,37,38
 747.5 216.2 747.5 216.2 689.5 135 c 0,39,40
 641.857 59.124 641.857 59.124 590.5 10 c 0,41,42
 588.5 8 588.5 8 587 7 c 128,-1,43
 585.5 6 585.5 6 584.5 4 c 1,44,-1
 584.5 15 l 1,45,-1
 588 127 l 2,46,47
 589.5 173 589.5 173 589.5 201 c 2,48,-1
 589.5 220 l 2,49,50
 584.828 404.534 584.828 404.534 570.164 597.767 c 0,51,52
 544.224 939.584 544.224 939.584 540.5 1042 c 1,30,-1
EndSplineSet
EndChar

StartChar: alefwithhamzaabovefinal
Encoding: 347 65156 90
Width: 1229
Flags: W
HStem: 0 232<701.49 1229> 1587 65<461.137 640.808>
AnchorPoint: "ArabicBelow" 546 -249 basechar 0
AnchorPoint: "ArabicAbove" 546 1902 basechar 0
LayerCount: 2
Fore
SplineSet
375 1239 m 1,0,1
 398.88 1288.93 398.88 1288.93 485 1354 c 1,2,-1
 486 1373 l 1,3,4
 405 1456 405 1456 394 1500 c 1,5,6
 426 1586 426 1586 453 1612 c 0,7,8
 490 1652 490 1652 551.5 1652 c 128,-1,9
 613 1652 613 1652 642 1644 c 1,10,-1
 642 1566 l 1,11,12
 595 1587 595 1587 543.5 1587 c 128,-1,13
 492 1587 492 1587 452 1562 c 1,14,-1
 447 1545 l 1,15,16
 463 1509 463 1509 509 1470.5 c 128,-1,17
 555 1432 555 1432 602 1415 c 1,18,-1
 612 1415 l 1,19,20
 626 1421 626 1421 654 1430 c 2,21,-1
 727 1453 l 1,22,23
 719.333 1422.33 719.333 1422.33 700 1374 c 1,24,25
 567 1346 567 1346 440 1262 c 0,26,27
 400 1234 400 1234 388 1234 c 128,-1,28
 376 1234 376 1234 376 1239 c 0,29,30
 376 1240 376 1240 375 1239 c 1,0,1
487 1048 m 1,31,-1
 626.5 1177 l 2,32,33
 643 1192 643 1192 648 1195.5 c 128,-1,34
 653 1199 653 1199 654 1200 c 1,35,36
 651 1197 651 1197 653 1190 c 1,37,-1
 683 394 l 2,38,39
 685.058 339.369 685.058 339.369 700 274 c 1,40,41
 717.887 230.956 717.887 230.956 819 232 c 2,42,-1
 1229 232 l 5,43,-1
 1229 0 l 1,44,-1
 716 0 l 2,45,46
 557.898 0 557.898 0 542 235 c 2,47,-1
 487 1048 l 1,31,-1
EndSplineSet
EndChar

StartChar: wawwithhamzaaboveisolated
Encoding: 348 65157 91
Width: 1229
Flags: W
HStem: -573 221<432.717 675.065> -287 24<162.127 179.397> 438 261<718.454 838.626> 1184 66<591.999 772.2>
AnchorPoint: "ArabicBelow" 579.5 -823 basechar 0
AnchorPoint: "ArabicAbove" 579.5 1500 basechar 0
LayerCount: 2
Fore
SplineSet
157.5 -263 m 1,0,1
 164.5 -263 164.5 -263 187.5 -277 c 0,2,3
 307.5 -352 307.5 -352 465 -352 c 128,-1,4
 622.5 -352 622.5 -352 754.5 -263.5 c 128,-1,5
 886.5 -175 886.5 -175 948.5 -29 c 1,6,-1
 937.5 -10 l 1,7,8
 548.5 16 548.5 16 548.5 216 c 0,9,10
 548.5 327 548.5 327 625.5 508 c 0,11,12
 712.5 699 712.5 699 810.5 699 c 0,13,14
 872.5 699 872.5 699 961.5 574 c 0,15,16
 1071.5 425 1071.5 425 1071.5 245 c 2,17,-1
 1071.5 109 l 2,18,19
 1071.5 -123.58 1071.5 -123.58 930 -348.29 c 128,-1,20
 788.5 -573 788.5 -573 593.5 -573 c 0,21,22
 432.651 -573 432.651 -573 258 -390.5 c 0,23,24
 213.5 -344 213.5 -344 171.5 -287 c 1,25,-1
 170.5 -287 l 1,26,27
 162.643 -275.529 162.643 -275.529 157.5 -263 c 1,0,1
506.5 837 m 5,28,29
 527.641 882.806 527.641 882.806 616.5 951 c 5,30,-1
 617.5 971 l 5,31,32
 534.5 1055 534.5 1055 524.5 1098 c 5,33,34
 555.5 1183 555.5 1183 584.5 1210 c 4,35,36
 621.5 1250 621.5 1250 683 1250 c 132,-1,37
 744.5 1250 744.5 1250 773.5 1242 c 5,38,-1
 773.5 1164 l 5,39,40
 719.5 1184 719.5 1184 671.5 1184 c 132,-1,41
 623.5 1184 623.5 1184 583.5 1160 c 5,42,-1
 577.5 1143 l 5,43,44
 593.5 1110 593.5 1110 641.5 1069.5 c 132,-1,45
 689.5 1029 689.5 1029 733.5 1012 c 5,46,-1
 742.5 1012 l 5,47,48
 756.5 1019 756.5 1019 785 1028 c 6,49,-1
 858.5 1051 l 5,50,51
 850.833 1020.33 850.833 1020.33 831.5 972 c 5,52,53
 697.915 942.96 697.915 942.96 571.5 860 c 4,54,55
 531.5 832 531.5 832 519.5 832 c 132,-1,56
 507.5 832 507.5 832 507.5 837 c 4,57,58
 507.5 838 507.5 838 506.5 837 c 5,28,29
651.5 323 m 1,59,-1
 656.5 307 l 1,60,61
 771.5 232 771.5 232 925.5 232 c 1,62,-1
 937.5 252 l 1,63,64
 914.892 300.984 914.892 300.984 860.196 369.492 c 128,-1,65
 805.5 438 805.5 438 759.5 438 c 0,66,67
 697.5 438 697.5 438 651.5 323 c 1,59,-1
EndSplineSet
EndChar

StartChar: wawwithhamzaabovefinal
Encoding: 349 65158 92
Width: 1229
Flags: W
HStem: -572 221<275.718 518.567> 0 232<914 1229> 430 261<559.798 681.051> 1184 66<434.499 614.7>
AnchorPoint: "ArabicBelow" 559.5 -823 basechar 0
AnchorPoint: "ArabicAbove" 559.5 1500 basechar 0
LayerCount: 2
Fore
SplineSet
349 837 m 5,0,1
 370.141 882.806 370.141 882.806 459 951 c 5,2,-1
 460 971 l 5,3,4
 377 1055 377 1055 367 1098 c 5,5,6
 398 1183 398 1183 427 1210 c 4,7,8
 464 1250 464 1250 525.5 1250 c 132,-1,9
 587 1250 587 1250 616 1242 c 5,10,-1
 616 1164 l 5,11,12
 562 1184 562 1184 514 1184 c 132,-1,13
 466 1184 466 1184 426 1160 c 5,14,-1
 420 1143 l 5,15,16
 436 1110 436 1110 484 1069.5 c 132,-1,17
 532 1029 532 1029 576 1012 c 5,18,-1
 585 1012 l 5,19,20
 599 1019 599 1019 627.5 1028 c 6,21,-1
 701 1051 l 5,22,23
 693.333 1020.33 693.333 1020.33 674 972 c 5,24,25
 540.415 942.96 540.415 942.96 414 860 c 4,26,27
 374 832 374 832 362 832 c 132,-1,28
 350 832 350 832 350 837 c 4,29,30
 350 838 350 838 349 837 c 5,0,1
0 -262 m 1,31,32
 7 -262 7 -262 30 -276 c 0,33,34
 150 -351 150 -351 308.762 -351 c 128,-1,35
 467.523 -351 467.523 -351 598.261 -262.5 c 128,-1,36
 729 -174 729 -174 791 -28 c 1,37,-1
 780 -9 l 1,38,39
 391 17 391 17 391 208 c 0,40,41
 391 325.341 391 325.341 471.602 508.171 c 128,-1,42
 552.204 691 552.204 691 653 691 c 0,43,44
 713.215 691 713.215 691 813.608 552.771 c 128,-1,45
 914 414.543 914 414.543 914 232 c 1,46,-1
 1229 232 l 1,47,-1
 1229 0 l 1,48,-1
 900.726 0 l 1,49,50
 888.985 -89.5645 888.985 -89.5645 880 -117.5 c 0,51,52
 846 -230 846 -230 777 -339 c 0,53,54
 631 -572 631 -572 436 -572 c 0,55,56
 275.151 -572 275.151 -572 100.5 -389.5 c 0,57,58
 56 -343 56 -343 14 -286 c 1,59,-1
 13 -286 l 1,60,61
 5.14335 -274.529 5.14335 -274.529 0 -262 c 1,31,32
494 315 m 1,62,-1
 499 299 l 1,63,64
 614 224 614 224 768 224 c 1,65,-1
 780 244 l 1,66,67
 757.392 292.984 757.392 292.984 702.696 361.492 c 128,-1,68
 648 430 648 430 602 430 c 0,69,70
 540 430 540 430 494 315 c 1,62,-1
EndSplineSet
EndChar

StartChar: alefwithhamzabelowisolated
Encoding: 350 65159 93
Width: 1229
Flags: W
HStem: -196 66<523.969 704.777>
VStem: 500 162<926.165 1042> 547 160<155.047 577.835>
AnchorPoint: "ArabicBelow" 527 -798 basechar 0
AnchorPoint: "ArabicAbove" 527 1485 basechar 0
LayerCount: 2
Fore
SplineSet
439 -542 m 1,0,1
 462 -495 462 -495 549 -429 c 1,2,-1
 550 -409 l 1,3,4
 466 -324 466 -324 457 -282 c 1,5,6
 487 -199 487 -199 521.5 -164.5 c 128,-1,7
 556 -130 556 -130 619 -130 c 128,-1,8
 682 -130 682 -130 706 -139 c 1,9,-1
 706 -216 l 1,10,11
 652 -196 652 -196 604.5 -196 c 128,-1,12
 557 -196 557 -196 515 -220 c 1,13,-1
 510 -237 l 1,14,15
 523.5 -269.062 523.5 -269.062 571.25 -310.031 c 128,-1,16
 619 -351 619 -351 666 -368 c 1,17,-1
 675 -368 l 1,18,19
 710.946 -352.595 710.946 -352.595 790 -328 c 1,20,21
 785 -347 785 -347 778.5 -366.5 c 2,22,-1
 764 -408 l 1,23,24
 630.415 -437.04 630.415 -437.04 504 -520 c 0,25,26
 464 -548 464 -548 452 -548 c 128,-1,27
 440 -548 440 -548 440 -543 c 0,28,29
 440 -541 440 -541 439 -542 c 1,0,1
500 1042 m 1,30,-1
 662 1235 l 1,31,-1
 662 1232 l 1,32,-1
 707 272 l 1,33,-1
 707 270 l 2,34,35
 707 217 707 217 649 135 c 0,36,37
 600.326 57.4786 600.326 57.4786 547 7 c 1,38,-1
 547 118 l 1,39,-1
 548 171 l 1,40,-1
 548 240 l 258,41,42
 548 340.2 548 340.2 526 635 c 2,43,-1
 508.5 889 l 2,44,45
 502 987 502 987 500 1042 c 1,30,-1
EndSplineSet
EndChar

StartChar: alefwithhamzabelowfinal
Encoding: 351 65160 94
Width: 1229
Flags: W
HStem: -196 66<510.904 691.793> 0 232<701.49 1229>
VStem: 487 166<836.088 1061.26>
AnchorPoint: "ArabicBelow" 500 -798 basechar 0
AnchorPoint: "ArabicAbove" 500 1447 basechar 0
LayerCount: 2
Fore
SplineSet
426 -542 m 1,0,1
 449 -495 449 -495 536 -429 c 1,2,-1
 537 -409 l 1,3,4
 454 -325 454 -325 444 -282 c 1,5,6
 476 -197 476 -197 509.5 -163.5 c 128,-1,7
 543 -130 543 -130 606.5 -130 c 128,-1,8
 670 -130 670 -130 693 -139 c 1,9,-1
 693 -216 l 1,10,11
 639 -196 639 -196 591.5 -196 c 128,-1,12
 544 -196 544 -196 502 -220 c 1,13,-1
 497 -237 l 1,14,15
 513 -270 513 -270 561 -310.5 c 128,-1,16
 609 -351 609 -351 653 -368 c 1,17,-1
 662 -368 l 1,18,19
 697.946 -352.595 697.946 -352.595 777 -328 c 1,20,21
 772 -347 772 -347 765.5 -366.5 c 2,22,-1
 751 -408 l 1,23,24
 617.415 -437.04 617.415 -437.04 491 -520 c 0,25,26
 451 -548 451 -548 439 -548 c 128,-1,27
 427 -548 427 -548 427 -543 c 0,28,29
 427 -541 427 -541 426 -542 c 1,0,1
487 1048 m 1,30,-1
 626.5 1177 l 2,31,32
 643 1192 643 1192 648 1195.5 c 128,-1,33
 653 1199 653 1199 654 1200 c 1,34,35
 651 1197 651 1197 653 1190 c 1,36,-1
 683 394 l 2,37,38
 685.058 339.369 685.058 339.369 700 274 c 1,39,40
 717.887 230.956 717.887 230.956 819 232 c 2,41,-1
 1229 232 l 1,42,-1
 1229 0 l 5,43,-1
 716 0 l 2,44,45
 557.898 0 557.898 0 542 235 c 2,46,-1
 487 1048 l 1,30,-1
EndSplineSet
EndChar

StartChar: yehwithhamzaaboveisolated
Encoding: 352 65161 95
Width: 1229
Flags: W
HStem: -425 234<254.084 631.757> 577 187<955.566 1174.26> 990 65<138.646 319.7>
VStem: 15 65<-102.75 229.087>
AnchorPoint: "ArabicBelow" 537 -675 basechar 0
AnchorPoint: "ArabicAbove" 537 1305 basechar 0
LayerCount: 2
Fore
SplineSet
15 -16.5 m 128,-1,1
 15 156 15 156 70 297 c 1,2,-1
 70 298 l 1,3,4
 126.438 459.438 126.438 459.438 208 541 c 1,5,6
 202.092 514.415 202.092 514.415 185 488 c 1,7,-1
 184 488 l 1,8,9
 80 288 80 288 80 133 c 128,-1,10
 80 -22 80 -22 188.5 -106.5 c 128,-1,11
 297 -191 297 -191 455 -191 c 0,12,13
 741 -191 741 -191 987 -20 c 1,14,-1
 986 3 l 1,15,16
 984 4 984 4 943.5 17.5 c 2,17,-1
 822 57 l 2,18,19
 805 62 805 62 787 68 c 2,20,-1
 749 81 l 2,21,22
 574 139 574 139 574 181 c 0,23,24
 574 347 574 347 760 555.5 c 128,-1,25
 946 764 946 764 1108 764 c 0,26,27
 1214 764 1214 764 1214 692 c 0,28,29
 1214 664 1214 664 1202 628 c 128,-1,30
 1190 592 1190 592 1186.5 578 c 0,31,32
 1179.33 549.333 1179.33 549.333 1166 520 c 1,33,34
 1157.67 528.333 1157.67 528.333 1116.33 552.667 c 128,-1,35
 1075 577 1075 577 1043 577 c 0,36,37
 930 577 930 577 818 483 c 0,38,39
 740 421 740 421 692 340 c 1,40,-1
 695 323 l 1,41,42
 736 291 736 291 940.5 235.5 c 128,-1,43
 1145 180 1145 180 1146 167 c 0,44,45
 1146 118.857 1146 118.857 1130.5 27.4286 c 128,-1,46
 1115 -64 1115 -64 1104 -75 c 0,47,48
 997.419 -183.358 997.419 -183.358 829 -287 c 0,49,50
 598 -425 598 -425 402.5 -425 c 128,-1,51
 207 -425 207 -425 108 -301 c 0,52,0
 15 -189 15 -189 15 -16.5 c 128,-1,1
54 642 m 1,53,54
 77.8805 691.932 77.8805 691.932 164 757 c 1,55,-1
 165 776 l 1,56,57
 81 862 81 862 72 903 c 1,58,59
 104 988 104 988 137 1021.5 c 128,-1,60
 170 1055 170 1055 231 1055 c 128,-1,61
 292 1055 292 1055 321 1047 c 1,62,-1
 321 970 l 1,63,64
 267 990 267 990 219.5 990 c 128,-1,65
 172 990 172 990 130 966 c 1,66,-1
 125 948 l 1,67,68
 145 909 145 909 189.5 872 c 128,-1,69
 234 835 234 835 281 818 c 1,70,-1
 290 818 l 1,71,72
 317.432 829.757 317.432 829.757 405 857 c 1,73,74
 395 817 395 817 379 777 c 1,75,76
 249.685 750.762 249.685 750.762 119 665 c 0,77,78
 78 638 78 638 66 638 c 128,-1,79
 54 638 54 638 54 642 c 1,53,54
EndSplineSet
EndChar

StartChar: yehwithhamzaabovefinal
Encoding: 353 65162 96
Width: 1229
Flags: W
HStem: -587 222<259.799 712.743> 0 237<755.481 1229> 654 65<147.521 328.87>
VStem: 45 63.9425<-233.091 -47.9746>
AnchorPoint: "ArabicBelow" 520 -837 basechar 0
AnchorPoint: "ArabicAbove" 520 969 basechar 0
LayerCount: 2
Fore
SplineSet
45 -250 m 0,0,1
 45 8 45 8 215 178 c 0,2,3
 227 190 227 190 230 191 c 1,4,5
 110.885 10.089 110.885 10.089 108.943 -123.579 c 128,-1,6
 107 -257.247 107 -257.247 256 -319 c 0,7,8
 366.991 -365 366.991 -365 508 -365 c 0,9,10
 767 -365 767 -365 881 -310 c 1,11,-1
 881 -285 l 1,12,13
 855.605 -273.446 855.605 -273.446 808.5 -256 c 128,-1,14
 761.382 -238.55 761.382 -238.55 668.191 -200.275 c 128,-1,15
 575 -162 575 -162 575 -131 c 128,-1,16
 575 -100 575 -100 610 -13 c 0,17,18
 667.475 129.867 667.475 129.867 707 165 c 1,19,-1
 708 165 l 1,20,21
 750.206 201.701 750.206 201.701 859.103 219.351 c 128,-1,22
 968 237 968 237 1058 237 c 2,23,-1
 1229 237 l 5,24,-1
 1229 1 l 5,25,-1
 1099 0 l 1,26,-1
 889 0 l 1,27,-1
 845 1 l 1,28,-1
 812 2 l 2,29,30
 767 2 767 2 745 -9 c 1,31,-1
 746 -34 l 1,32,33
 1068 -157 1068 -157 1068 -177 c 0,34,35
 1068 -233.071 1068 -233.071 1051.5 -295.536 c 128,-1,36
 1035 -358 1035 -358 1029 -367 c 0,37,38
 955.084 -471.714 955.084 -471.714 760.661 -529.357 c 128,-1,39
 566.237 -587 566.237 -587 402.871 -587 c 128,-1,40
 239.506 -587 239.506 -587 142.253 -498.5 c 128,-1,41
 45 -410 45 -410 45 -250 c 0,0,1
63 307 m 1,42,43
 85.4801 353.834 85.4801 353.834 173 421 c 1,44,-1
 174 440 l 1,45,46
 90 526 90 526 81 567 c 1,47,48
 111 650 111 650 145 684.5 c 128,-1,49
 179 719 179 719 242.5 719 c 128,-1,50
 306 719 306 719 330 711 c 1,51,-1
 330 633 l 1,52,53
 282 654 282 654 230.5 654 c 128,-1,54
 179 654 179 654 139 629 c 1,55,-1
 134 612 l 1,56,57
 151 577 151 577 200 535 c 0,58,59
 251 497 251 497 290 482 c 1,60,-1
 299 482 l 1,61,62
 313 488 313 488 341 497 c 2,63,-1
 414 520 l 1,64,65
 404.667 482.667 404.667 482.667 388 441 c 1,66,67
 254 413 254 413 128 329 c 0,68,69
 85 301 85 301 83 301 c 0,70,71
 64 301 64 301 64 307 c 0,72,73
 64 308 64 308 63 307 c 1,42,43
EndSplineSet
EndChar

StartChar: yehwithhamzaaboveinitial
Encoding: 354 65163 97
Width: 1229
Flags: W
HStem: -1 233<0 814> 1173 65<555.144 736.339>
AnchorPoint: "ArabicBelow" 657.5 -250 basechar 0
AnchorPoint: "ArabicAbove" 657.5 1489 basechar 0
LayerCount: 2
Fore
SplineSet
0 0 m 5,0,-1
 0 232 l 5,1,-1
 814 232 l 5,2,-1
 826 250 l 5,3,4
 783.753 383.077 783.753 383.077 701 487 c 5,5,-1
 826 689 l 6,6,7
 827 691 827 691 828 692.5 c 132,-1,8
 829 694 829 694 830 696 c 5,9,10
 830 695 830 695 834 691 c 5,11,12
 993 472 993 472 993 163 c 6,13,-1
 993 103 l 5,14,-1
 991 9 l 5,15,16
 986 -1 986 -1 942 -1 c 6,17,-1
 123 -1 l 5,18,19
 122 0 122 0 114 0 c 6,20,-1
 0 0 l 5,0,-1
471.5 826 m 1,21,22
 494.756 876.388 494.756 876.388 581.5 940 c 1,23,-1
 582.5 959 l 1,24,25
 498.5 1045 498.5 1045 489.5 1087 c 1,26,27
 518.5 1167 518.5 1167 552 1202.5 c 128,-1,28
 585.5 1238 585.5 1238 650.5 1238 c 128,-1,29
 715.5 1238 715.5 1238 737.5 1230 c 1,30,-1
 737.5 1153 l 1,31,32
 685.5 1173 685.5 1173 636.5 1173 c 128,-1,33
 587.5 1173 587.5 1173 547.5 1149 c 1,34,-1
 542.5 1132 l 1,35,36
 557.197 1097.09 557.197 1097.09 594.349 1066.05 c 0,37,38
 653.423 1016.68 653.423 1016.68 698.5 1001 c 1,39,-1
 707.5 1001 l 1,40,41
 734.932 1012.76 734.932 1012.76 822.5 1040 c 1,42,43
 813.5 1000 813.5 1000 795.5 960 c 1,44,45
 661.5 931 661.5 931 536.5 848 c 0,46,47
 494.5 821 494.5 821 483.5 821 c 128,-1,48
 472.5 821 472.5 821 472.5 826 c 0,49,50
 472.5 827 472.5 827 471.5 826 c 1,21,22
EndSplineSet
EndChar

StartChar: yehwithhamzaabovemedial
Encoding: 355 65164 98
Width: 1229
Flags: W
HStem: -1 233<0 1050> 1174 65<855.336 1036.81>
AnchorPoint: "ArabicBelow" 639.5 -249 basechar 0
AnchorPoint: "ArabicAbove" 639.5 1489 basechar 0
LayerCount: 2
Fore
SplineSet
0 0 m 1,0,-1
 0 232 l 5,1,-1
 1050 232 l 1,2,-1
 1062 250 l 1,3,4
 1019.75 383.077 1019.75 383.077 937 487 c 1,5,-1
 1062 689 l 2,6,7
 1063 691 1063 691 1064 692.5 c 128,-1,8
 1065 694 1065 694 1066 696 c 1,9,10
 1066 695 1066 695 1070 691 c 1,11,12
 1229 472 1229 472 1229 163 c 2,13,-1
 1229 103 l 1,14,-1
 1227 9 l 1,15,16
 1222 -1 1222 -1 1178 -1 c 2,17,-1
 359 -1 l 1,18,19
 358 0 358 0 350 0 c 2,20,-1
 0 0 l 1,0,-1
770 827 m 1,21,22
 795.733 874.79 795.733 874.79 880 941 c 1,23,-1
 882 960 l 1,24,25
 798 1046 798 1046 790 1088 c 1,26,27
 820 1171 820 1171 853 1205 c 128,-1,28
 886 1239 886 1239 950 1239 c 128,-1,29
 1014 1239 1014 1239 1038 1231 c 1,30,-1
 1038 1154 l 1,31,32
 986 1174 986 1174 937 1174 c 128,-1,33
 888 1174 888 1174 848 1150 c 1,34,-1
 842 1133 l 1,35,36
 855.5 1100.94 855.5 1100.94 908 1055 c 0,37,38
 960 1017 960 1017 998 1002 c 1,39,-1
 1008 1002 l 1,40,41
 1022 1008 1022 1008 1050 1017.5 c 2,42,-1
 1122 1041 l 1,43,44
 1114 1001 1114 1001 1096 961 c 1,45,46
 962 932 962 932 836 849 c 0,47,48
 794 822 794 822 792 822 c 0,49,50
 772 822 772 822 772 827 c 0,51,52
 772 828 772 828 770 827 c 1,21,22
EndSplineSet
EndChar

StartChar: alefisolated
Encoding: 356 65165 99
Width: 1229
Flags: W
VStem: 511 162<926.165 1042> 560 158<154.872 577.835>
AnchorPoint: "ArabicBelow" 537 -254 basechar 0
AnchorPoint: "ArabicAbove" 537 1491 basechar 0
LayerCount: 2
Fore
SplineSet
511 1042 m 1,0,-1
 672 1239 l 1,1,-1
 673 1241 l 1,2,3
 673 1239 673 1239 672.5 1236.5 c 128,-1,4
 672 1234 672 1234 673 1232 c 1,5,-1
 718 272 l 1,6,-1
 718 270 l 2,7,8
 718 216.2 718 216.2 660 135 c 0,9,10
 612.357 59.124 612.357 59.124 561 10 c 0,11,12
 559 8 559 8 557.5 7 c 128,-1,13
 556 6 556 6 555 4 c 1,14,-1
 555 15 l 1,15,-1
 558.5 127 l 2,16,17
 560 173 560 173 560 201 c 2,18,-1
 560 220 l 2,19,20
 555.328 404.534 555.328 404.534 538 635 c 2,21,-1
 520 889 l 2,22,23
 513 987 513 987 511 1042 c 1,0,-1
550.5 -4 m 0,24,25
 545 -4 545 -4 555 4 c 1,26,-1
 555 2 l 2,27,28
 555 -4 555 -4 550.5 -4 c 0,24,25
EndSplineSet
EndChar

StartChar: aleffinal
Encoding: 357 65166 100
Width: 1229
Flags: W
HStem: 0 236<646.399 1229>
AnchorPoint: "ArabicBelow" 520 -249 basechar 0
AnchorPoint: "ArabicAbove" 520 1450 basechar 0
LayerCount: 2
Fore
SplineSet
431 1048 m 1,0,-1
 587 1194 l 1,1,2
 585 1192 585 1192 588.5 1194.5 c 128,-1,3
 592 1197 592 1197 596 1199 c 1,4,-1
 596 1196 l 2,5,6
 596 1191 596 1191 597 1190 c 1,7,-1
 627 398 l 2,8,9
 629.071 343.312 629.071 343.312 644 278 c 1,10,11
 660.857 236 660.857 236 763 236 c 2,12,-1
 1229 236 l 1,13,-1
 1229 0 l 5,14,-1
 661 0 l 2,15,16
 501.898 0 501.898 0 486 235 c 2,17,-1
 431 1048 l 1,0,-1
EndSplineSet
EndChar

StartChar: behisolated
Encoding: 358 65167 101
Width: 1229
Flags: W
HStem: 2 228<241.204 1078.92>
VStem: 0 110<247.428 501.354>
AnchorPoint: "ArabicBelow" 536 -864 basechar 0
AnchorPoint: "ArabicAbove" 536 944 basechar 0
LayerCount: 2
Fore
SplineSet
0 331 m 4,0,1
 0 444.947 0 444.947 102 606 c 4,2,3
 121 636 121 636 132 648 c 5,4,5
 124 576 124 576 124 604 c 5,6,7
 110 559 110 559 110 496 c 132,-1,8
 110 433 110 433 131.5 382.5 c 132,-1,9
 153 332 153 332 199.5 298 c 4,10,11
 292.5 230 292.5 230 475 230 c 6,12,-1
 575 230 l 5,13,-1
 735 227 l 6,14,15
 921.5 227 921.5 227 1084 253 c 5,16,-1
 1095 269 l 5,17,18
 1063.73 383.67 1063.73 383.67 943 508 c 5,19,-1
 1082 693 l 5,20,-1
 1083 694 l 5,21,22
 1083 694.5 1083 694.5 1083.38 694.5 c 0,23,24
 1084.5 694.5 1084.5 694.5 1088 691 c 4,25,26
 1229 544 1229 544 1229 322 c 4,27,28
 1229 137 1229 137 1215 65 c 4,29,30
 1211.64 49.3242 1211.64 49.3242 1025.82 27.1621 c 4,31,32
 764.539 -4 764.539 -4 617 -4 c 6,33,-1
 403 2 l 6,34,35
 247.844 2 247.844 2 133 77 c 4,36,37
 0 163.857 0 163.857 0 331 c 4,0,1
529 -527 m 1,38,-1
 604 -355 l 1,39,-1
 826 -439 l 1,40,-1
 749 -614 l 1,41,-1
 529 -527 l 1,38,-1
EndSplineSet
EndChar

StartChar: behfinal
Encoding: 359 65168 102
Width: 1229
Flags: W
HStem: 1 238<231.751 1061>
VStem: 0 110<245.318 516.281>
AnchorPoint: "ArabicBelow" 594 -813 basechar 0
AnchorPoint: "ArabicAbove" 594 951 basechar 0
LayerCount: 2
Fore
SplineSet
0 321.636 m 132,-1,1
 0 474.272 0 474.272 101 612 c 4,2,3
 112 627 112 627 119 637.5 c 132,-1,4
 126 648 126 648 131 654 c 5,5,6
 123 582 123 582 123 610 c 5,7,8
 110 574 110 574 110 509 c 132,-1,9
 110 444 110 444 129.5 394 c 132,-1,10
 149 344 149 344 192 309.5 c 4,11,12
 279.87 239 279.87 239 466 239 c 6,13,-1
 1061 239 l 5,14,-1
 1073 259 l 5,15,-1
 940 512 l 5,16,-1
 1081 699 l 5,17,-1
 1082 701 l 5,18,-1
 1085 698 l 5,19,-1
 1229 250 l 5,20,-1
 1229 1 l 5,21,-1
 406 1 l 5,22,-1
 284 8 l 5,23,-1
 283 8 l 6,24,25
 206 8 206 8 94 81 c 5,26,0
 0 169 0 169 0 321.636 c 132,-1,1
652 -476 m 1,27,-1
 726 -305 l 1,28,-1
 948 -388 l 1,29,-1
 872 -563 l 1,30,-1
 652 -476 l 1,27,-1
EndSplineSet
EndChar

StartChar: behinitial
Encoding: 360 65169 103
Width: 1229
Flags: W
HStem: -1 233<0 814>
AnchorPoint: "ArabicBelow" 683.5 -848 basechar 0
AnchorPoint: "ArabicAbove" 683.5 948 basechar 0
LayerCount: 2
Fore
SplineSet
0 0 m 5,0,-1
 0 232 l 5,1,-1
 814 232 l 5,2,-1
 826 250 l 5,3,4
 783.753 383.077 783.753 383.077 701 487 c 5,5,-1
 826 689 l 6,6,7
 827 691 827 691 828 692.5 c 132,-1,8
 829 694 829 694 830 696 c 5,9,10
 830 695 830 695 834 691 c 5,11,12
 993 472 993 472 993 163 c 6,13,-1
 993 103 l 5,14,-1
 991 9 l 5,15,16
 986 -1 986 -1 942 -1 c 6,17,-1
 123 -1 l 5,18,19
 122 0 122 0 114 0 c 6,20,-1
 0 0 l 5,0,-1
446.5 -510 m 1,21,-1
 521.5 -339 l 1,22,-1
 743.5 -423 l 1,23,-1
 666.5 -598 l 1,24,-1
 446.5 -510 l 1,21,-1
EndSplineSet
EndChar

StartChar: behmedial
Encoding: 361 65170 104
Width: 1229
Flags: W
HStem: -1 233<0 1050>
AnchorPoint: "ArabicBelow" 637.5 -848 basechar 0
AnchorPoint: "ArabicAbove" 637.5 948 basechar 0
LayerCount: 2
Fore
SplineSet
0 0 m 1,0,-1
 0 232 l 1,1,-1
 1050 232 l 1,2,-1
 1062 250 l 1,3,4
 1019.75 383.077 1019.75 383.077 937 487 c 1,5,-1
 1062 689 l 2,6,7
 1063 691 1063 691 1064 692.5 c 128,-1,8
 1065 694 1065 694 1066 696 c 1,9,10
 1066 695 1066 695 1070 691 c 1,11,12
 1229 475.337 1229 475.337 1229 163 c 2,13,-1
 1229 103 l 1,14,-1
 1227 9 l 1,15,16
 1222 -1 1222 -1 1178 -1 c 2,17,-1
 359 -1 l 1,18,19
 358 0 358 0 350 0 c 2,20,-1
 0 0 l 1,0,-1
736 -510 m 1,21,-1
 818 -339 l 1,22,-1
 1030 -423 l 1,23,-1
 954 -598 l 1,24,-1
 736 -510 l 1,21,-1
EndSplineSet
EndChar

StartChar: tehmarbutaisolated
Encoding: 362 65171 105
Width: 1229
Flags: W
HStem: -4 218<396.997 659.552>
VStem: 260 113<128 347.118>
AnchorPoint: "ArabicBelow" 537 -254 basechar 0
AnchorPoint: "ArabicAbove" 537 1446 basechar 0
LayerCount: 2
Fore
SplineSet
260 166 m 0,0,1
 260 313 260 313 393 494 c 1,2,3
 389 490 389 490 396 499.5 c 2,4,-1
 611 775 l 1,5,6
 667 710 667 710 802 615 c 1,7,-1
 803 615 l 1,8,9
 969 506.383 969 506.383 969 434 c 0,10,11
 969 394 969 394 933.5 307.5 c 128,-1,12
 898 221 898 221 842 164 c 128,-1,13
 786 107 786 107 718.5 69.5 c 0,14,15
 586.2 -3.99999 586.2 -3.99999 433 -4 c 0,16,17
 358 -4 358 -4 309 43 c 128,-1,18
 260 90 260 90 260 166 c 0,0,1
302 1061 m 1,19,-1
 412 1196 l 1,20,-1
 550 1080 l 1,21,-1
 568 1082 l 1,22,-1
 661 1196 l 1,23,-1
 807 1071 l 1,24,-1
 692 936 l 1,25,-1
 560 1053 l 1,26,-1
 540 1051 l 1,27,-1
 444 936 l 1,28,-1
 302 1061 l 1,19,-1
373 323.5 m 128,-1,30
 373 265 373 265 423.5 239.5 c 128,-1,31
 474 214 474 214 532 214 c 128,-1,32
 590 214 590 214 659.5 231 c 0,33,34
 767.347 257.38 767.347 257.38 808 296 c 1,35,-1
 805 319 l 1,36,37
 782 331 782 331 736 368 c 2,38,-1
 511 555 l 1,39,-1
 492 552 l 1,40,29
 373 382 373 382 373 323.5 c 128,-1,30
EndSplineSet
EndChar

StartChar: tehmarbutafinal
Encoding: 363 65172 106
Width: 1229
Flags: W
HStem: 0 239<577.204 1229> 109 220<219.042 372.25>
VStem: 449 102<342 591.847>
AnchorPoint: "ArabicBelow" 520 -249 basechar 0
AnchorPoint: "ArabicAbove" 520 1424 basechar 0
LayerCount: 2
Fore
SplineSet
0 276 m 4,0,1
 0 312.225 0 312.225 41.3388 404.333 c 4,2,3
 103.752 546.063 103.752 546.063 188 598 c 4,4,5
 233.889 628.593 233.889 628.593 272 644 c 6,6,-1
 413 701 l 5,7,-1
 421 714 l 5,8,-1
 415 807 l 5,9,10
 451 845 451 845 525 911 c 5,11,12
 531.874 880.069 531.874 880.069 551 421 c 4,13,14
 556.113 298.286 556.113 298.286 576.557 268.643 c 132,-1,15
 597 239 597 239 654 239 c 6,16,-1
 1229 239 l 5,17,-1
 1229 0 l 5,18,-1
 620 0 l 6,19,20
 546.803 0 546.803 0 508 77 c 4,21,22
 478.67 135.202 478.67 135.202 456 275 c 5,23,-1
 430 278 l 5,24,25
 360 113 360 113 339 109 c 5,26,27
 205 109 205 109 113 155 c 5,28,-1
 112 155 l 5,29,30
 0 204 0 204 0 276 c 4,0,1
13 1039 m 5,31,-1
 123 1173 l 5,32,-1
 260 1057 l 5,33,-1
 278 1059 l 5,34,-1
 371 1173 l 5,35,-1
 518 1049 l 5,36,-1
 403 914 l 5,37,-1
 270 1031 l 5,38,-1
 251 1029 l 5,39,-1
 154 914 l 5,40,-1
 13 1039 l 5,31,-1
142 443 m 5,41,-1
 144 427 l 5,42,43
 239 329 239 329 436 329 c 5,44,-1
 449 342 l 5,45,46
 448 400 448 400 437 598 c 5,47,-1
 420 609 l 5,48,49
 209 544 209 544 142 443 c 5,41,-1
EndSplineSet
EndChar

StartChar: tehisolated
Encoding: 364 65173 107
Width: 1229
Flags: W
HStem: 2 228<241.204 1078.92>
VStem: 0 110<247.428 501.354>
AnchorPoint: "ArabicBelow" 627 -252 basechar 0
AnchorPoint: "ArabicAbove" 627 1157 basechar 0
LayerCount: 2
Fore
SplineSet
0 331 m 0,0,1
 0 444.947 0 444.947 102 606 c 0,2,3
 121 636 121 636 132 648 c 1,4,5
 124 576 124 576 124 604 c 1,6,7
 110 559 110 559 110 496 c 128,-1,8
 110 433 110 433 131.5 382.5 c 128,-1,9
 153 332 153 332 199.5 298 c 0,10,11
 292.5 230 292.5 230 475 230 c 2,12,-1
 575 230 l 1,13,-1
 735 227 l 2,14,15
 921.5 227 921.5 227 1084 253 c 1,16,-1
 1095 269 l 1,17,18
 1063.73 383.67 1063.73 383.67 943 508 c 1,19,-1
 1082 693 l 1,20,-1
 1083 694 l 1,21,22
 1083 696 1083 696 1088 691 c 0,23,24
 1229 544 1229 544 1229 326 c 0,25,26
 1229 137 1229 137 1215 65 c 0,27,28
 1211.64 49.3242 1211.64 49.3242 1025.82 27.1621 c 0,29,30
 764.539 -4 764.539 -4 617 -4 c 6,31,-1
 403 2 l 2,32,33
 247.844 2 247.844 2 133 77 c 0,34,35
 0 163.857 0 163.857 0 331 c 0,0,1
297 762 m 1,36,-1
 386 895 l 1,37,-1
 584 772 l 1,38,-1
 491 639 l 1,39,-1
 297 762 l 1,36,-1
620 774 m 1,40,-1
 710 907 l 1,41,-1
 908 784 l 1,42,-1
 815 651 l 1,43,-1
 620 774 l 1,40,-1
EndSplineSet
EndChar

StartChar: tehfinal
Encoding: 365 65174 108
Width: 1229
Flags: W
HStem: 0 238<231.751 1061>
VStem: 0 110<244.318 515.281>
AnchorPoint: "ArabicBelow" 595 -249 basechar 0
AnchorPoint: "ArabicAbove" 595 1081 basechar 0
LayerCount: 2
Fore
SplineSet
0 320.636 m 128,-1,1
 0 473.272 0 473.272 101 611 c 0,2,3
 112 626 112 626 119 636.5 c 128,-1,4
 126 647 126 647 131 653 c 1,5,6
 123 581 123 581 123 609 c 1,7,8
 110 573 110 573 110 508 c 128,-1,9
 110 443 110 443 129.5 393 c 128,-1,10
 149 343 149 343 192 308.5 c 0,11,12
 279.87 238 279.87 238 466 238 c 2,13,-1
 1061 238 l 1,14,-1
 1073 258 l 1,15,-1
 940 511 l 1,16,-1
 1081 698 l 1,17,-1
 1082 700 l 1,18,-1
 1085 697 l 1,19,-1
 1229 249 l 1,20,-1
 1229 0 l 5,21,-1
 406 0 l 1,22,-1
 284 7 l 1,23,-1
 283 7 l 2,24,25
 206 7 206 7 94 80 c 1,26,0
 0 168 0 168 0 320.636 c 128,-1,1
351 691 m 1,27,-1
 438 821 l 1,28,-1
 621 717 l 1,29,-1
 639 721 l 1,30,-1
 707 830 l 1,31,-1
 889 727 l 1,32,-1
 806 595 l 1,33,-1
 638 692 l 1,34,-1
 619 687 l 1,35,-1
 550 583 l 1,36,-1
 351 691 l 1,27,-1
EndSplineSet
EndChar

StartChar: tehinitial
Encoding: 366 65175 109
Width: 1229
Flags: W
HStem: -1 233<0 814>
AnchorPoint: "ArabicBelow" 678 -249 basechar 0
AnchorPoint: "ArabicAbove" 678 1351 basechar 0
LayerCount: 2
Fore
SplineSet
0 0 m 5,0,-1
 0 232 l 1,1,-1
 814 232 l 1,2,-1
 826 250 l 1,3,4
 783.753 383.077 783.753 383.077 701 487 c 1,5,-1
 826 689 l 2,6,7
 827 691 827 691 828 692.5 c 128,-1,8
 829 694 829 694 830 696 c 1,9,10
 830 695 830 695 834 691 c 1,11,12
 993 472 993 472 993 163 c 2,13,-1
 993 103 l 1,14,-1
 991 9 l 1,15,16
 986 -1 986 -1 942 -1 c 2,17,-1
 123 -1 l 1,18,19
 122 0 122 0 114 0 c 2,20,-1
 0 0 l 5,0,-1
414 966 m 1,21,-1
 524 1100 l 1,22,-1
 661 984 l 1,23,-1
 680 986 l 1,24,-1
 772 1100 l 1,25,-1
 919 976 l 1,26,-1
 804 840 l 1,27,-1
 672 957 l 1,28,-1
 652 955 l 1,29,-1
 555 840 l 1,30,-1
 414 966 l 1,21,-1
EndSplineSet
EndChar

StartChar: tehmedial
Encoding: 367 65176 110
Width: 1229
Flags: W
HStem: -1 233<0 1050>
AnchorPoint: "ArabicBelow" 642.5 -249 basechar 0
AnchorPoint: "ArabicAbove" 642.5 1351 basechar 0
LayerCount: 2
Fore
SplineSet
0 0 m 5,0,-1
 0 232 l 5,1,-1
 1050 232 l 5,2,-1
 1062 250 l 5,3,4
 1019.75 383.077 1019.75 383.077 937 487 c 5,5,-1
 1062 689 l 6,6,7
 1063 691 1063 691 1064 692.5 c 132,-1,8
 1065 694 1065 694 1066 696 c 5,9,10
 1066 695 1066 695 1070 691 c 5,11,12
 1229 475.337 1229 475.337 1229 163 c 6,13,-1
 1229 103 l 5,14,-1
 1227 9 l 5,15,16
 1222 -1 1222 -1 1178 -1 c 6,17,-1
 359 -1 l 5,18,19
 358 0 358 0 350 0 c 6,20,-1
 0 0 l 5,0,-1
684 966 m 1,21,-1
 794 1100 l 1,22,-1
 932 984 l 1,23,-1
 950 986 l 1,24,-1
 1042 1100 l 1,25,-1
 1190 976 l 1,26,-1
 1074 840 l 1,27,-1
 942 957 l 1,28,-1
 922 955 l 1,29,-1
 826 840 l 1,30,-1
 684 966 l 1,21,-1
1066 696 m 1,31,-1
EndSplineSet
EndChar

StartChar: thehisolated
Encoding: 368 65177 111
Width: 1229
Flags: W
HStem: 2 228<241.204 1078.92>
VStem: 0 110<247.428 501.354>
AnchorPoint: "ArabicBelow" 762 -248 basechar 0
AnchorPoint: "ArabicAbove" 762 1318 basechar 0
LayerCount: 2
Fore
SplineSet
0 331 m 0,0,1
 0 444.947 0 444.947 102 606 c 0,2,3
 121 636 121 636 132 648 c 1,4,5
 124 576 124 576 124 604 c 1,6,7
 110 559 110 559 110 496 c 128,-1,8
 110 433 110 433 131.5 382.5 c 128,-1,9
 153 332 153 332 199.5 298 c 0,10,11
 292.5 230 292.5 230 475 230 c 2,12,-1
 575 230 l 1,13,-1
 735 227 l 2,14,15
 921.5 227 921.5 227 1084 253 c 1,16,-1
 1095 269 l 1,17,18
 1063.73 383.67 1063.73 383.67 943 508 c 1,19,-1
 1082 693 l 1,20,-1
 1083 694 l 1,21,22
 1083 696 1083 696 1088 691 c 0,23,24
 1229 544 1229 544 1229 326 c 0,25,26
 1229 137 1229 137 1215 65 c 0,27,28
 1211.64 49.3242 1211.64 49.3242 1025.82 27.1621 c 0,29,30
 764.539 -4 764.539 -4 617 -4 c 6,31,-1
 403 2 l 2,32,33
 247.844 2 247.844 2 133 77 c 0,34,35
 0 163.857 0 163.857 0 331 c 0,0,1
351 692 m 1,36,-1
 438 822 l 1,37,-1
 621 718 l 1,38,-1
 639 722 l 1,39,-1
 707 831 l 1,40,-1
 889 728 l 1,41,-1
 806 596 l 1,42,-1
 638 693 l 1,43,-1
 619 688 l 1,44,-1
 550 584 l 1,45,-1
 351 692 l 1,36,-1
415 941 m 1,46,-1
 497 1068 l 1,47,-1
 669 970 l 1,48,-1
 590 837 l 1,49,-1
 415 941 l 1,46,-1
EndSplineSet
EndChar

StartChar: thehfinal
Encoding: 369 65178 112
Width: 1229
Flags: W
HStem: 1 238<231.751 1061>
VStem: 0 110<245.318 516.281>
AnchorPoint: "ArabicBelow" 595 -249 basechar 0
AnchorPoint: "ArabicAbove" 595 1318 basechar 0
LayerCount: 2
Fore
SplineSet
0 321.636 m 132,-1,1
 0 474.272 0 474.272 101 612 c 4,2,3
 112 627 112 627 119 637.5 c 132,-1,4
 126 648 126 648 131 654 c 5,5,6
 123 582 123 582 123 610 c 5,7,8
 110 574 110 574 110 509 c 132,-1,9
 110 444 110 444 129.5 394 c 132,-1,10
 149 344 149 344 192 309.5 c 4,11,12
 279.87 239 279.87 239 466 239 c 6,13,-1
 1061 239 l 5,14,-1
 1073 259 l 5,15,-1
 940 512 l 5,16,-1
 1081 699 l 5,17,-1
 1083 701 l 5,18,-1
 1085 698 l 5,19,-1
 1229 250 l 5,20,-1
 1229 1 l 5,21,-1
 406 1 l 5,22,-1
 284 8 l 5,23,-1
 283 8 l 6,24,25
 206 8 206 8 94 81 c 5,26,0
 0 169 0 169 0 321.636 c 132,-1,1
351 692 m 1,27,-1
 438 822 l 1,28,-1
 621 718 l 1,29,-1
 639 722 l 1,30,-1
 707 831 l 1,31,-1
 889 728 l 1,32,-1
 806 596 l 1,33,-1
 638 693 l 1,34,-1
 619 688 l 1,35,-1
 550 584 l 1,36,-1
 351 692 l 1,27,-1
415 941 m 1,37,-1
 497 1068 l 1,38,-1
 669 970 l 1,39,-1
 590 837 l 1,40,-1
 415 941 l 1,37,-1
EndSplineSet
EndChar

StartChar: thehinitial
Encoding: 370 65179 113
Width: 1229
Flags: W
HStem: -1 233<0 814>
AnchorPoint: "ArabicBelow" 689 -245 basechar 0
AnchorPoint: "ArabicAbove" 689 1509 basechar 0
LayerCount: 2
Fore
SplineSet
0 0 m 1,0,-1
 0 232 l 5,1,-1
 814 232 l 1,2,-1
 826 250 l 1,3,4
 783.753 383.077 783.753 383.077 701 487 c 1,5,-1
 826 689 l 2,6,7
 827 691 827 691 828 692.5 c 128,-1,8
 829 694 829 694 830 696 c 1,9,10
 830 695 830 695 834 691 c 1,11,12
 993 472 993 472 993 163 c 2,13,-1
 993 103 l 1,14,-1
 991 9 l 1,15,16
 986 -1 986 -1 942 -1 c 2,17,-1
 123 -1 l 1,18,19
 122 0 122 0 114 0 c 2,20,-1
 0 0 l 1,0,-1
355 881 m 1,21,-1
 441 1011 l 1,22,-1
 624 907 l 1,23,-1
 642 912 l 1,24,-1
 710 1021 l 1,25,-1
 892 918 l 1,26,-1
 809 785 l 1,27,-1
 641 882 l 1,28,-1
 622 878 l 1,29,-1
 553 773 l 1,30,-1
 355 881 l 1,21,-1
418 1131 m 1,31,-1
 500 1258 l 1,32,-1
 672 1159 l 1,33,-1
 593 1027 l 1,34,-1
 418 1131 l 1,31,-1
EndSplineSet
EndChar

StartChar: thehmedial
Encoding: 371 65180 114
Width: 1229
Flags: W
HStem: -1 233<0 1050>
AnchorPoint: "ArabicBelow" 635.5 -249 basechar 0
AnchorPoint: "ArabicAbove" 635.5 1509 basechar 0
LayerCount: 2
Fore
SplineSet
0 0 m 5,0,-1
 0 232 l 5,1,-1
 1050 232 l 5,2,-1
 1062 250 l 5,3,4
 1019.75 383.077 1019.75 383.077 937 487 c 5,5,-1
 1062 689 l 6,6,7
 1063 691 1063 691 1064 692.5 c 132,-1,8
 1065 694 1065 694 1066 696 c 5,9,10
 1066 695 1066 695 1070 691 c 5,11,12
 1229 475.337 1229 475.337 1229 163 c 6,13,-1
 1229 103 l 5,14,-1
 1227 9 l 5,15,16
 1222 -1 1222 -1 1178 -1 c 6,17,-1
 359 -1 l 5,18,19
 358 0 358 0 350 0 c 6,20,-1
 0 0 l 5,0,-1
608 881 m 1,21,-1
 694 1011 l 1,22,-1
 878 907 l 1,23,-1
 896 912 l 1,24,-1
 964 1021 l 1,25,-1
 1146 918 l 1,26,-1
 1062 785 l 1,27,-1
 894 882 l 1,28,-1
 876 878 l 1,29,-1
 806 773 l 1,30,-1
 608 881 l 1,21,-1
672 1131 m 1,31,-1
 754 1258 l 1,32,-1
 926 1159 l 1,33,-1
 846 1027 l 1,34,-1
 672 1131 l 1,31,-1
EndSplineSet
EndChar

StartChar: jeemisolated
Encoding: 372 65181 115
Width: 1229
Flags: W
HStem: -734 235<429.028 819.23> 401 225<569 949.5> 440 239<219.062 392.5>
VStem: 132.5 93<-313.357 55.4981>
AnchorPoint: "ArabicBelow" 482.5 -984 basechar 0
AnchorPoint: "ArabicAbove" 482.5 929 basechar 0
LayerCount: 2
Fore
SplineSet
55.5 352 m 1,0,-1
 55.5 360 l 2,1,2
 55.5 366 55.5 366 63.5 396 c 0,3,4
 162.5 679 162.5 679 355.5 679 c 0,5,6
 435.5 679 435.5 679 611.5 653 c 256,7,8
 794.269 626 794.269 626 873.5 626 c 2,9,-1
 1061.5 626 l 1,10,11
 1060.5 626 1060.5 626 1060.5 625 c 1,12,-1
 1059.5 624 l 1,13,-1
 949.5 401 l 1,14,15
 829.871 396.15 829.871 396.15 630.5 379 c 2,16,-1
 627.5 379 l 1,17,18
 493.5 340 493.5 340 359.5 196.5 c 128,-1,19
 225.5 53 225.5 53 225.5 -106 c 0,20,21
 225.5 -499 225.5 -499 682.5 -499 c 0,22,23
 851.5 -499 851.5 -499 1123.5 -424 c 2,24,-1
 1152.5 -418 l 2,25,26
 1162.5 -416 1162.5 -416 1167.5 -416 c 128,-1,27
 1172.5 -416 1172.5 -416 1173.5 -415 c 1,28,29
 1172.5 -420 1172.5 -420 1164 -429 c 2,30,-1
 1141.5 -452 l 1,31,-1
 996.5 -576.5 l 2,32,33
 939.5 -623 939.5 -623 910.5 -643 c 0,34,35
 765.5 -734 765.5 -734 584 -734 c 128,-1,36
 402.5 -734 402.5 -734 277.5 -609 c 0,37,38
 132.5 -464 132.5 -464 132.5 -206 c 0,39,40
 132.5 126 132.5 126 403.5 418 c 1,41,-1
 392.5 440 l 1,42,-1
 382.5 440 l 2,43,44
 342.5 442 342.5 442 313 442 c 0,45,46
 208.757 442 208.757 442 160.129 419 c 128,-1,47
 111.5 396 111.5 396 87.5 374 c 128,-1,48
 63.5 352 63.5 352 55.5 352 c 1,0,-1
509.5 -175 m 1,49,-1
 583.5 -4 l 1,50,-1
 805.5 -88 l 1,51,-1
 729.5 -263 l 1,52,-1
 509.5 -175 l 1,49,-1
1061.5 626 m 1,53,54
 1061.5 627 1061.5 627 1062 627.5 c 128,-1,55
 1062.5 628 1062.5 628 1062.5 630 c 1,56,57
 1063.5 628 1063.5 628 1061.5 626 c 1,53,54
EndSplineSet
EndChar

StartChar: jeemfinal
Encoding: 373 65182 116
Width: 1229
Flags: W
HStem: -751 238<417.588 814.145> 0 236<782.563 1229> 441 173<769.647 976> 461 212<218.939 365>
VStem: 94 94<-309.846 43.3774> 683 68<132.317 381.004>
AnchorPoint: "ArabicBelow" 521 -1000 basechar 0
AnchorPoint: "ArabicAbove" 535 924 basechar 0
LayerCount: 2
Fore
SplineSet
0 357.5 m 4,0,1
 0 383.616 0 383.616 67 470.808 c 132,-1,2
 134 558 134 558 160 584 c 4,3,4
 255 673 255 673 374 673 c 4,5,6
 450.929 673 450.929 673 625.965 643.5 c 132,-1,7
 801 614 801 614 875 614 c 6,8,-1
 876 614 l 6,9,10
 883.5 614 883.5 614 902.25 615.5 c 132,-1,11
 921 617 921 617 936 618 c 6,12,-1
 974 620.5 l 6,13,14
 997 622 997 622 1038 625 c 6,15,-1
 1042 625 l 5,16,-1
 1042 624 l 5,17,-1
 976 441 l 5,18,-1
 969 441 l 6,19,20
 851.444 441 851.444 441 767 422 c 5,21,-1
 757 410 l 5,22,23
 751 378 751 378 751 354 c 4,24,25
 751 236 751 236 951 236 c 6,26,-1
 1229 236 l 5,27,-1
 1229 0 l 5,28,-1
 973 0 l 6,29,30
 836.575 0 836.575 0 759.787 34.8169 c 132,-1,31
 683 69.6338 683 69.6338 683 195 c 4,32,33
 683 240.1 683 240.1 702 394 c 5,34,-1
 688 409 l 5,35,36
 474.964 388.516 474.964 388.516 331.482 246.508 c 132,-1,37
 188 104.5 188 104.5 188 -107 c 4,38,39
 188 -513 188 -513 695 -513 c 4,40,41
 924.212 -513 924.212 -513 1136 -455 c 4,42,43
 1165.21 -447 1165.21 -447 1178 -447 c 6,44,-1
 1188 -447 l 5,45,46
 1188 -458 1188 -458 1155 -480 c 6,47,-1
 961 -618.5 l 6,48,49
 896 -666 896 -666 883 -673 c 4,50,51
 748 -751 748 -751 569 -751 c 132,-1,52
 390 -751 390 -751 242 -608.5 c 132,-1,53
 94 -466 94 -466 94 -207 c 4,54,55
 94 -41 94 -41 177 140 c 5,56,-1
 177 141 l 5,57,58
 251 301 251 301 375 439 c 5,59,-1
 365 461 l 5,60,-1
 362 461 l 6,61,62
 334 463 334 463 308 463 c 4,63,64
 141.714 463 141.714 463 32 367 c 4,65,66
 13.7139 351 13.7139 351 6.85695 351 c 132,-1,67
 0 351 0 351 0 357.5 c 4,0,1
396 -217 m 5,68,-1
 470 -46 l 5,69,-1
 692 -129 l 5,70,-1
 616 -305 l 5,71,-1
 396 -217 l 5,68,-1
EndSplineSet
EndChar

StartChar: jeeminitial
Encoding: 374 65183 117
Width: 1229
Flags: W
HStem: 0 239<0.105469 817 1086.89 1194> 465 37<201.679 225.353> 513 154<340.464 586.162>
AnchorPoint: "ArabicBelow" 685.5 -798 basechar 0
AnchorPoint: "ArabicAbove" 685.5 917 basechar 0
LayerCount: 2
Fore
SplineSet
0 49 m 6,0,-1
 0 239 l 5,1,-1
 817 239 l 5,2,-1
 827 261 l 5,3,4
 621.8 513 621.8 513 409 513 c 4,5,6
 355.5 513 355.5 513 285.5 489 c 132,-1,7
 215.5 465 215.5 465 207.75 465 c 132,-1,8
 200 465 200 465 200 475.5 c 132,-1,9
 200 486 200 486 213 502 c 5,10,-1
 214 502 l 5,11,12
 334 667 334 667 501 667 c 4,13,14
 641.5 667 641.5 667 790 559 c 4,15,16
 801 551 801 551 853 500 c 6,17,-1
 1005 352 l 6,18,19
 1123 237 1123 237 1194 237 c 5,20,-1
 1194 31 l 6,21,22
 1194 6.91304 1194 6.91304 1154 3.45652 c 132,-1,23
 1114 0 1114 0 1045 0 c 6,24,-1
 135 0 l 5,25,-1
 48 1 l 6,26,27
 0 1.55176 0 1.55176 0 49 c 6,0,-1
486.5 -459 m 5,28,-1
 560.5 -288 l 5,29,-1
 782.5 -372 l 5,30,-1
 706.5 -547 l 5,31,-1
 486.5 -459 l 5,28,-1
EndSplineSet
EndChar

StartChar: jeemmedial
Encoding: 375 65184 118
Width: 1229
Flags: W
HStem: 0 234<0.105469 851 1121.03 1229> 460 37<235.136 259.175> 508 154<373.882 619.179>
AnchorPoint: "ArabicBelow" 641 -798 basechar 0
AnchorPoint: "ArabicAbove" 641 917 basechar 0
LayerCount: 2
Fore
SplineSet
0 49 m 6,0,-1
 0 234 l 5,1,-1
 851 234 l 5,2,-1
 861 256 l 5,3,4
 655.8 508 655.8 508 442 508 c 4,5,6
 389.5 508 389.5 508 319.5 484 c 132,-1,7
 249.5 460 249.5 460 241.25 460 c 132,-1,8
 233 460 233 460 233 470 c 132,-1,9
 233 480 233 480 247 497 c 5,10,-1
 248 497 l 5,11,12
 366 662 366 662 535 662 c 4,13,14
 671.8 662 671.8 662 823 554 c 4,15,16
 836.479 544.372 836.479 544.372 1039 347 c 4,17,18
 1157 232 1157 232 1229 232 c 5,19,-1
 1229 -6 l 5,20,21
 1221.8 -4.06901e-05 1221.8 -4.06901e-05 951 0 c 6,22,-1
 48 0 l 6,23,24
 0 0 0 0 0 49 c 6,0,-1
485 -460 m 1,25,-1
 560 -289 l 1,26,-1
 782 -373 l 1,27,-1
 705 -548 l 1,28,-1
 485 -460 l 1,25,-1
1229 -6 m 5,29,-1
 1229 -7 l 5,30,-1
 1229 -6 l 5,29,-1
EndSplineSet
EndChar

StartChar: hahisolated
Encoding: 376 65185 119
Width: 1229
Flags: W
HStem: -734 235<429.028 819.23> 401 225<569 949.5> 440 239<219.062 392.5>
VStem: 132.5 93<-313.357 55.4981>
AnchorPoint: "ArabicBelow" 482.5 -984 basechar 0
AnchorPoint: "ArabicAbove" 482.5 929 basechar 0
LayerCount: 2
Fore
SplineSet
55.5 352 m 1,0,-1
 55.5 360 l 2,1,2
 55.5 366 55.5 366 63.5 396 c 0,3,4
 162.5 679 162.5 679 355.5 679 c 0,5,6
 435.5 679 435.5 679 611.5 653 c 256,7,8
 794.269 626 794.269 626 873.5 626 c 2,9,-1
 1060.5 626 l 1,10,-1
 949.5 401 l 1,11,12
 829.871 396.15 829.871 396.15 630.5 379 c 2,13,-1
 627.5 379 l 1,14,15
 493.5 340 493.5 340 359.5 196.5 c 128,-1,16
 225.5 53 225.5 53 225.5 -106 c 0,17,18
 225.5 -499 225.5 -499 682.5 -499 c 0,19,20
 851.5 -499 851.5 -499 1123.5 -424 c 2,21,-1
 1152.5 -418 l 2,22,23
 1162.5 -416 1162.5 -416 1167.5 -416 c 128,-1,24
 1172.5 -416 1172.5 -416 1173.5 -415 c 1,25,26
 1172.5 -420 1172.5 -420 1164 -429 c 2,27,-1
 1141.5 -452 l 1,28,-1
 996.5 -576.5 l 2,29,30
 939.5 -623 939.5 -623 910.5 -643 c 0,31,32
 765.5 -734 765.5 -734 584 -734 c 128,-1,33
 402.5 -734 402.5 -734 277.5 -609 c 0,34,35
 132.5 -464 132.5 -464 132.5 -206 c 0,36,37
 132.5 126 132.5 126 403.5 418 c 1,38,-1
 392.5 440 l 1,39,-1
 382.5 440 l 2,40,41
 342.5 442 342.5 442 313 442 c 0,42,43
 208.757 442 208.757 442 160.129 419 c 128,-1,44
 111.5 396 111.5 396 87.5 374 c 128,-1,45
 63.5 352 63.5 352 55.5 352 c 1,0,-1
EndSplineSet
EndChar

StartChar: hahfinal
Encoding: 377 65186 120
Width: 1229
Flags: W
HStem: -751 238<417.378 813.926> 0 236<782.563 1229> 441 173.196<769.647 976> 461 212<218.939 365>
VStem: 94 94<-310.021 48.4122> 683 68<132.317 381.004>
AnchorPoint: "ArabicBelow" 522 -1000 basechar 0
AnchorPoint: "ArabicAbove" 522 924 basechar 0
LayerCount: 2
Fore
SplineSet
0 360 m 132,-1,1
 0 369 0 369 29.5 415 c 4,2,3
 105.317 533.223 105.317 533.223 160 584 c 4,4,5
 255 673 255 673 374 673 c 4,6,7
 452.869 673 452.869 673 627.474 643.238 c 132,-1,8
 802.08 613.475 802.08 613.475 841.79 614.196 c 132,-1,9
 881.5 614.917 881.5 614.917 924.458 614.917 c 128,-1,10
 967.417 614.917 967.417 614.917 1038 625 c 5,11,-1
 1042 625 l 5,12,13
 1041 624 1041 624 1041 622 c 6,14,-1
 1041 621 l 5,15,-1
 976 441 l 5,16,-1
 969 441 l 6,17,18
 851.444 441 851.444 441 767 422 c 5,19,-1
 757 410 l 5,20,21
 751 378 751 378 751 354 c 4,22,23
 751 236 751 236 950 236 c 6,24,-1
 1229 236 l 5,25,-1
 1229 0 l 5,26,-1
 973 0 l 6,27,28
 836.575 0 836.575 0 759.787 34.8169 c 132,-1,29
 683 69.6338 683 69.6338 683 195 c 4,30,31
 683 240.1 683 240.1 702 394 c 5,32,-1
 688 409 l 5,33,34
 474.964 388.516 474.964 388.516 331.482 246.508 c 132,-1,35
 188 104.5 188 104.5 188 -107 c 4,36,37
 188 -513 188 -513 695 -513 c 4,38,39
 923.333 -513 923.333 -513 1136 -455 c 4,40,41
 1165.33 -447 1165.33 -447 1178 -447 c 6,42,-1
 1188 -447 l 5,43,44
 1188 -458 1188 -458 1155 -480 c 6,45,-1
 961 -618.5 l 6,46,47
 896 -666 896 -666 883 -673 c 4,48,49
 748 -751 748 -751 567.5 -751 c 132,-1,50
 387 -751 387 -751 250 -617 c 4,51,52
 94 -466 94 -466 94 -207 c 4,53,54
 94 -30 94 -30 176 140 c 5,55,-1
 176 141 l 5,56,57
 253.151 305.727 253.151 305.727 375 439 c 5,58,-1
 365 461 l 5,59,-1
 362 461 l 6,60,61
 332 463 332 463 308 463 c 4,62,63
 141.714 463 141.714 463 32 367 c 4,64,65
 13.7139 351 13.7139 351 6.85695 351 c 132,-1,0
 0 351 0 351 0 360 c 132,-1,1
EndSplineSet
EndChar

StartChar: hahinitial
Encoding: 378 65187 121
Width: 1229
Flags: W
HStem: 0 232<0.105469 817 1086.89 1194> 458 37<201.679 225.353> 506 154<340.464 586.162>
AnchorPoint: "ArabicBelow" 658 -250 basechar 0
AnchorPoint: "ArabicAbove" 658 917 basechar 0
LayerCount: 2
Fore
SplineSet
0 49 m 2,0,-1
 0 232 l 5,1,-1
 817 232 l 1,2,-1
 827 254 l 1,3,4
 621.8 506 621.8 506 409 506 c 0,5,6
 355.5 506 355.5 506 285.5 482 c 128,-1,7
 215.5 458 215.5 458 207.75 458 c 128,-1,8
 200 458 200 458 200 468.5 c 128,-1,9
 200 479 200 479 213 495 c 1,10,-1
 214 495 l 1,11,12
 334 660 334 660 501 660 c 0,13,14
 641.5 660 641.5 660 790 552 c 0,15,16
 801 544 801 544 853 493 c 2,17,-1
 1005 345 l 2,18,19
 1123 230 1123 230 1194 230 c 1,20,-1
 1194 31 l 2,21,22
 1194 6.91304 1194 6.91304 1154 3.45652 c 128,-1,23
 1114 0 1114 0 1045 0 c 2,24,-1
 135 0 l 1,25,-1
 48 1 l 2,26,27
 0 1.55172 0 1.55172 0 49 c 2,0,-1
EndSplineSet
EndChar

StartChar: hahmedial
Encoding: 379 65188 122
Width: 1229
Flags: W
HStem: 0 234<0.105469 851 1121.03 1229> 460 37<235.136 259.175> 508 154<373.882 619.179>
AnchorPoint: "ArabicBelow" 642 -250 basechar 0
AnchorPoint: "ArabicAbove" 642 918 basechar 0
LayerCount: 2
Fore
SplineSet
0 49 m 6,0,-1
 0 234 l 5,1,-1
 851 234 l 5,2,-1
 861 256 l 5,3,4
 655.8 508 655.8 508 442 508 c 4,5,6
 389.5 508 389.5 508 319.5 484 c 132,-1,7
 249.5 460 249.5 460 241.25 460 c 132,-1,8
 233 460 233 460 233 470 c 132,-1,9
 233 480 233 480 247 497 c 5,10,-1
 248 497 l 5,11,12
 366 662 366 662 535 662 c 4,13,14
 671.8 662 671.8 662 823 554 c 4,15,16
 836.479 544.372 836.479 544.372 1039 347 c 4,17,18
 1157 232 1157 232 1229 232 c 5,19,-1
 1229 -6 l 5,20,21
 1221.8 -4.06901e-05 1221.8 -4.06901e-05 951 0 c 6,22,-1
 48 0 l 6,23,24
 0 0 0 0 0 49 c 6,0,-1
1229 -6 m 5,25,-1
 1229 -7 l 5,26,-1
 1229 -6 l 5,25,-1
EndSplineSet
EndChar

StartChar: khahisolated
Encoding: 380 65189 123
Width: 1229
Flags: W
HStem: -734 235<429.028 819.23> 401 225<569 949.5> 440 239<219.062 392.5>
VStem: 132.5 93<-313.357 55.4981>
AnchorPoint: "ArabicBelow" 482.5 -984 basechar 0
AnchorPoint: "ArabicAbove" 482.5 1392 basechar 0
LayerCount: 2
Fore
SplineSet
55.5 352 m 1,0,-1
 55.5 360 l 2,1,2
 55.5 366 55.5 366 63.5 396 c 0,3,4
 162.5 679 162.5 679 355.5 679 c 0,5,6
 435.5 679 435.5 679 611.5 653 c 256,7,8
 794.269 626 794.269 626 873.5 626 c 2,9,-1
 1060.5 626 l 1,10,-1
 949.5 401 l 1,11,12
 829.871 396.15 829.871 396.15 630.5 379 c 2,13,-1
 627.5 379 l 1,14,15
 493.5 340 493.5 340 359.5 196.5 c 128,-1,16
 225.5 53 225.5 53 225.5 -106 c 0,17,18
 225.5 -499 225.5 -499 682.5 -499 c 0,19,20
 851.5 -499 851.5 -499 1123.5 -424 c 2,21,-1
 1152.5 -418 l 2,22,23
 1162.5 -416 1162.5 -416 1167.5 -416 c 128,-1,24
 1172.5 -416 1172.5 -416 1173.5 -415 c 1,25,26
 1172.5 -420 1172.5 -420 1164 -429 c 2,27,-1
 1141.5 -452 l 1,28,-1
 996.5 -576.5 l 2,29,30
 939.5 -623 939.5 -623 910.5 -643 c 0,31,32
 765.5 -734 765.5 -734 584 -734 c 128,-1,33
 402.5 -734 402.5 -734 277.5 -609 c 0,34,35
 132.5 -464 132.5 -464 132.5 -206 c 0,36,37
 132.5 126 132.5 126 403.5 418 c 1,38,-1
 392.5 440 l 1,39,-1
 382.5 440 l 2,40,41
 342.5 442 342.5 442 313 442 c 0,42,43
 208.757 442 208.757 442 160.129 419 c 128,-1,44
 111.5 396 111.5 396 87.5 374 c 128,-1,45
 63.5 352 63.5 352 55.5 352 c 1,0,-1
437.5 971 m 5,46,-1
 512.5 1142 l 5,47,-1
 734.5 1058 l 5,48,-1
 657.5 883 l 5,49,-1
 437.5 971 l 5,46,-1
EndSplineSet
EndChar

StartChar: khahfinal
Encoding: 381 65190 124
Width: 1229
Flags: W
HStem: -751 238<417.588 814.145> 0 239<779.916 1229> 441 172.61<769.647 891.035 891.035 976> 461 212<218.939 365>
VStem: 94 94<-309.846 43.3774> 683 68<132.317 381.004>
AnchorPoint: "ArabicBelow" 516 -1000 basechar 0
AnchorPoint: "ArabicAbove" 516 1392 basechar 0
LayerCount: 2
Fore
SplineSet
0 357.5 m 4,0,1
 0 383.616 0 383.616 67 470.808 c 132,-1,2
 134 558 134 558 160 584 c 4,3,4
 255 673 255 673 374 673 c 4,5,6
 452.869 673 452.869 673 627.077 643.305 c 132,-1,7
 801.286 613.61 801.286 613.61 888.321 613.61 c 128,-1,8
 975.357 613.61 975.357 613.61 1038 625 c 5,9,10
 1041 623 1041 623 1041 622 c 5,11,-1
 976 441 l 5,12,-1
 969 441 l 6,13,14
 851.444 441 851.444 441 767 422 c 5,15,-1
 757 410 l 5,16,17
 751 378 751 378 751 354 c 4,18,19
 751 239 751 239 951 239 c 6,20,-1
 1229 239 l 5,21,-1
 1229 0 l 5,22,-1
 973 0 l 6,23,24
 836.575 0 836.575 0 759.787 34.8169 c 132,-1,25
 683 69.6338 683 69.6338 683 195 c 4,26,27
 683 240.1 683 240.1 702 394 c 5,28,-1
 688 409 l 5,29,30
 474.964 388.516 474.964 388.516 331.482 246.508 c 132,-1,31
 188 104.5 188 104.5 188 -107 c 4,32,33
 188 -513 188 -513 695 -513 c 4,34,35
 924.212 -513 924.212 -513 1136 -455 c 4,36,37
 1165.21 -447 1165.21 -447 1178 -447 c 6,38,-1
 1188 -447 l 5,39,40
 1188 -458 1188 -458 1155 -480 c 6,41,-1
 961 -618.5 l 6,42,43
 896 -666 896 -666 883 -673 c 4,44,45
 748 -751 748 -751 569 -751 c 132,-1,46
 390 -751 390 -751 242 -608.5 c 132,-1,47
 94 -466 94 -466 94 -207 c 4,48,49
 94 -41 94 -41 177 140 c 5,50,-1
 177 141 l 5,51,52
 251 301 251 301 375 439 c 5,53,-1
 365 461 l 5,54,-1
 362 461 l 6,55,56
 334 463 334 463 308 463 c 4,57,58
 141.714 463 141.714 463 32 367 c 4,59,60
 13.7139 351 13.7139 351 6.85695 351 c 132,-1,61
 0 351 0 351 0 357.5 c 4,0,1
365 970 m 5,62,-1
 440 1141 l 5,63,-1
 662 1057 l 5,64,-1
 585 882 l 5,65,-1
 365 970 l 5,62,-1
EndSplineSet
EndChar

StartChar: khahinitial
Encoding: 382 65191 125
Width: 1229
Flags: W
HStem: 0 232<0.105469 817 1086.89 1194> 458 37<201.679 225.353> 506 154<340.464 586.162>
AnchorPoint: "ArabicBelow" 659 -250 basechar 0
AnchorPoint: "ArabicAbove" 659 1277 basechar 0
LayerCount: 2
Fore
SplineSet
0 49 m 2,0,-1
 0 232 l 5,1,-1
 817 232 l 1,2,-1
 827 254 l 1,3,4
 621.8 506 621.8 506 409 506 c 0,5,6
 355.5 506 355.5 506 285.5 482 c 128,-1,7
 215.5 458 215.5 458 207.75 458 c 128,-1,8
 200 458 200 458 200 468.5 c 128,-1,9
 200 479 200 479 213 495 c 1,10,-1
 214 495 l 1,11,12
 334 660 334 660 501 660 c 0,13,14
 641.5 660 641.5 660 790 552 c 0,15,16
 801 544 801 544 853 493 c 2,17,-1
 1005 345 l 2,18,19
 1123 230 1123 230 1194 230 c 1,20,-1
 1194 31 l 2,21,22
 1194 6.91304 1194 6.91304 1154 3.45652 c 128,-1,23
 1114 0 1114 0 1045 0 c 2,24,-1
 135 0 l 1,25,-1
 48 1 l 2,26,27
 0 1.55172 0 1.55172 0 49 c 2,0,-1
396 850 m 1,28,-1
 471 1021 l 1,29,-1
 693 937 l 1,30,-1
 616 762 l 1,31,-1
 396 850 l 1,28,-1
EndSplineSet
EndChar

StartChar: khahmedial
Encoding: 383 65192 126
Width: 1229
Flags: W
HStem: 0 232<0.105469 851 1121.03 1229> 458 37<235.136 259.175> 506 154<373.882 619.179>
AnchorPoint: "ArabicBelow" 645 -250 basechar 0
AnchorPoint: "ArabicAbove" 645 1276 basechar 0
LayerCount: 2
Fore
SplineSet
0 49 m 2,0,-1
 0 232 l 5,1,-1
 851 232 l 5,2,-1
 861 254 l 5,3,4
 655.8 506 655.8 506 442 506 c 4,5,6
 389.5 506 389.5 506 319.5 482 c 132,-1,7
 249.5 458 249.5 458 241.25 458 c 132,-1,8
 233 458 233 458 233 468 c 132,-1,9
 233 478 233 478 247 495 c 5,10,-1
 248 495 l 5,11,12
 366 660 366 660 535 660 c 4,13,14
 671.8 660 671.8 660 823 552 c 4,15,16
 836.479 542.372 836.479 542.372 1039 345 c 4,17,18
 1157 230 1157 230 1229 230 c 5,19,-1
 1229 -6 l 1,20,21
 1221.8 -4.06901e-05 1221.8 -4.06901e-05 951 0 c 2,22,-1
 48 0 l 2,23,24
 0 0 0 0 0 49 c 2,0,-1
391 853 m 5,25,-1
 466 1024 l 5,26,-1
 688 940 l 5,27,-1
 611 765 l 5,28,-1
 391 853 l 5,25,-1
1229 -6 m 1,29,-1
 1229 -7 l 1,30,-1
 1229 -6 l 1,29,-1
EndSplineSet
EndChar

StartChar: dalisolated
Encoding: 384 65193 127
Width: 1229
Flags: W
HStem: -1 227<403.929 809.45>
VStem: 290.5 74<270.273 349.962>
AnchorPoint: "ArabicBelow" 596.5 -251 basechar 0
AnchorPoint: "ArabicAbove" 596.5 1082 basechar 0
LayerCount: 2
Fore
SplineSet
290.5 164 m 4,0,1
 290.5 232.148 290.5 232.148 324 340.074 c 132,-1,2
 357.5 448 357.5 448 367.5 451 c 5,3,-1
 367.5 446 l 6,4,5
 367.5 438 367.5 438 364.5 425 c 5,6,-1
 364.5 424 l 6,7,8
 359.5 386.5 359.5 386.5 359.5 373 c 4,9,10
 359.5 253 359.5 253 490.5 235 c 4,11,12
 555.75 226 555.75 226 666.625 226 c 132,-1,13
 777.5 226 777.5 226 810.5 244 c 5,14,-1
 816.5 257 l 5,15,16
 801.5 475 801.5 475 705.5 652 c 5,17,-1
 839.5 828 l 5,18,-1
 840.5 829 l 5,19,20
 840.5 830.75 840.5 830.75 841.5 830.75 c 1,21,-1
 842 830.5 l 5,22,23
 842.5 830 842.5 830 859 800.5 c 4,24,25
 919.901 691.616 919.901 691.616 936 411.5 c 4,26,27
 938.5 368 938.5 368 938.5 337 c 4,28,29
 938.5 278 938.5 278 933.5 243 c 6,30,-1
 904.5 42 l 5,31,-1
 904.5 41 l 6,32,33
 903.065 13.7316 903.065 13.7316 808.5 8 c 4,34,35
 775.5 6 775.5 6 724.5 4 c 6,36,-1
 624.5 0.5 l 6,37,38
 579.5 -1 579.5 -1 542.5 -1 c 4,39,40
 476 -1 476 -1 433.5 4 c 4,41,42
 290.5 24 290.5 24 290.5 164 c 4,0,1
841.5 831 m 5,43,44
 841.5 832 841.5 832 842.5 832 c 5,45,-1
 841.5 831 l 5,43,44
EndSplineSet
EndChar

StartChar: dalfinal
Encoding: 385 65194 128
Width: 1229
Flags: W
HStem: 0 232<161.092 578.95 703 1229>
AnchorPoint: "ArabicBelow" 722.5 -250 basechar 0
AnchorPoint: "ArabicAbove" 722.5 1082 basechar 0
LayerCount: 2
Fore
SplineSet
60 164 m 0,0,1
 60 230.462 60 230.462 86 315.731 c 0,2,3
 125.752 446.101 125.752 446.101 138 451 c 1,4,-1
 138 446 l 1,5,-1
 130 373 l 2,6,7
 117.046 254.794 117.046 254.794 260 235 c 0,8,9
 327.5 226 327.5 226 437.25 226 c 128,-1,10
 547 226 547 226 580 244 c 1,11,-1
 586 257 l 1,12,13
 572.504 467.148 572.504 467.148 475 652 c 1,14,-1
 609 828 l 1,15,-1
 610 829 l 1,16,17
 610 834 610 834 613 828 c 0,18,19
 708 638 708 638 708 325.41 c 0,20,21
 708 282.819 708 282.819 703 232 c 1,22,-1
 1229 232 l 1,23,-1
 1229 0 l 1,24,-1
 286 0 l 2,25,26
 230 0 230 0 202 4 c 0,27,28
 60 24.2861 60 24.2861 60 164 c 0,0,1
611 831 m 1,29,30
 611 832 611 832 612 832 c 1,31,-1
 611 831 l 1,29,30
EndSplineSet
EndChar

StartChar: thalisolated
Encoding: 386 65195 129
Width: 1229
Flags: W
HStem: -2 227<403.929 809.45>
VStem: 290.5 75<269.273 347.84>
AnchorPoint: "ArabicBelow" 636.5 -252 basechar 0
AnchorPoint: "ArabicAbove" 636.5 1392 basechar 0
LayerCount: 2
Fore
SplineSet
290.5 163 m 0,0,1
 290.5 226.615 290.5 226.615 316.5 313.308 c 0,2,3
 355.995 444.998 355.995 444.998 368.5 450 c 1,4,-1
 368.5 445 l 2,5,6
 368.5 437 368.5 437 365.5 424 c 1,7,-1
 365.5 423 l 2,8,9
 360.5 385.5 360.5 385.5 360.5 372 c 0,10,11
 360.5 252 360.5 252 490.5 234 c 0,12,13
 558 225 558 225 667.75 225 c 128,-1,14
 777.5 225 777.5 225 810.5 243 c 1,15,-1
 816.5 256 l 1,16,17
 803.004 466.148 803.004 466.148 705.5 651 c 1,18,-1
 839.5 827 l 1,19,-1
 840.5 828 l 1,20,21
 840.5 829.75 840.5 829.75 841.5 829.75 c 1,22,23
 936.674 643.295 936.674 643.295 938.5 330 c 0,24,25
 938.5 277 938.5 277 933.5 242 c 2,26,-1
 905.5 41 l 1,27,-1
 905.5 40 l 1,28,29
 901.158 12.502 901.158 12.502 809 7 c 0,30,31
 775.5 5 775.5 5 724.5 3 c 2,32,-1
 624.5 -0.5 l 2,33,34
 579.5 -2 579.5 -2 542.5 -2 c 0,35,36
 476 -2 476 -2 433.5 3 c 0,37,38
 290.5 23 290.5 23 290.5 163 c 0,0,1
570.5 979 m 1,39,-1
 638.5 1142 l 1,40,-1
 831.5 1070 l 1,41,-1
 761.5 903 l 1,42,-1
 570.5 979 l 1,39,-1
841.5 830 m 1,43,44
 841.5 831 841.5 831 842.5 831 c 1,45,-1
 841.5 830 l 1,43,44
EndSplineSet
EndChar

StartChar: thalfinal
Encoding: 387 65196 130
Width: 1229
Flags: W
HStem: 0 232<221.092 638.95 763 1229>
AnchorPoint: "ArabicBelow" 602.5 -250 basechar 0
AnchorPoint: "ArabicAbove" 602.5 1392 basechar 0
LayerCount: 2
Fore
SplineSet
120 164 m 0,0,1
 120 230.462 120 230.462 146 315.731 c 0,2,3
 185.752 446.101 185.752 446.101 198 451 c 1,4,-1
 198 446 l 1,5,-1
 190 373 l 2,6,7
 177.046 254.794 177.046 254.794 320 235 c 0,8,9
 387.5 226 387.5 226 497.25 226 c 128,-1,10
 607 226 607 226 640 244 c 1,11,-1
 646 257 l 1,12,13
 632.504 467.148 632.504 467.148 535 652 c 1,14,-1
 669 828 l 1,15,-1
 670 829 l 1,16,17
 670 834 670 834 673 828 c 0,18,19
 768 638 768 638 768 325.41 c 0,20,21
 768 282.819 768 282.819 763 232 c 1,22,-1
 1229 232 l 1,23,-1
 1229 0 l 1,24,-1
 346 0 l 2,25,26
 290 0 290 0 262 4 c 0,27,28
 120 24.2861 120 24.2861 120 164 c 0,0,1
671 831 m 1,29,30
 671 832 671 832 672 832 c 1,31,-1
 671 831 l 1,29,30
430 978 m 5,32,-1
 497 1141 l 5,33,-1
 691 1069 l 5,34,-1
 620 902 l 5,35,-1
 430 978 l 5,32,-1
EndSplineSet
EndChar

StartChar: rehisolated
Encoding: 388 65197 131
Width: 1229
Flags: W
HStem: -604 238<448.461 690.107> -255 1<204 205.312>
VStem: 927 99<-122.977 82.6748>
AnchorPoint: "ArabicBelow" 619 -854 basechar 0
AnchorPoint: "ArabicAbove" 619 715 basechar 0
LayerCount: 2
Fore
SplineSet
203 -255 m 1,0,-1
 204 -254 l 1,1,2
 205 -254 205 -254 206 -253 c 1,3,-1
 206 -256 l 1,4,5
 205 -255 205 -255 203 -255 c 1,0,-1
206 -256 m 1,6,7
 219.333 -261.333 219.333 -261.333 261.167 -290.167 c 128,-1,8
 303 -319 303 -319 371.5 -342.5 c 128,-1,9
 440 -366 440 -366 515 -366 c 0,10,11
 659 -366 659 -366 771.5 -264 c 128,-1,12
 884 -162 884 -162 927 -15 c 1,13,-1
 927 -7 l 1,14,15
 882.113 115.95 882.113 115.95 741 249 c 1,16,-1
 839 465 l 1,17,18
 1026 341 1026 341 1026 78 c 0,19,20
 1026 -172.583 1026 -172.583 911 -370 c 0,21,22
 779 -604 779 -604 575 -604 c 0,23,24
 484 -604 484 -604 369 -495 c 0,25,26
 264.156 -396.324 264.156 -396.324 221 -295 c 1,27,-1
 221 -294 l 1,28,29
 208 -267 208 -267 206 -256 c 1,6,7
EndSplineSet
EndChar

StartChar: rehfinal
Encoding: 389 65198 132
Width: 1229
Flags: W
HStem: -604.014 238<247.784 487.94> -255 1<1 2.3125> 0 232<816.204 1229>
AnchorPoint: "ArabicBelow" 596 -854 basechar 0
AnchorPoint: "ArabicAbove" 596 715 basechar 0
LayerCount: 2
Fore
SplineSet
0 -255 m 1,0,-1
 1 -254 l 1,1,2
 2 -254 2 -254 3 -253 c 1,3,-1
 3 -256 l 1,4,5
 2 -255 2 -255 0 -255 c 1,0,-1
3 -256 m 1,6,-1
 8.625 -258.5 l 1,7,-1
 15.5 -262 l 1,8,-1
 23.625 -266.75 l 1,9,-1
 96.9066 -316.197 l 2,10,11
 121.071 -329.039 121.071 -329.039 185.045 -347.245 c 0,12,13
 250.999 -366.014 250.999 -366.014 318.776 -366.014 c 0,14,15
 457.289 -366.014 457.289 -366.014 575 -259 c 0,16,17
 672.239 -170.598 672.239 -170.598 724 -15 c 1,18,-1
 724 -7 l 1,19,20
 701.224 56.8981 701.224 56.8981 657.677 111.516 c 128,-1,21
 614.13 166.133 614.13 166.133 579.824 198.973 c 128,-1,22
 545.518 231.814 545.518 231.814 538 241 c 1,23,-1
 636 457 l 1,24,25
 705.982 405.853 705.982 405.853 739.173 361.057 c 128,-1,26
 772.364 316.26 772.364 316.26 801.609 232 c 1,27,-1
 1229 232 l 5,28,-1
 1229 0 l 1,29,-1
 820.253 0 l 1,30,31
 801.728 -218.06 801.728 -218.06 717.713 -354.255 c 128,-1,32
 633.697 -490.451 633.697 -490.451 555.617 -547.233 c 128,-1,33
 477.538 -604.014 477.538 -604.014 375.185 -604.014 c 0,34,35
 265.855 -604.014 265.855 -604.014 118.5 -446.75 c 0,36,37
 53.1265 -372.953 53.1265 -372.953 18 -295 c 1,38,-1
 18 -294 l 1,39,40
 8.36833 -274.821 8.36833 -274.821 3 -256 c 1,6,-1
EndSplineSet
EndChar

StartChar: zainisolated
Encoding: 390 65199 133
Width: 1229
Flags: W
HStem: -604 238<446.228 689.999> -255 1<204 205.312>
VStem: 927 99<-116.605 79.1953>
AnchorPoint: "ArabicBelow" 582 -854 basechar 0
AnchorPoint: "ArabicAbove" 582 1280 basechar 0
LayerCount: 2
Fore
SplineSet
203 -255 m 1,0,-1
 204 -254 l 1,1,2
 205 -254 205 -254 206 -253 c 1,3,-1
 206 -256 l 1,4,5
 205 -255 205 -255 203 -255 c 1,0,-1
206 -256 m 1,6,7
 215 -259 215 -259 258.5 -289 c 128,-1,8
 302 -319 302 -319 371.5 -342.5 c 128,-1,9
 441 -366 441 -366 514 -366 c 0,10,11
 661 -366 661 -366 771.5 -264.5 c 128,-1,12
 882 -163 882 -163 927 -15 c 1,13,-1
 927 -7 l 1,14,15
 880 117 880 117 740 249 c 1,16,-1
 838 465 l 1,17,18
 1026 339 1026 339 1026 87.5 c 128,-1,19
 1026 -164 1026 -164 910 -370 c 0,20,21
 778 -604 778 -604 574 -604 c 0,22,23
 481 -604 481 -604 374.5 -502 c 128,-1,24
 268 -400 268 -400 220 -295 c 1,25,-1
 220 -294 l 1,26,27
 207.455 -264.727 207.455 -264.727 206 -256 c 1,6,7
554 859 m 1,28,-1
 628 1030 l 1,29,-1
 850 946 l 1,30,-1
 774 771 l 1,31,-1
 554 859 l 1,28,-1
EndSplineSet
EndChar

StartChar: zainfinal
Encoding: 391 65200 134
Width: 1229
Flags: W
HStem: -604.014 238<247.784 487.94> -255 1<1 2.3125> 0 232<816.204 1229>
AnchorPoint: "ArabicBelow" 596 -854 basechar 0
AnchorPoint: "ArabicAbove" 596 1280 basechar 0
LayerCount: 2
Fore
SplineSet
0 -255 m 1,0,-1
 1 -254 l 1,1,2
 2 -254 2 -254 3 -253 c 1,3,-1
 3 -256 l 1,4,5
 2 -255 2 -255 0 -255 c 1,0,-1
3 -256 m 1,6,-1
 8.625 -258.5 l 1,7,-1
 15.5 -262 l 1,8,-1
 23.625 -266.75 l 1,9,-1
 96.9066 -316.197 l 2,10,11
 121.071 -329.039 121.071 -329.039 185.045 -347.245 c 0,12,13
 250.999 -366.014 250.999 -366.014 318.776 -366.014 c 0,14,15
 457.289 -366.014 457.289 -366.014 575 -259 c 0,16,17
 672.239 -170.598 672.239 -170.598 724 -15 c 1,18,-1
 724 -7 l 1,19,20
 701.224 56.8981 701.224 56.8981 657.677 111.516 c 128,-1,21
 614.13 166.133 614.13 166.133 579.824 198.973 c 128,-1,22
 545.518 231.814 545.518 231.814 538 241 c 1,23,-1
 636 457 l 1,24,25
 705.982 405.853 705.982 405.853 739.173 361.057 c 128,-1,26
 772.364 316.26 772.364 316.26 801.609 232 c 1,27,-1
 1229 232 l 5,28,-1
 1229 0 l 1,29,-1
 820.253 0 l 1,30,31
 801.728 -218.06 801.728 -218.06 717.713 -354.255 c 128,-1,32
 633.697 -490.451 633.697 -490.451 555.617 -547.233 c 128,-1,33
 477.538 -604.014 477.538 -604.014 375.185 -604.014 c 0,34,35
 265.855 -604.014 265.855 -604.014 118.5 -446.75 c 0,36,37
 53.1265 -372.953 53.1265 -372.953 18 -295 c 1,38,-1
 18 -294 l 1,39,40
 8.36833 -274.821 8.36833 -274.821 3 -256 c 1,6,-1
423 859 m 1,41,-1
 497 1030 l 1,42,-1
 719 946 l 1,43,-1
 643 771 l 1,44,-1
 423 859 l 1,41,-1
EndSplineSet
EndChar

StartChar: seenisolated
Encoding: 392 65201 135
Width: 1229
Flags: W
HStem: -509 231<138.499 437.317> -2 218<953.968 1133.52>
VStem: 9 38<-123.869 126.992> 846 94<280.655 487.869> 1135 83<243.908 253 253 453.905>
AnchorPoint: "ArabicBelow" 534.5 -759 basechar 0
AnchorPoint: "ArabicAbove" 534.5 866 basechar 0
LayerCount: 2
Fore
SplineSet
9 -74 m 4,0,1
 9 147 9 147 92 332 c 6,2,-1
 107.5 364 l 6,3,4
 114 377 114 377 118 383 c 5,5,6
 117 374 117 374 113 360 c 6,7,-1
 104 327 l 5,8,-1
 104 326 l 5,9,10
 47 136 47 136 47 13 c 4,11,12
 47 -278 47 -278 288 -278 c 4,13,14
 362 -278 362 -278 446 -245.5 c 132,-1,15
 530 -213 530 -213 576 -148 c 5,16,-1
 578 -139 l 5,17,18
 578 84 578 84 481 334 c 5,19,-1
 573 525.5 l 6,20,21
 576 532 576 532 576 533 c 4,22,23
 576 538 576 538 579 526 c 6,24,25
 624.169 425.551 624.169 425.551 649 246 c 5,26,-1
 658 236 l 5,27,28
 733.13 238.348 733.13 238.348 823 257 c 5,29,-1
 829 263 l 5,30,31
 846 300 846 300 846 343 c 132,-1,32
 846 386 846 386 840 415 c 5,33,-1
 936 574 l 5,34,35
 940 559 940 559 940 477 c 132,-1,36
 940 395 940 395 908 294 c 5,37,-1
 910 278 l 5,38,39
 965 216 965 216 1058 216 c 4,40,41
 1114 216 1114 216 1133 241 c 5,42,-1
 1135 253 l 5,43,44
 1132 358 1132 358 1096 457 c 5,45,-1
 1187 616 l 5,46,47
 1218 537 1218 537 1218 281 c 6,48,-1
 1218 245 l 6,49,50
 1218 241 1218 241 1220 244 c 5,51,-1
 1217 236 l 5,52,-1
 1210 44 l 6,53,54
 1209 -2 1209 -2 1121.5 -2 c 132,-1,55
 1034 -2 1034 -2 968 29 c 5,56,-1
 967 30 l 5,57,58
 898 58 898 58 861 90 c 5,59,-1
 850 88 l 5,60,61
 824.299 43.9403 824.299 43.9403 787 22 c 5,62,-1
 786 22 l 5,63,64
 749 1 749 1 662 1 c 5,65,-1
 653 -9 l 5,66,67
 630.316 -179.133 630.316 -179.133 563.5 -333.5 c 4,68,69
 549 -367 549 -367 536 -384 c 4,70,71
 494 -441 494 -441 415 -475 c 132,-1,72
 336 -509 336 -509 275 -509 c 4,73,74
 9 -509 9 -509 9 -74 c 4,0,1
EndSplineSet
EndChar

StartChar: seenfinal
Encoding: 393 65202 136
Width: 1229
Flags: W
HStem: -509 231<147.499 448.405> -2 218<979.065 1141.4>
VStem: 18 38<-123.869 131.798> 855 94<280.655 487.869> 1144 83<241 453.905> 1227 2<230.908 231>
AnchorPoint: "ArabicBelow" 513.5 -759 basechar 0
AnchorPoint: "ArabicAbove" 513.5 866 basechar 0
LayerCount: 2
Fore
SplineSet
18 -74 m 4,0,1
 18 156.778 18 156.778 101 332 c 6,2,-1
 116.5 364 l 6,3,4
 123 377 123 377 127 383 c 5,5,6
 126 374 126 374 122 360 c 6,7,-1
 113 327 l 5,8,-1
 113 326 l 5,9,10
 56 136 56 136 56 13 c 4,11,12
 56 -278 56 -278 297 -278 c 4,13,14
 366.877 -278 366.877 -278 453.716 -244.401 c 132,-1,15
 540.555 -210.803 540.555 -210.803 585 -148 c 5,16,-1
 587 -139 l 5,17,18
 587 84 587 84 490 334 c 5,19,-1
 582 525.5 l 6,20,21
 585 532 585 532 585 533 c 4,22,23
 585 538 585 538 588 526 c 6,24,25
 633.169 425.551 633.169 425.551 658 246 c 5,26,-1
 667 236 l 5,27,28
 742.13 238.348 742.13 238.348 832 257 c 5,29,-1
 838 263 l 5,30,31
 855 300 855 300 855 343 c 132,-1,32
 855 386 855 386 849 415 c 5,33,-1
 945 574 l 5,34,35
 949 559 949 559 949 477 c 132,-1,36
 949 395 949 395 917 294 c 5,37,-1
 919 278 l 5,38,39
 974 216 974 216 1067 216 c 4,40,41
 1123 216 1123 216 1142 241 c 5,42,-1
 1144 253 l 5,43,44
 1141 358 1141 358 1105 457 c 5,45,-1
 1196 616 l 5,46,47
 1227 551.044 1227 551.044 1227 281 c 6,48,-1
 1227 232 l 6,49,50
 1227 227.999 1227 227.999 1229 231 c 5,51,-1
 1229 0 l 5,52,-1
 1185 0 l 5,53,-1
 1120 -2 l 6,54,55
 1043 -2 1043 -2 977 29 c 5,56,-1
 976 30 l 5,57,58
 907 58 907 58 870 90 c 5,59,-1
 859 88 l 5,60,61
 833.299 43.9403 833.299 43.9403 796 22 c 5,62,-1
 795 22 l 5,63,64
 758 1 758 1 671 1 c 5,65,-1
 662 -9 l 5,66,67
 649.796 -100.533 649.796 -100.533 618.398 -200.266 c 4,68,69
 571.441 -349.424 571.441 -349.424 545 -384 c 4,70,71
 500.517 -444.369 500.517 -444.369 422.758 -476.685 c 132,-1,72
 345 -509 345 -509 284 -509 c 4,73,74
 18 -509 18 -509 18 -74 c 4,0,1
EndSplineSet
EndChar

StartChar: seeninitial
Encoding: 394 65203 137
Width: 1229
Flags: W
HStem: -1.99998 213<979.13 1142.43> 51 181<347.176 448.108 522.148 572.604>
VStem: 459 89<271.016 497.146> 859 91<276.263 486.99> 1146 82<236 239 239 248 248 448.905> 1228 1<238.908 239>
AnchorPoint: "ArabicBelow" 674.5 -252 basechar 0
AnchorPoint: "ArabicAbove" 674.5 866 basechar 0
LayerCount: 2
Fore
SplineSet
0 49 m 2,0,-1
 0 232 l 5,1,-1
 322 232 l 6,2,3
 421 232 421 232 449 260 c 5,4,-1
 453 267 l 5,5,6
 459 294 459 294 459 331.5 c 132,-1,7
 459 369 459 369 450 422 c 5,8,-1
 542 581 l 5,9,10
 548 557 548 557 548 480.7 c 132,-1,11
 548 404.4 548 404.4 516 270 c 5,12,-1
 521 253 l 5,13,14
 557.273 232 557.273 232 654.136 232 c 4,15,16
 809.545 232 809.545 232 842 253 c 5,17,-1
 847 259 l 5,18,19
 859 296 859 296 859 341.5 c 132,-1,20
 859 387 859 387 851 412 c 5,21,-1
 946 569 l 5,22,23
 950 554 950 554 950 475.5 c 132,-1,24
 950 397 950 397 918 289 c 5,25,-1
 921 273 l 5,26,27
 975 211 975 211 1068 211 c 4,28,29
 1125 211 1125 211 1143 236 c 5,30,-1
 1146 248 l 5,31,32
 1142 353 1142 353 1107 452 c 5,33,-1
 1197 611 l 5,34,35
 1228 532 1228 532 1228 276 c 6,36,-1
 1228 240 l 6,37,38
 1228 236 1228 236 1229 239 c 5,39,-1
 1227 231 l 5,40,-1
 1220 44 l 2,41,42
 1218.28 -1.99997 1218.28 -1.99997 1131.64 -1.99998 c 128,-1,43
 1045 -2 1045 -2 977 29 c 1,44,-1
 977 30 l 1,45,46
 907 59 907 59 870 90 c 1,47,-1
 861 88 l 1,48,49
 830 42 830 42 790 21.5 c 128,-1,50
 750 1 750 1 672 1 c 0,51,52
 502 1 502 1 445 51 c 1,53,-1
 436 51 l 1,54,55
 383 1 383 1 291 1 c 2,56,-1
 32 1 l 2,57,58
 21 1 21 1 10.5 16 c 128,-1,59
 0 31 0 31 0 49 c 2,0,-1
EndSplineSet
EndChar

StartChar: seenmedial
Encoding: 395 65204 138
Width: 1229
Flags: W
HStem: 1 210<980.869 1143.4> 1 231<0.0922852 429.223 521.606 824.904>
VStem: 860 91<276.155 486.197> 1146 83<236 448.905>
AnchorPoint: "ArabicBelow" 649.5 -252 basechar 0
AnchorPoint: "ArabicAbove" 649.5 866 basechar 0
LayerCount: 2
Fore
SplineSet
0 49 m 2,0,-1
 0 232 l 5,1,-1
 21 232 l 6,2,3
 422 232 422 232 450 260 c 5,4,5
 469.673 312.035 469.673 312.035 451 422 c 5,6,-1
 544 581 l 5,7,8
 548 566 548 566 548 481 c 132,-1,9
 548 396 548 396 517 270 c 5,10,-1
 522 253 l 5,11,12
 558.273 232 558.273 232 655.136 232 c 4,13,14
 810.545 232 810.545 232 843 253 c 5,15,-1
 847 259 l 5,16,17
 860 296 860 296 860 341.5 c 132,-1,18
 860 387 860 387 851 412 c 5,19,-1
 947 569 l 5,20,21
 951 554 951 554 951 472 c 132,-1,22
 951 390 951 390 919 289 c 5,23,-1
 921 273 l 5,24,25
 976 211 976 211 1069 211 c 4,26,27
 1125 211 1125 211 1144 236 c 5,28,-1
 1146 248 l 5,29,30
 1143 353 1143 353 1107 452 c 5,31,-1
 1198 611 l 5,32,33
 1229 522.298 1229 522.298 1229 276 c 6,34,-1
 1229 1 l 1,35,-1
 1122 1 l 2,36,37
 1038.61 1 1038.61 1 979 29 c 1,38,-1
 978 30 l 1,39,40
 909 58 909 58 872 90 c 1,41,-1
 861 88 l 1,42,43
 828.486 40.8029 828.486 40.8029 791.052 20.9014 c 128,-1,44
 753.619 1 753.619 1 673 1 c 0,45,46
 502 1 502 1 445 51 c 1,47,-1
 437 51 l 1,48,49
 384 1 384 1 36 1 c 2,50,-1
 32 1 l 2,51,52
 21 1 21 1 10.5 16 c 128,-1,53
 0 31 0 31 0 49 c 2,0,-1
EndSplineSet
EndChar

StartChar: sheenisolated
Encoding: 396 65205 139
Width: 1229
Flags: W
HStem: -509 231<138.499 437.317> -2 218<953.968 1133.52>
VStem: 9 38<-123.869 126.992> 846 94<280.655 487.869> 1135 83<243.908 253 253 453.905>
AnchorPoint: "ArabicBelow" 534.5 -759 basechar 0
AnchorPoint: "ArabicAbove" 534.5 866 basechar 0
LayerCount: 2
Fore
SplineSet
9 -74 m 0,0,1
 9 147 9 147 92 332 c 2,2,-1
 107.5 364 l 2,3,4
 114 377 114 377 118 383 c 1,5,6
 117 374 117 374 113 360 c 2,7,-1
 104 327 l 1,8,-1
 104 326 l 1,9,10
 47 136 47 136 47 13 c 0,11,12
 47 -278 47 -278 288 -278 c 0,13,14
 362 -278 362 -278 446 -245.5 c 128,-1,15
 530 -213 530 -213 576 -148 c 1,16,-1
 578 -139 l 1,17,18
 578 84 578 84 481 334 c 1,19,-1
 573 525.5 l 2,20,21
 576 532 576 532 576 533 c 0,22,23
 576 538 576 538 579 526 c 2,24,25
 624.169 425.551 624.169 425.551 649 246 c 1,26,-1
 658 236 l 1,27,28
 733.13 238.348 733.13 238.348 823 257 c 1,29,-1
 829 263 l 1,30,31
 846 300 846 300 846 343 c 128,-1,32
 846 386 846 386 840 415 c 1,33,-1
 936 574 l 1,34,35
 940 559 940 559 940 477 c 128,-1,36
 940 395 940 395 908 294 c 1,37,-1
 910 278 l 1,38,39
 965 216 965 216 1058 216 c 0,40,41
 1114 216 1114 216 1133 241 c 1,42,-1
 1135 253 l 1,43,44
 1132 358 1132 358 1096 457 c 1,45,-1
 1187 616 l 1,46,47
 1218 537 1218 537 1218 281 c 2,48,-1
 1218 245 l 2,49,50
 1218 241 1218 241 1220 244 c 1,51,-1
 1217 236 l 1,52,-1
 1210 44 l 2,53,54
 1209 -2 1209 -2 1121.5 -2 c 128,-1,55
 1034 -2 1034 -2 968 29 c 1,56,-1
 967 30 l 1,57,58
 898 58 898 58 861 90 c 1,59,-1
 850 88 l 1,60,61
 824.299 43.9403 824.299 43.9403 787 22 c 1,62,-1
 786 22 l 1,63,64
 749 1 749 1 662 1 c 1,65,-1
 653 -9 l 1,66,67
 630.316 -179.133 630.316 -179.133 563.5 -333.5 c 0,68,69
 549 -367 549 -367 536 -384 c 0,70,71
 494 -441 494 -441 415 -475 c 128,-1,72
 336 -509 336 -509 275 -509 c 0,73,74
 9 -509 9 -509 9 -74 c 0,0,1
576.5 868 m 5,75,-1
 663.5 998 l 5,76,-1
 846.5 894 l 5,77,-1
 863.5 898 l 5,78,-1
 931.5 1007 l 5,79,-1
 1114.5 904 l 5,80,-1
 1030.5 772 l 5,81,-1
 862.5 869 l 5,82,-1
 844.5 865 l 5,83,-1
 775.5 760 l 5,84,-1
 576.5 868 l 5,75,-1
639.5 1117 m 5,85,-1
 722.5 1245 l 5,86,-1
 894.5 1146 l 5,87,-1
 814.5 1013 l 5,88,-1
 639.5 1117 l 5,85,-1
EndSplineSet
EndChar

StartChar: sheenfinal
Encoding: 397 65206 140
Width: 1229
Flags: W
HStem: -509 231<147.499 448.405> -2 218<979.065 1141.4>
VStem: 18 38<-123.869 131.798> 855 94<280.655 487.869> 1144 83<241 453.905> 1227 2<230.908 231>
AnchorPoint: "ArabicBelow" 513.5 -759 basechar 0
AnchorPoint: "ArabicAbove" 513.5 866 basechar 0
LayerCount: 2
Fore
SplineSet
18 -74 m 0,0,1
 18 156.778 18 156.778 101 332 c 2,2,-1
 116.5 364 l 2,3,4
 123 377 123 377 127 383 c 1,5,6
 126 374 126 374 122 360 c 2,7,-1
 113 327 l 1,8,-1
 113 326 l 1,9,10
 56 136 56 136 56 13 c 0,11,12
 56 -278 56 -278 297 -278 c 0,13,14
 366.877 -278 366.877 -278 453.716 -244.401 c 128,-1,15
 540.555 -210.803 540.555 -210.803 585 -148 c 1,16,-1
 587 -139 l 1,17,18
 587 84 587 84 490 334 c 1,19,-1
 582 525.5 l 2,20,21
 585 532 585 532 585 533 c 0,22,23
 585 538 585 538 588 526 c 2,24,25
 633.169 425.551 633.169 425.551 658 246 c 1,26,-1
 667 236 l 1,27,28
 742.13 238.348 742.13 238.348 832 257 c 1,29,-1
 838 263 l 1,30,31
 855 300 855 300 855 343 c 128,-1,32
 855 386 855 386 849 415 c 1,33,-1
 945 574 l 1,34,35
 949 559 949 559 949 477 c 128,-1,36
 949 395 949 395 917 294 c 1,37,-1
 919 278 l 1,38,39
 974 216 974 216 1067 216 c 0,40,41
 1123 216 1123 216 1142 241 c 1,42,-1
 1144 253 l 1,43,44
 1141 358 1141 358 1105 457 c 1,45,-1
 1196 616 l 1,46,47
 1227 551.044 1227 551.044 1227 281 c 2,48,-1
 1227 232 l 2,49,50
 1227 227.999 1227 227.999 1229 231 c 1,51,-1
 1229 0 l 1,52,-1
 1185 0 l 1,53,-1
 1120 -2 l 2,54,55
 1043 -2 1043 -2 977 29 c 1,56,-1
 976 30 l 1,57,58
 907 58 907 58 870 90 c 1,59,-1
 859 88 l 1,60,61
 833.299 43.9403 833.299 43.9403 796 22 c 1,62,-1
 795 22 l 1,63,64
 758 1 758 1 671 1 c 1,65,-1
 662 -9 l 1,66,67
 649.796 -100.533 649.796 -100.533 618.398 -200.266 c 0,68,69
 571.441 -349.424 571.441 -349.424 545 -384 c 0,70,71
 500.517 -444.369 500.517 -444.369 422.758 -476.685 c 128,-1,72
 345 -509 345 -509 284 -509 c 0,73,74
 18 -509 18 -509 18 -74 c 0,0,1
576.5 868 m 1,75,-1
 663.5 998 l 1,76,-1
 846.5 894 l 1,77,-1
 863.5 898 l 1,78,-1
 931.5 1007 l 1,79,-1
 1114.5 904 l 1,80,-1
 1030.5 772 l 1,81,-1
 862.5 869 l 1,82,-1
 844.5 865 l 1,83,-1
 775.5 760 l 1,84,-1
 576.5 868 l 1,75,-1
639.5 1117 m 1,85,-1
 722.5 1245 l 1,86,-1
 894.5 1146 l 1,87,-1
 814.5 1013 l 1,88,-1
 639.5 1117 l 1,85,-1
EndSplineSet
EndChar

StartChar: sheeninitial
Encoding: 398 65207 141
Width: 1229
Flags: W
HStem: -1.99998 213<979.13 1142.43> 51 181<347.176 448.108 522.148 572.604>
VStem: 459 89<271.016 497.146> 859 91<276.263 486.99> 1146 82<236 239 239 248 248 448.905> 1228 1<238.908 239>
AnchorPoint: "ArabicBelow" 674.5 -252 basechar 0
AnchorPoint: "ArabicAbove" 674.5 861 basechar 0
LayerCount: 2
Fore
SplineSet
0 49 m 2,0,-1
 0 232 l 5,1,-1
 322 232 l 2,2,3
 421 232 421 232 449 260 c 1,4,-1
 453 267 l 1,5,6
 459 294 459 294 459 331.5 c 128,-1,7
 459 369 459 369 450 422 c 1,8,-1
 542 581 l 1,9,10
 548 557 548 557 548 480.7 c 128,-1,11
 548 404.4 548 404.4 516 270 c 1,12,-1
 521 253 l 1,13,14
 557.273 232 557.273 232 654.136 232 c 0,15,16
 809.545 232 809.545 232 842 253 c 1,17,-1
 847 259 l 1,18,19
 859 296 859 296 859 341.5 c 128,-1,20
 859 387 859 387 851 412 c 1,21,-1
 946 569 l 1,22,23
 950 554 950 554 950 475.5 c 128,-1,24
 950 397 950 397 918 289 c 1,25,-1
 921 273 l 1,26,27
 975 211 975 211 1068 211 c 0,28,29
 1125 211 1125 211 1143 236 c 1,30,-1
 1146 248 l 1,31,32
 1142 353 1142 353 1107 452 c 1,33,-1
 1197 611 l 1,34,35
 1228 532 1228 532 1228 276 c 2,36,-1
 1228 240 l 2,37,38
 1228 236 1228 236 1229 239 c 1,39,-1
 1227 231 l 1,40,-1
 1220 44 l 2,41,42
 1218.28 -1.99997 1218.28 -1.99997 1131.64 -1.99998 c 128,-1,43
 1045 -2 1045 -2 977 29 c 1,44,-1
 977 30 l 1,45,46
 907 59 907 59 870 90 c 1,47,-1
 861 88 l 1,48,49
 830 42 830 42 790 21.5 c 128,-1,50
 750 1 750 1 672 1 c 0,51,52
 502 1 502 1 445 51 c 1,53,-1
 436 51 l 1,54,55
 383 1 383 1 291 1 c 2,56,-1
 32 1 l 2,57,58
 21 1 21 1 10.5 16 c 128,-1,59
 0 31 0 31 0 49 c 2,0,-1
576.5 863 m 1,60,-1
 663.5 993 l 1,61,-1
 846.5 889 l 1,62,-1
 863.5 893 l 1,63,-1
 931.5 1002 l 1,64,-1
 1114.5 899 l 1,65,-1
 1030.5 767 l 1,66,-1
 862.5 864 l 1,67,-1
 844.5 860 l 1,68,-1
 775.5 755 l 1,69,-1
 576.5 863 l 1,60,-1
639.5 1112 m 1,70,-1
 722.5 1240 l 1,71,-1
 894.5 1141 l 1,72,-1
 814.5 1008 l 1,73,-1
 639.5 1112 l 1,70,-1
EndSplineSet
EndChar

StartChar: sheenmedial
Encoding: 399 65208 142
Width: 1229
Flags: W
HStem: 1 210<980.869 1143.4> 1 231<0.0922852 429.223 521.606 824.904>
VStem: 860 91<276.155 486.197> 1146 83<236 448.905>
AnchorPoint: "ArabicBelow" 649.5 -252 basechar 0
AnchorPoint: "ArabicAbove" 649.5 861 basechar 0
LayerCount: 2
Fore
SplineSet
0 49 m 2,0,-1
 0 232 l 5,1,-1
 21 232 l 6,2,3
 422 232 422 232 450 260 c 1,4,5
 469.673 312.035 469.673 312.035 451 422 c 1,6,-1
 544 581 l 1,7,8
 548 566 548 566 548 481 c 128,-1,9
 548 396 548 396 517 270 c 1,10,-1
 522 253 l 1,11,12
 558.273 232 558.273 232 655.136 232 c 0,13,14
 810.545 232 810.545 232 843 253 c 1,15,-1
 847 259 l 1,16,17
 860 296 860 296 860 341.5 c 128,-1,18
 860 387 860 387 851 412 c 1,19,-1
 947 569 l 1,20,21
 951 554 951 554 951 472 c 128,-1,22
 951 390 951 390 919 289 c 1,23,-1
 921 273 l 1,24,25
 976 211 976 211 1069 211 c 0,26,27
 1125 211 1125 211 1144 236 c 1,28,-1
 1146 248 l 1,29,30
 1143 353 1143 353 1107 452 c 1,31,-1
 1198 611 l 1,32,33
 1229 522.298 1229 522.298 1229 276 c 2,34,-1
 1229 1 l 1,35,-1
 1122 1 l 2,36,37
 1038.61 1 1038.61 1 979 29 c 1,38,-1
 978 30 l 1,39,40
 909 58 909 58 872 90 c 1,41,-1
 861 88 l 1,42,43
 828.486 40.8029 828.486 40.8029 791.052 20.9014 c 128,-1,44
 753.619 1 753.619 1 673 1 c 0,45,46
 502 1 502 1 445 51 c 1,47,-1
 437 51 l 1,48,49
 384 1 384 1 36 1 c 2,50,-1
 32 1 l 2,51,52
 21 1 21 1 10.5 16 c 128,-1,53
 0 31 0 31 0 49 c 2,0,-1
576.5 863 m 1,54,-1
 663.5 993 l 1,55,-1
 846.5 889 l 1,56,-1
 863.5 893 l 1,57,-1
 931.5 1002 l 1,58,-1
 1114.5 899 l 1,59,-1
 1030.5 767 l 1,60,-1
 862.5 864 l 1,61,-1
 844.5 860 l 1,62,-1
 775.5 755 l 1,63,-1
 576.5 863 l 1,54,-1
639.5 1112 m 1,64,-1
 722.5 1240 l 1,65,-1
 894.5 1141 l 1,66,-1
 814.5 1008 l 1,67,-1
 639.5 1112 l 1,64,-1
EndSplineSet
EndChar

StartChar: sadisolated
Encoding: 400 65209 143
Width: 1229
Flags: W
HStem: -509 231<119.242 373.984> -11 253<744 852.391 852.391 1142.68> -11 237<748.609 1142.68> 475 231<918.618 1069.77>
VStem: 9 33<-127.172 127.235> 1159 61<256.17 372.37>
AnchorPoint: "ArabicBelow" 708 -759 basechar 0
AnchorPoint: "ArabicAbove" 708 956 basechar 0
LayerCount: 2
Fore
SplineSet
9 -74 m 4,0,1
 9 147 9 147 80 332 c 4,2,3
 96 374 96 374 103 385 c 5,4,5
 103.4 389 103.4 389 91 327 c 5,6,-1
 91 326 l 5,7,8
 42 137 42 137 42 13 c 4,9,10
 42 -278 42 -278 246 -278 c 4,11,12
 309 -278 309 -278 380 -245.5 c 132,-1,13
 451 -213 451 -213 490 -148 c 5,14,-1
 492 -139 l 5,15,16
 492 84 492 84 409 334 c 5,17,-1
 491 530 l 5,18,19
 527 451 527 451 554 246 c 5,20,-1
 562 236 l 5,21,22
 648.494 236.689 648.494 236.689 724 365 c 4,23,24
 738 393 738 393 772 441 c 6,25,-1
 817 510.5 l 6,26,27
 842 548 842 548 863 587 c 4,28,29
 938 706 938 706 993.5 706 c 132,-1,30
 1049 706 1049 706 1122.5 615.5 c 132,-1,31
 1196 525 1196 525 1211 463 c 4,32,33
 1220 427 1220 427 1220 352 c 4,34,35
 1220 97 1220 97 1153 41 c 4,36,37
 1104.01 -1.59946 1104.01 -1.59946 926 -10.5 c 4,38,39
 916 -11 916 -11 904 -11 c 6,40,-1
 856 -11 l 6,41,42
 741 -11 741 -11 564 1 c 5,43,-1
 556 -9 l 5,44,45
 536.564 -175.591 536.564 -175.591 480 -333.5 c 4,46,47
 446.203 -427.851 446.203 -427.851 352 -477 c 4,48,49
 287 -509 287 -509 235 -509 c 4,50,51
 9 -509 9 -509 9 -74 c 4,0,1
740 266 m 5,52,-1
 744 242 l 5,53,54
 892 226 892 226 975 226 c 6,55,-1
 1003 226 l 6,56,57
 1044.2 228.575 1044.2 228.575 1085 240 c 4,58,59
 1159 259 1159 259 1159 294 c 4,60,61
 1159 344 1159 344 1112 392 c 4,62,63
 1030.73 475 1030.73 475 962.865 475 c 132,-1,64
 895 475 895 475 844 406 c 6,65,-1
 740 266 l 5,52,-1
EndSplineSet
EndChar

StartChar: sadfinal
Encoding: 401 65210 144
Width: 1229
Flags: W
HStem: -509 231<128.242 383.301> 0 226<572 656.263 757.609 1158.44> 475 231<929.458 1077.97>
VStem: 18 33<-127.172 127.235> 1168 61<255.723 372.323>
AnchorPoint: "ArabicBelow" 498 -759 basechar 0
AnchorPoint: "ArabicAbove" 498 956 basechar 0
LayerCount: 2
Fore
SplineSet
18 -74 m 4,0,1
 18 147 18 147 89 332 c 4,2,3
 105 374 105 374 112 385 c 5,4,5
 112.4 389 112.4 389 100 327 c 5,6,-1
 100 326 l 5,7,8
 51 137 51 137 51 13 c 4,9,10
 51 -278 51 -278 255 -278 c 4,11,12
 314.277 -278 314.277 -278 387.844 -244.325 c 132,-1,13
 461.41 -210.65 461.41 -210.65 499 -148 c 5,14,-1
 501 -139 l 5,15,16
 501 84 501 84 418 334 c 5,17,-1
 500 530 l 5,18,19
 536 451 536 451 563 246 c 5,20,-1
 571 236 l 5,21,22
 656 236 656 236 732 363 c 5,23,-1
 732 364 l 5,24,25
 740 377 740 377 751 393 c 132,-1,26
 762 409 762 409 776 432 c 6,27,-1
 873 587 l 6,28,29
 948 706 948 706 1009 706 c 4,30,31
 1055.21 706 1055.21 706 1130.1 615.5 c 132,-1,32
 1205 525 1205 525 1220 463 c 4,33,34
 1229 427 1229 427 1229 352 c 6,35,-1
 1229 0 l 5,36,-1
 572 0 l 5,37,-1
 565 -9 l 5,38,39
 545.564 -175.591 545.564 -175.591 489 -333.5 c 4,40,41
 453.996 -431.218 453.996 -431.218 361 -477 c 4,42,43
 296 -509 296 -509 244 -509 c 4,44,45
 18 -509 18 -509 18 -74 c 4,0,1
749 266 m 5,46,-1
 753 242 l 5,47,48
 901 226 901 226 984 226 c 6,49,-1
 1012 226 l 6,50,51
 1053.2 228.575 1053.2 228.575 1094 240 c 4,52,53
 1168 259 1168 259 1168 294 c 4,54,55
 1168 344 1168 344 1121 392 c 4,56,57
 1039.73 475 1039.73 475 971.865 475 c 132,-1,58
 904 475 904 475 853 406 c 6,59,-1
 749 266 l 5,46,-1
EndSplineSet
EndChar

